<?xml version="1.0" encoding="utf-8"?>
<!-- Generator: Adobe Illustrator 16.0.0, SVG Export Plug-In . SVG Version: 6.00 Build 0)  -->
<!DOCTYPE svg PUBLIC "-//W3C//DTD SVG 1.1//EN" "http://www.w3.org/Graphics/SVG/1.1/DTD/svg11.dtd">
<svg version="1.1" id="Calque_1" xmlns="http://www.w3.org/2000/svg" xmlns:xlink="http://www.w3.org/1999/xlink" x="0px" y="0px"
	 width="34.921px" height="19.032px" viewBox="0 0 34.921 19.032" enable-background="new 0 0 34.921 19.032" xml:space="preserve">
<g>
	<path fill="#FFFFFF" d="M9.52,11.035c1.407,1.119,2.159,1.166,2.427-0.311c0.269-1.48-1.816-1.866-2.407-1.912
		c-0.585-0.047-3.934,0.75-4.666,0.755C4.141,9.57,0.801,9.508,0.46,9.543c-0.342,0.035-0.191,0.729,0.008,1.08
		c0.195,0.346,2.61,1.063,3.571,1.09c-0.926,0.32-2.222,1.572-1.977,2.07c0.245,0.494,3.046,0.412,3.73,0.178
		c-0.261,0.365-0.954,1.046-0.552,1.477c0.398,0.432,1.472,0.227,2.703-0.891c0.134,0.895,0.575,1.033,0.908,0.994
		c0.334-0.039,0.961-0.76,1.902-3.455"/>
	<path fill="#64CDF6" d="M9.567,10.975c0.374,0.23,0.742,0.455,1.122,0.598c0.393,0.153,0.701,0.102,0.854-0.257
		c0.145-0.317,0.284-0.846,0.165-1.12c-0.096-0.345-0.422-0.604-0.782-0.779c-0.374-0.175-0.772-0.291-1.181-0.348
		C9.36,8.996,8.958,9.108,8.522,9.174L5.962,9.666C5.54,9.74,5.076,9.836,4.624,9.816L3.32,9.809l-2.602-0.01
		c-0.09,0.004-0.255,0.002-0.243,0.016c0.104-0.063,0.03-0.033,0.042,0.044c-0.004,0.15,0.046,0.358,0.118,0.526
		c0.065,0.213,0.571,0.363,0.943,0.51c0.802,0.268,1.66,0.514,2.466,0.575l1.065,0.082l-0.993,0.396
		c-0.478,0.178-0.938,0.518-1.322,0.896c-0.185,0.189-0.368,0.404-0.466,0.615c-0.056,0.104-0.06,0.209-0.048,0.213
		c0.06,0.042,0.126,0.072,0.199,0.09c0.491,0.133,1.069,0.145,1.622,0.142c0.275-0.004,0.556-0.018,0.832-0.043
		c0.268-0.026,0.56-0.06,0.782-0.13l0.721-0.227l-0.449,0.601c-0.253,0.343-0.524,0.633-0.613,0.927
		C5.36,15.082,5.36,15.138,5.371,15.19c0.012,0.021,0.012,0.04,0.031,0.06l0.011,0.014c-0.008-0.003,0.02,0.021-0.013-0.007
		l0.013,0.012l0.058,0.05c0.065,0.051,0.234,0.096,0.396,0.08c0.677-0.059,1.355-0.533,1.921-1.037l0.333-0.3l0.062,0.445
		c0.062,0.424,0.241,0.8,0.552,0.793c0.097,0.002,0.125-0.009,0.177-0.048c0.065-0.045,0.134-0.115,0.199-0.194
		c0.135-0.169,0.253-0.351,0.356-0.54c0.432-0.782,0.756-1.65,1.063-2.514c0.042-0.128,0.18-0.195,0.307-0.15l0,0
		c0.127,0.045,0.191,0.185,0.146,0.313v-0.002c-0.313,0.881-0.637,1.758-1.097,2.597c-0.118,0.21-0.245,0.415-0.406,0.612
		c-0.08,0.101-0.172,0.195-0.295,0.283C9.044,15.753,8.88,15.8,8.715,15.789c-0.311-0.015-0.595-0.187-0.756-0.457
		c-0.134-0.23-0.218-0.485-0.253-0.75l0.398,0.145c-0.307,0.283-0.64,0.531-0.996,0.742c-0.364,0.207-0.756,0.387-1.222,0.418
		c-0.231,0.005-0.478-0.01-0.734-0.202l-0.054-0.048l-0.015-0.014c-0.038-0.039-0.02-0.023-0.035-0.039l-0.034-0.045
		c-0.046-0.062-0.084-0.132-0.107-0.207c-0.038-0.143-0.038-0.293,0.004-0.436c0.153-0.488,0.474-0.779,0.687-1.08L5.87,14.19
		c-0.322,0.101-0.603,0.122-0.896,0.153c-0.29,0.027-0.581,0.04-0.868,0.045c-0.583,0-1.154,0-1.764-0.163
		c-0.139-0.054-0.355-0.088-0.503-0.358c-0.104-0.27-0.013-0.473,0.054-0.623c0.146-0.31,0.352-0.537,0.563-0.754
		c0.432-0.424,0.909-0.785,1.501-1.011H3.96l0.071,0.478c-0.93-0.066-1.762-0.309-2.613-0.58c-0.214-0.072-0.425-0.153-0.632-0.245
		c-0.185-0.093-0.511-0.212-0.621-0.537C0.058,10.356,0,10.098,0,9.834c0.019-0.133-0.004-0.359,0.307-0.523
		c0.219-0.064,0.279-0.029,0.406-0.04l2.615,0.028l1.3,0.02c0.421,0.018,0.816-0.064,1.253-0.135l2.565-0.475
		C8.864,8.652,9.328,8.525,9.81,8.612c0.45,0.07,0.89,0.19,1.309,0.396c0.409,0.206,0.848,0.528,1.001,1.054
		c0.149,0.586-0.015,0.975-0.203,1.45c-0.105,0.224-0.329,0.464-0.617,0.519c-0.287,0.055-0.537-0.027-0.751-0.121
		c-0.418-0.209-0.764-0.504-1.074-0.815c-0.034-0.028-0.034-0.077-0.008-0.11c0.023-0.029,0.067-0.035,0.1-0.014l0,0L9.567,10.975z"
		/>
	<path fill="#FFFFFF" d="M25.4,11.035c-1.407,1.119-2.154,1.166-2.425-0.311c-0.267-1.48,1.815-1.867,2.406-1.913
		c0.582-0.047,3.934,0.75,4.666,0.755c0.734,0.003,4.075-0.06,4.415-0.025c0.339,0.035,0.189,0.729-0.006,1.08
		c-0.199,0.346-2.611,1.063-3.573,1.09c0.926,0.32,2.22,1.572,1.975,2.07c-0.246,0.494-3.049,0.412-3.73,0.178
		c0.261,0.365,0.954,1.045,0.554,1.477c-0.4,0.43-1.475,0.227-2.705-0.891c-0.134,0.894-0.579,1.033-0.912,0.994
		c-0.334-0.039-0.961-0.76-1.9-3.455"/>
	<path fill="#65CDF6" d="M25.446,11.097c-0.311,0.31-0.659,0.606-1.077,0.817c-0.215,0.093-0.464,0.174-0.751,0.117
		c-0.292-0.055-0.514-0.294-0.617-0.518c-0.187-0.475-0.352-0.864-0.203-1.45c0.153-0.526,0.594-0.848,1-1.054
		c0.422-0.205,0.859-0.325,1.31-0.395c0.481-0.089,0.945,0.039,1.363,0.096l2.568,0.473c0.438,0.07,0.832,0.152,1.254,0.133
		l1.3-0.02l2.615-0.028c0.128,0.013,0.188-0.024,0.406,0.04c0.311,0.164,0.287,0.391,0.307,0.525c0,0.264-0.058,0.522-0.167,0.761
		c-0.109,0.323-0.435,0.444-0.619,0.537c-0.207,0.092-0.418,0.173-0.633,0.245c-0.851,0.272-1.683,0.515-2.61,0.58l0.068-0.478
		c0.595,0.224,1.07,0.587,1.503,1.011c0.213,0.217,0.418,0.443,0.565,0.756c0.063,0.149,0.156,0.354,0.053,0.623
		c-0.146,0.271-0.365,0.305-0.501,0.358c-0.611,0.163-1.183,0.162-1.766,0.163c-0.291-0.004-0.579-0.02-0.87-0.044
		c-0.293-0.03-0.571-0.054-0.894-0.152l0.272-0.375c0.211,0.302,0.531,0.593,0.687,1.08c0.03,0.128,0.048,0.28,0.003,0.437
		c-0.026,0.074-0.061,0.144-0.106,0.205l-0.035,0.045c-0.015,0.017,0.004,0-0.034,0.041l-0.016,0.012l-0.056,0.05
		c-0.255,0.192-0.5,0.206-0.733,0.2c-0.465-0.03-0.859-0.21-1.222-0.417c-0.358-0.211-0.692-0.46-0.997-0.742l0.396-0.146
		c-0.03,0.265-0.118,0.52-0.253,0.75c-0.159,0.271-0.44,0.442-0.751,0.457c-0.165,0.012-0.33-0.035-0.468-0.133
		c-0.111-0.08-0.207-0.176-0.295-0.283c-0.153-0.191-0.288-0.396-0.407-0.613c-0.456-0.84-0.781-1.717-1.096-2.598
		c-0.051-0.124,0.007-0.268,0.13-0.32s0.263,0.006,0.314,0.131c0.004,0.008,0.006,0.016,0.008,0.023l0.004,0.004
		c0.307,0.865,0.629,1.732,1.062,2.517c0.107,0.192,0.227,0.38,0.356,0.54c0.063,0.08,0.135,0.15,0.196,0.193
		c0.054,0.041,0.08,0.051,0.176,0.049c0.311,0.007,0.491-0.37,0.555-0.792l0.063-0.445l0.334,0.298
		c0.563,0.5,1.242,0.979,1.923,1.036c0.155,0.013,0.328-0.032,0.393-0.082l0.058-0.05l0.014-0.012
		c-0.032,0.027-0.01,0.002-0.018,0.005l0.012-0.015c0.02-0.018,0.023-0.039,0.034-0.057c0.008-0.053,0.006-0.108-0.011-0.16
		c-0.085-0.294-0.357-0.585-0.61-0.926l-0.444-0.6l0.715,0.225c0.225,0.07,0.516,0.104,0.784,0.13
		c0.276,0.024,0.556,0.038,0.834,0.043c0.55,0.002,1.133-0.01,1.62-0.143c0.072-0.018,0.142-0.048,0.199-0.091
		c0.012-0.004,0.008-0.107-0.048-0.209c-0.098-0.213-0.282-0.426-0.47-0.616c-0.38-0.38-0.844-0.718-1.319-0.896l-0.993-0.395
		l1.066-0.082c0.805-0.063,1.666-0.309,2.465-0.575c0.372-0.147,0.881-0.297,0.943-0.51c0.073-0.165,0.115-0.344,0.119-0.525
		c0.012-0.077-0.063-0.106,0.042-0.044c0.016-0.014-0.153-0.013-0.241-0.018l-2.6,0.011l-1.308,0.008
		c-0.45,0.021-0.916-0.077-1.334-0.149l-2.565-0.492c-0.435-0.063-0.838-0.178-1.221-0.105c-0.408,0.061-0.818,0.17-1.184,0.346
		c-0.36,0.177-0.686,0.436-0.781,0.78c-0.117,0.272,0.019,0.804,0.164,1.12c0.157,0.36,0.461,0.41,0.855,0.258
		c0.382-0.143,0.748-0.367,1.123-0.599c0.037-0.021,0.085-0.007,0.104,0.031C25.474,11.035,25.47,11.071,25.446,11.097
		L25.446,11.097z"/>
	
		<linearGradient id="SVGID_1_" gradientUnits="userSpaceOnUse" x1="-312.5522" y1="233.1201" x2="-312.5522" y2="231.8081" gradientTransform="matrix(14.4228 0 0 -18.5322 4525.3164 4318.8379)">
		<stop  offset="0" style="stop-color:#FDEC5F"/>
		<stop  offset="0.6143" style="stop-color:#F89B2E"/>
		<stop  offset="1" style="stop-color:#F26422"/>
	</linearGradient>
	<path fill="url(#SVGID_1_)" stroke="#F07122" stroke-width="0.5" stroke-linecap="round" stroke-linejoin="round" d="M14.643,3.808
		c0,0-3.708,2.37-4.233,7.426c-0.402,3.91,2.554,7.117,6.043,7.49c3.961,0.425,7.564-1.47,8.028-5.983
		c0.504-4.875-3.028-7.718-5.763-10.171c-1.336-1.2-0.36-2.319-0.36-2.319c-1.507,0.111-2.488,1.604-2.351,3.094
		c0.111,1.23,0.073,2.197-0.763,2.17C14.382,5.483,14.396,4.449,14.643,3.808L14.643,3.808z"/>
	<path fill="#341315" d="M17.521,16.205c-2.58,0-3.147-1.965-3.147-2.723c0-0.215,0.172-0.39,0.383-0.39s0.384,0.175,0.384,0.39
		c0,0.018,0.026,1.939,2.377,1.939c2.009,0,2.504-1.697,2.504-1.939c0-0.215,0.173-0.39,0.384-0.39s0.383,0.175,0.383,0.39
		C20.792,14.082,20.01,16.205,17.521,16.205L17.521,16.205z"/>
	<path fill="#331214" d="M13.714,9.314c-0.11,0.854,0,2.418,1.156,2.387c0.501-0.015,0.88-0.341,1.057-0.801
		c0.13-0.328,0.38-1.473,0.058-1.523c-0.276-0.043-0.346,0.203-0.403,0.463c-0.084,0.369-0.18,1.13-0.669,1.17
		c-0.516,0.04-0.6-0.708-0.669-1.09c-0.026-0.17-0.004-0.465-0.088-0.61c-0.111-0.196-0.368-0.296-0.438,0.006L13.714,9.314z
		 M18.672,9.221c-0.062,1.05,0.195,2.595,1.545,2.527c0.571-0.029,0.985-0.453,1.122-0.992c0.094-0.373,0.289-1.646-0.075-1.646
		c-0.341,0-0.406,0.758-0.458,1.135c-0.056,0.403-0.193,0.801-0.646,0.801c-0.548,0.002-0.82-0.586-0.928-1.07
		c-0.042-0.2-0.054-0.57-0.068-0.764C19.147,9.021,18.691,8.795,18.672,9.221z"/>
	<path fill="#FDDB3B" d="M12.499,5.429c-1.704-0.362-2.5-0.886-2.5-1.646c0-1.978,6.104-2.076,7.327-2.076
		c1.223,0,7.327,0.1,7.327,2.076c0,0.909-1.174,1.314-2.056,1.539c-0.317,0.098-0.651-0.084-0.747-0.406s0.084-0.662,0.398-0.761
		c0.02-0.006,0.038-0.011,0.058-0.015c0.541-0.139,0.844-0.27,1.009-0.362c-0.625-0.35-2.673-0.854-5.989-0.854
		c-3.313,0-5.364,0.506-5.985,0.855c0.199,0.112,0.605,0.285,1.403,0.456c0.326,0.05,0.552,0.36,0.503,0.694
		c-0.051,0.332-0.354,0.563-0.681,0.513C12.543,5.438,12.521,5.434,12.499,5.429L12.499,5.429z"/>
</g>
</svg>
