<?xml version="1.0" encoding="utf-8"?>
<!-- Generator: Adobe Illustrator 16.0.0, SVG Export Plug-In . SVG Version: 6.00 Build 0)  -->
<!DOCTYPE svg PUBLIC "-//W3C//DTD SVG 1.1//EN" "http://www.w3.org/Graphics/SVG/1.1/DTD/svg11.dtd">
<svg version="1.1" id="Calque_1" xmlns="http://www.w3.org/2000/svg" xmlns:xlink="http://www.w3.org/1999/xlink" x="0px" y="0px"
	 width="14.564px" height="18.643px" viewBox="0 0 14.564 18.643" enable-background="new 0 0 14.564 18.643" xml:space="preserve">
<g>
	
		<linearGradient id="SVGID_1_" gradientUnits="userSpaceOnUse" x1="-7.0991" y1="-5.2939" x2="-7.0991" y2="-6.6047" gradientTransform="matrix(14.1198 0 0 -18.1431 107.5154 -97.374)">
		<stop  offset="0" style="stop-color:#FDEC5F"/>
		<stop  offset="0.6143" style="stop-color:#F89B2E"/>
		<stop  offset="1" style="stop-color:#F26422"/>
	</linearGradient>
	<path fill="url(#SVGID_1_)" stroke="#F07122" stroke-width="0.5" stroke-linecap="round" stroke-linejoin="round" d="M4.494,3.733
		c0,0-3.689,2.319-4.207,7.27c-0.4,3.83,2.535,6.968,6,7.333c3.935,0.417,7.517-1.439,7.98-5.857
		c0.498-4.771-3.012-7.555-5.727-9.955C7.209,1.35,8.178,0.25,8.178,0.25C6.684,0.36,5.708,1.82,5.843,3.28
		C5.957,4.483,5.916,5.43,5.086,5.404C4.23,5.374,4.246,4.361,4.49,3.732L4.494,3.733z"/>
	<path fill="#341315" d="M8.275,8.25c0,0,0.023,0.059,0.046,0.155c0.027,0.101,0.061,0.229,0.111,0.36
		c0.061,0.129,0.121,0.267,0.229,0.377c0.107,0.107,0.25,0.214,0.428,0.289C9.267,9.506,9.468,9.549,9.663,9.59
		c0.191,0.043,0.385,0.055,0.549,0.071c0.164,0.022,0.305,0.022,0.404,0.032l0.154,0.016l0.029,0.363c0,0-0.227,0.054-0.588,0.098
		c-0.178,0.012-0.391,0.026-0.623,0.01c-0.252-0.012-0.5-0.063-0.738-0.149C8.722,9.982,8.601,9.922,8.483,9.85
		C8.151,9.64,7.929,9.291,7.876,8.9C7.824,8.485,7.927,8.276,7.914,8.27L8.275,8.25z M3.255,8.952c0,0,0.018-0.06,0.063-0.16
		c0.063-0.11,0.145-0.266,0.276-0.414c0.078-0.074,0.151-0.153,0.222-0.237c0.08-0.086,0.188-0.149,0.286-0.226
		c0.111-0.069,0.22-0.143,0.349-0.198c0.12-0.067,0.263-0.1,0.398-0.136c0.146-0.022,0.29-0.048,0.434-0.04
		c0.146-0.008,0.286,0.03,0.423,0.055c0.263,0.09,0.48,0.222,0.638,0.356c0.317,0.274,0.418,0.524,0.428,0.517L6.494,8.698
		L6.365,8.602c-0.1-0.088-0.208-0.164-0.325-0.228C5.728,8.184,5.353,8.126,5,8.215C4.81,8.278,4.614,8.346,4.441,8.449
		c-0.17,0.109-0.335,0.21-0.463,0.316c-0.129,0.11-0.234,0.197-0.302,0.258c-0.07,0.08-0.113,0.123-0.113,0.123L3.255,8.952
		L3.255,8.952z M8.872,16.059c-0.391-0.906-0.827-1.416-1.223-1.433c-0.447-0.045-0.86,0.546-1.041,0.884l-0.479-0.261
		c0.149-0.278,0.69-1.168,1.494-1.168h0.051c0.633,0.028,1.204,0.62,1.698,1.761L8.87,16.059H8.872z M12.358,10.735h-4.35v0.729
		h2.336c0.004,0.967,0.453,1.75,1.006,1.75s1.002-0.781,1.004-1.75h0.004V10.735z M6.875,10.735H2.521v0.729h2.34
		c0.002,0.967,0.451,1.75,1.006,1.75c0.553,0,1.002-0.783,1.004-1.75h0.004V10.735z"/>
</g>
</svg>
