<?xml version="1.0" encoding="utf-8"?>
<!-- Generator: Adobe Illustrator 16.0.0, SVG Export Plug-In . SVG Version: 6.00 Build 0)  -->
<!DOCTYPE svg PUBLIC "-//W3C//DTD SVG 1.1//EN" "http://www.w3.org/Graphics/SVG/1.1/DTD/svg11.dtd">
<svg version="1.1" id="Calque_1" xmlns="http://www.w3.org/2000/svg" xmlns:xlink="http://www.w3.org/1999/xlink" x="0px" y="0px"
	 width="17.885px" height="18.13px" viewBox="0 0 17.885 18.13" enable-background="new 0 0 17.885 18.13" xml:space="preserve">
<g>
	
		<linearGradient id="SVGID_1_" gradientUnits="userSpaceOnUse" x1="4.3613" y1="-5.0967" x2="4.3613" y2="-6.4074" gradientTransform="matrix(13.838 0 0 -17.6305 -53.4417 -91.1414)">
		<stop  offset="0" style="stop-color:#FDEC5F"/>
		<stop  offset="0.6143" style="stop-color:#F89B2E"/>
		<stop  offset="1" style="stop-color:#F26422"/>
	</linearGradient>
	<path fill="url(#SVGID_1_)" stroke="#F07122" stroke-width="0.5" stroke-linecap="round" stroke-linejoin="round" d="M4.262,3.635
		c0,0-3.487,2.254-3.978,7.063c-0.38,3.722,2.399,6.771,5.677,7.127c3.725,0.404,7.11-1.4,7.548-5.693
		c0.472-4.637-2.847-7.34-5.418-9.675C6.834,1.317,7.755,0.25,7.755,0.25c-1.42,0.106-2.344,1.524-2.214,2.944
		c0.106,1.168,0.067,2.09-0.716,2.063C4.014,5.229,4.031,4.245,4.262,3.635L4.262,3.635z"/>
	<path fill="#341315" d="M4.797,11.177c-0.325,0-0.59-0.272-0.592-0.609c0-0.338,0.265-0.61,0.594-0.61
		c0.326,0,0.592,0.272,0.592,0.61c-0.002,0.338-0.266,0.61-0.592,0.609l0,0H4.797z M9.324,11.177
		c-0.325,0.001-0.59-0.271-0.592-0.609c0-0.338,0.265-0.61,0.592-0.61c0.326,0,0.591,0.272,0.591,0.61
		c-0.002,0.338-0.267,0.61-0.589,0.609C9.324,11.177,9.324,11.177,9.324,11.177z M7.538,14.444H6.638
		c-0.217,0-0.393-0.182-0.393-0.406v-0.057c0-0.227,0.176-0.41,0.393-0.41H7.54c0.218,0,0.396,0.182,0.396,0.408
		c0,0.001,0,0.002,0,0.002v0.057c-0.001,0.227-0.18,0.408-0.397,0.408V14.444z"/>
	<g transform="translate(1.3 .2) translate(9.412 12.833)">
		<path fill="#FFFFFF" d="M0.985,3.801C0.014,3.805-0.776,2.99-0.782,1.981c0.004-1.011,0.794-1.827,1.766-1.823
			c0.001,0,0.001,0,0.001,0h4.142c0.971,0,1.766,0.817,1.766,1.821c-0.006,1.01-0.797,1.823-1.768,1.82H0.984L0.985,3.801z"/>
		<path fill="#341315" d="M5.126,0.45c0.816,0,1.481,0.686,1.481,1.53s-0.663,1.53-1.483,1.53H0.984
			C0.168,3.515-0.497,2.83-0.501,1.982c0,0,0,0,0-0.001c0-0.845,0.667-1.53,1.485-1.53H5.126z M5.126-0.132H0.984
			c-1.131,0-2.048,0.946-2.048,2.112c0,1.165,0.917,2.113,2.048,2.113h4.143c1.129,0,2.047-0.95,2.047-2.114
			C7.167,0.81,6.251-0.136,5.126-0.132z"/>
		<ellipse fill="#341315" cx="1.121" cy="1.951" rx="0.592" ry="0.61"/>
		<ellipse fill="#341315" cx="3.086" cy="1.951" rx="0.59" ry="0.61"/>
		<ellipse fill="#341315" cx="5.051" cy="1.951" rx="0.592" ry="0.61"/>
	</g>
</g>
</svg>
