<?xml version="1.0" encoding="utf-8"?>
<!-- Generator: Adobe Illustrator 16.0.0, SVG Export Plug-In . SVG Version: 6.00 Build 0)  -->
<!DOCTYPE svg PUBLIC "-//W3C//DTD SVG 1.1//EN" "http://www.w3.org/Graphics/SVG/1.1/DTD/svg11.dtd">
<svg version="1.1" id="Calque_1" xmlns="http://www.w3.org/2000/svg" xmlns:xlink="http://www.w3.org/1999/xlink" x="0px" y="0px"
	 width="14.054px" height="18.643px" viewBox="0 0 14.054 18.643" enable-background="new 0 0 14.054 18.643" xml:space="preserve">
<g>
	
		<linearGradient id="SVGID_1_" gradientUnits="userSpaceOnUse" x1="1.9443" y1="-9.7993" x2="1.9443" y2="-11.1101" gradientTransform="matrix(14.1183 0 0 -18.1431 -20.4844 -179.1255)">
		<stop  offset="0" style="stop-color:#FDEC5F"/>
		<stop  offset="0.6143" style="stop-color:#F89B2E"/>
		<stop  offset="1" style="stop-color:#F26422"/>
	</linearGradient>
	<path fill="url(#SVGID_1_)" stroke="#F07122" stroke-width="0.5" stroke-linecap="round" stroke-linejoin="round" d="M4.399,3.733
		c0,0-3.397,2.319-3.874,7.27c-0.371,3.83,2.336,6.968,5.529,7.333c3.625,0.417,6.923-1.439,7.35-5.857
		c0.46-4.771-2.771-7.555-5.277-9.955C6.903,1.35,7.798,0.25,7.798,0.25C6.42,0.36,5.52,1.82,5.646,3.28
		C5.749,4.483,5.712,5.43,4.949,5.404C4.159,5.374,4.174,4.361,4.399,3.733L4.399,3.733z"/>
	<g transform="translate(-.4 .1) translate(1.08 7.56)">
		<path fill="#FFFFFF" stroke="#F68B24" stroke-width="0.5" d="M2.614,0.361c-1.771,0-2.776,1.535-2.982,2.277
			c-0.128,0.45-0.056,0.936,0.189,1.297c0.233,0.342,0.596,0.531,1.021,0.531c0.62,0,0.994-0.303,1.294-0.547
			c0.238-0.193,0.427-0.345,0.697-0.345c0.526,0,0.819,0.217,1.081,0.407c0.129,0.096,0.252,0.186,0.389,0.234
			c0.418,0.152,0.987-0.031,1.312-0.43c0.18-0.217,0.377-0.592,0.319-1.168C5.755,0.839,3.763,0.361,2.614,0.361z M13.089,2.535
			c-0.122-0.605-1.082-2.264-3.092-2.264c-1.493,0-2.714,0.732-3.182,1.912C6.683,2.516,6.491,3.154,6.691,3.69
			c0.1,0.277,0.301,0.488,0.571,0.61c0.161,0.074,0.323,0.11,0.48,0.11c0.416,0,0.74-0.245,1.053-0.483
			C9.119,3.68,9.426,3.447,9.847,3.447l0.079,0.002c0.468,0.029,0.726,0.236,0.998,0.453c0.279,0.222,0.568,0.449,1.034,0.449
			c0.337,0,0.64-0.16,0.854-0.449c0.267-0.36,0.374-0.897,0.277-1.37V2.535z"/>
		<ellipse fill="#341315" cx="2.655" cy="1.212" rx="0.778" ry="0.868"/>
		<ellipse fill="#341315" cx="9.976" cy="1.157" rx="0.746" ry="0.813"/>
		<path fill="#341315" d="M4.818,5.356c0.267,0.625,0.579,0.819,1.286,0.867c0.707,0.049,1.261-0.449,1.725-0.979
			c0.735,3.03-0.81,3.917-1.364,3.917C5.74,9.162,4.185,8.471,4.818,5.354V5.356z"/>
		<path fill="#F26665" d="M5.281,7.992c0.24,0.454,0.68,0.74,1.16,0.754c0.342,0,1.17-0.439,1.221-1.796
			c-0.231-0.139-0.49-0.212-0.753-0.214c-0.694,0-1.295,0.509-1.628,1.258V7.992z M9.121,6.731c-0.099,0.002-0.18-0.084-0.184-0.191
			c0-0.076,0.038-0.146,0.101-0.18l1.772-0.994c0.088-0.049,0.195-0.012,0.242,0.083s0.009,0.213-0.077,0.263L9.201,6.708
			C9.176,6.723,9.148,6.731,9.119,6.731H9.121z M10.103,6.889c-0.073-0.001-0.14-0.049-0.165-0.123
			c-0.037-0.1,0.008-0.212,0.098-0.252c0,0,0,0,0.001,0l2.741-1.217c0.093-0.039,0.197,0.01,0.232,0.11
			c0.038,0.099-0.005,0.212-0.097,0.253c0,0,0,0-0.001,0l-2.743,1.213C10.148,6.883,10.124,6.888,10.103,6.889z M11.297,7.096
			c-0.101-0.002-0.18-0.09-0.178-0.197c0-0.088,0.054-0.163,0.131-0.187l1.495-0.426c0.095-0.026,0.191,0.036,0.217,0.14
			c0.023,0.104-0.034,0.211-0.129,0.237L11.34,7.089C11.325,7.094,11.311,7.096,11.297,7.096L11.297,7.096z M-0.082,6.694
			c-0.077,0-0.145-0.055-0.168-0.135c-0.029-0.102,0.021-0.212,0.114-0.246L1.37,5.779c0.092-0.036,0.193,0.02,0.224,0.123
			c0.031,0.104-0.02,0.213-0.112,0.246c0,0,0,0-0.002,0l-1.504,0.535C-0.042,6.69-0.06,6.694-0.08,6.694H-0.082z M0.568,7.143
			c-0.073,0-0.14-0.048-0.167-0.121c-0.037-0.1,0.007-0.213,0.099-0.254l0,0l2.742-1.216c0.094-0.04,0.197,0.008,0.233,0.107
			c0.037,0.1-0.006,0.213-0.099,0.254L0.634,7.129C0.612,7.139,0.589,7.143,0.568,7.143z M2.406,7.045
			C2.306,7.043,2.229,6.953,2.231,6.846c0.002-0.075,0.043-0.143,0.105-0.174l1.427-0.645c0.092-0.04,0.195,0.008,0.233,0.106
			c0.038,0.1-0.007,0.214-0.099,0.255l0,0L2.473,7.031c-0.021,0.01-0.045,0.015-0.068,0.015L2.406,7.045z"/>
	</g>
</g>
</svg>
