<?xml version="1.0" encoding="utf-8"?>
<!-- Generator: Adobe Illustrator 16.0.0, SVG Export Plug-In . SVG Version: 6.00 Build 0)  -->
<!DOCTYPE svg PUBLIC "-//W3C//DTD SVG 1.1//EN" "http://www.w3.org/Graphics/SVG/1.1/DTD/svg11.dtd">
<svg version="1.1" id="Calque_1" xmlns="http://www.w3.org/2000/svg" xmlns:xlink="http://www.w3.org/1999/xlink" x="0px" y="0px"
	 width="14.768px" height="18.642px" viewBox="0 0 14.768 18.642" enable-background="new 0 0 14.768 18.642" xml:space="preserve">
<g>
	
		<linearGradient id="SVGID_1_" gradientUnits="userSpaceOnUse" x1="-13.6411" y1="-8.0537" x2="-13.6411" y2="-9.3645" gradientTransform="matrix(14.1198 0 0 -18.1421 199.9949 -147.4507)">
		<stop  offset="0" style="stop-color:#FDEC5F"/>
		<stop  offset="0.6143" style="stop-color:#F89B2E"/>
		<stop  offset="1" style="stop-color:#F26422"/>
	</linearGradient>
	<path fill="url(#SVGID_1_)" stroke="#F07122" stroke-width="0.5" stroke-linecap="round" stroke-linejoin="round" d="M4.554,3.731
		c0,0-3.742,2.32-4.267,7.271c-0.406,3.83,2.573,6.968,6.087,7.333c3.992,0.417,7.625-1.44,8.095-5.858
		c0.506-4.77-3.055-7.554-5.81-9.954C7.311,1.349,8.296,0.25,8.296,0.25C6.78,0.36,5.789,1.819,5.926,3.28
		C6.04,4.483,5.999,5.43,5.158,5.403C4.289,5.374,4.306,4.36,4.552,3.731H4.554z"/>
	<path fill="#341315" d="M8.369,7.124c0,0,0.021,0.06,0.047,0.158c0.03,0.1,0.062,0.229,0.112,0.362
		C8.59,7.777,8.651,7.915,8.762,8.025C8.872,8.135,9.019,8.24,9.2,8.314c0.181,0.076,0.387,0.12,0.584,0.16
		c0.201,0.042,0.396,0.055,0.566,0.072c0.168,0.023,0.313,0.023,0.412,0.031l0.158,0.017l0.033,0.365c0,0-0.234,0.055-0.602,0.1
		C10.14,9.078,9.926,9.082,9.713,9.07C9.454,9.058,9.2,9.007,8.959,8.92C8.827,8.871,8.7,8.81,8.58,8.736
		C8.458,8.662,8.349,8.568,8.261,8.458C8.097,8.266,7.994,8.031,7.96,7.781c-0.053-0.419,0.052-0.63,0.038-0.634l0.369-0.021
		L8.369,7.124z M6.958,7.104c0,0-0.021,0.22-0.178,0.54C6.697,7.832,6.583,8.005,6.444,8.156C6.287,8.338,6.104,8.492,5.896,8.613
		C5.522,8.834,5.106,8.973,4.677,9.021c-0.346,0.04-0.569,0.021-0.569,0.021L4.061,8.677l0.138-0.048
		c0.091-0.023,0.214-0.067,0.359-0.12c0.292-0.101,0.667-0.245,0.983-0.45c0.157-0.107,0.306-0.218,0.432-0.34
		c0.119-0.115,0.229-0.235,0.334-0.362l0.317-0.408l0.338,0.154L6.958,7.104z"/>
	<path fill="#F26665" d="M10.258,13.587c-0.103,0.001-0.188-0.081-0.188-0.184c-0.002-0.07,0.039-0.135,0.103-0.167l1.85-0.939
		c0.088-0.047,0.201-0.012,0.248,0.077v0.001c0.048,0.09,0.01,0.203-0.081,0.25l-1.847,0.941
		C10.316,13.58,10.287,13.586,10.258,13.587L10.258,13.587z M11.278,13.736c-0.075-0.001-0.143-0.047-0.172-0.115
		c-0.04-0.094,0.008-0.201,0.103-0.24l2.857-1.15c0.095-0.037,0.203,0.008,0.243,0.104c0.039,0.095-0.008,0.201-0.104,0.24
		l-2.856,1.149C11.327,13.732,11.304,13.736,11.278,13.736z M12.521,13.932c-0.103-0.004-0.184-0.089-0.18-0.191
		c0.002-0.079,0.055-0.147,0.132-0.17l1.558-0.403c0.099-0.027,0.201,0.03,0.229,0.128c0.028,0.098-0.031,0.199-0.13,0.227
		c-0.002,0-0.004,0.001-0.006,0.002l-1.556,0.401c-0.016,0.005-0.029,0.007-0.045,0.008L12.521,13.932z M0.67,13.552
		c-0.079,0.001-0.152-0.051-0.176-0.127c-0.031-0.097,0.021-0.199,0.118-0.229l1.567-0.508c0.097-0.033,0.201,0.021,0.235,0.118
		c0.033,0.096-0.021,0.2-0.117,0.231c0,0.001-0.002,0.002-0.002,0.002l-1.566,0.505C0.709,13.55,0.689,13.553,0.67,13.552z
		 M1.345,13.978c-0.077,0-0.146-0.046-0.174-0.116c-0.037-0.094,0.008-0.201,0.103-0.239c0,0,0,0,0-0.001l2.858-1.149
		c0.095-0.04,0.201,0.007,0.242,0.103c0.04,0.094-0.006,0.199-0.103,0.24l-2.857,1.149C1.393,13.973,1.368,13.978,1.345,13.978z
		 M3.261,13.884c-0.104-0.001-0.188-0.083-0.186-0.185c0-0.073,0.044-0.14,0.113-0.168l1.488-0.61
		c0.099-0.028,0.201,0.028,0.229,0.127c0.025,0.083-0.012,0.171-0.089,0.213l-1.486,0.61C3.309,13.881,3.285,13.885,3.261,13.884
		L3.261,13.884z"/>
	<path fill="#341315" d="M3.275,12.092c-0.123-0.904-0.004-2.561,1.253-2.525c0.539,0.012,0.951,0.359,1.143,0.848
		c0.139,0.347,0.412,1.56,0.062,1.613c-0.3,0.045-0.373-0.215-0.438-0.49c-0.087-0.394-0.195-1.196-0.723-1.24
		c-0.559-0.043-0.648,0.75-0.724,1.156c-0.032,0.178-0.006,0.49-0.095,0.645C3.632,12.308,3.352,12.412,3.275,12.092z M8.647,12.092
		c-0.067-1.113,0.211-2.75,1.673-2.678c0.62,0.029,1.07,0.479,1.216,1.052c0.104,0.396,0.314,1.744-0.078,1.744
		c-0.371,0-0.44-0.802-0.498-1.202c-0.057-0.428-0.209-0.85-0.698-0.85c-0.599,0-0.891,0.621-1.005,1.136
		c-0.047,0.21-0.059,0.6-0.077,0.808C9.162,12.302,8.669,12.542,8.647,12.092L8.647,12.092z M8.754,16.146
		c-0.296,0-0.541-0.098-0.754-0.181c-0.189-0.075-0.352-0.138-0.529-0.138c-0.197,0-0.46,0.076-0.714,0.149
		c-0.291,0.082-0.593,0.171-0.871,0.171c-0.909,0-1.371-0.447-1.371-1.326c0-0.564,0.298-0.875,0.619-1.127l0.46,0.576
		c-0.265,0.205-0.335,0.323-0.335,0.551c0,0.47,0.132,0.59,0.633,0.59c0.17,0,0.419-0.072,0.659-0.143
		c0.305-0.087,0.62-0.178,0.922-0.178c0.322,0,0.574,0.1,0.802,0.189c0.178,0.07,0.327,0.131,0.479,0.131
		c0.665,0,0.756-0.285,0.756-0.59c0-0.233-0.081-0.34-0.34-0.563l0.487-0.555c0.313,0.271,0.595,0.559,0.595,1.115
		c-0.002,0.83-0.561,1.323-1.498,1.323V16.146z"/>
</g>
</svg>
