<?xml version="1.0" encoding="utf-8"?>
<!-- Generator: Adobe Illustrator 16.0.0, SVG Export Plug-In . SVG Version: 6.00 Build 0)  -->
<!DOCTYPE svg PUBLIC "-//W3C//DTD SVG 1.1//EN" "http://www.w3.org/Graphics/SVG/1.1/DTD/svg11.dtd">
<svg version="1.1" id="Calque_1" xmlns="http://www.w3.org/2000/svg" xmlns:xlink="http://www.w3.org/1999/xlink" x="0px" y="0px"
	 width="14.622px" height="18.642px" viewBox="0 0 14.622 18.642" enable-background="new 0 0 14.622 18.642" xml:space="preserve">
<g>
	
		<linearGradient id="SVGID_1_" gradientUnits="userSpaceOnUse" x1="3.873" y1="-4.8682" x2="3.873" y2="-6.1783" gradientTransform="matrix(14.1216 0 0 -18.1421 -47.6279 -89.6543)">
		<stop  offset="0" style="stop-color:#FDEC5F"/>
		<stop  offset="0.6143" style="stop-color:#F89B2E"/>
		<stop  offset="1" style="stop-color:#F26422"/>
	</linearGradient>
	<path fill="url(#SVGID_1_)" stroke="#F07122" stroke-width="0.5" stroke-linecap="round" stroke-linejoin="round" d="M4.258,3.732
		c0,0-3.701,2.32-4.222,7.27c-0.402,3.83,2.548,6.969,6.026,7.333c3.951,0.417,7.545-1.44,8.011-5.858
		c0.5-4.77-3.023-7.553-5.753-9.955C6.989,1.35,7.964,0.25,7.964,0.25C6.462,0.36,5.483,1.82,5.619,3.28
		C5.731,4.483,5.69,5.43,4.858,5.404C3.999,5.374,4.014,4.361,4.258,3.732z"/>
	<path fill="#341315" d="M9.385,12.751c-0.168,0.12-1.695,0.695-2.46,0.745l-0.069,0.002c-0.475,0-1.138-0.166-1.576-0.355
		c-0.35-0.152-0.512-0.219-0.653-0.219c-0.275,0.016-0.532,0.143-0.712,0.353c-0.141,0.17-0.199,0.394-0.16,0.61
		c0.008,0.043,0.18,1.026,1.178,1.532c0.639,0.324,1.426,0.503,2.209,0.503c0.486,0,0.969-0.066,1.437-0.195
		c0.553-0.152,2.286-1.229,2.385-2.141c0.035-0.238-0.038-0.48-0.198-0.66c-0.185-0.201-0.488-0.315-0.834-0.315
		C9.819,12.61,9.546,12.623,9.385,12.751L9.385,12.751z"/>
	<path fill="#FFFFFF" d="M5.248,15.024c-0.832-0.325-0.976-0.95-0.979-0.976c-0.027-0.125,0.017-0.256,0.113-0.34
		c0.146-0.121,0.327-0.193,0.518-0.201c0.113,0,0.256,0.045,0.545,0.139c0.402,0.134,1.01,0.334,1.464,0.334
		c0.782-0.036,2.222-0.538,2.35-0.615c0.114-0.07,0.337-0.074,0.402-0.074c0.128,0,0.446,0.018,0.644,0.182
		c0.113,0.09,0.167,0.234,0.143,0.375c-0.08,0.572-1.575,1.28-2.035,1.377C8,15.312,7.583,15.355,7.164,15.355
		c-0.683,0-1.362-0.12-1.916-0.334V15.024z"/>
	<path fill="#331214" d="M3.38,11.393c-0.112-0.836-0.002-2.366,1.152-2.336C5.03,9.07,5.41,9.391,5.587,9.842
		c0.127,0.319,0.378,1.439,0.056,1.489c-0.277,0.042-0.345-0.196-0.401-0.452c-0.083-0.361-0.183-1.104-0.668-1.145
		c-0.515-0.04-0.597,0.693-0.665,1.066c-0.03,0.166-0.008,0.455-0.088,0.596C3.71,11.59,3.453,11.688,3.38,11.393z M8.323,11.391
		C8.262,10.361,8.52,8.852,9.864,8.916c0.57,0.028,0.98,0.444,1.119,0.973c0.095,0.367,0.289,1.612-0.075,1.612
		c-0.341,0-0.405-0.741-0.456-1.112c-0.055-0.395-0.193-0.785-0.645-0.785c-0.55,0-0.82,0.576-0.926,1.051
		c-0.043,0.195-0.053,0.556-0.07,0.747c-0.015,0.185-0.47,0.405-0.49-0.011H8.323z"/>
</g>
</svg>
