<?xml version="1.0" encoding="utf-8"?>
<!-- Generator: Adobe Illustrator 16.0.0, SVG Export Plug-In . SVG Version: 6.00 Build 0)  -->
<!DOCTYPE svg PUBLIC "-//W3C//DTD SVG 1.1//EN" "http://www.w3.org/Graphics/SVG/1.1/DTD/svg11.dtd">
<svg version="1.1" id="Calque_1" xmlns="http://www.w3.org/2000/svg" xmlns:xlink="http://www.w3.org/1999/xlink" x="0px" y="0px"
	 width="21.804px" height="18.944px" viewBox="0 0 21.804 18.944" enable-background="new 0 0 21.804 18.944" xml:space="preserve">
<g>
	
		<linearGradient id="SVGID_1_" gradientUnits="userSpaceOnUse" x1="7.0361" y1="-3.688" x2="7.0361" y2="-4.9994" gradientTransform="matrix(14.6095 0 0 -18.4287 -88.5503 -69.3232)">
		<stop  offset="0" style="stop-color:#FDEC5F"/>
		<stop  offset="1" style="stop-color:#F26422"/>
	</linearGradient>
	<path fill="url(#SVGID_1_)" d="M12.75,3.333c0.116,1.223,0.074,2.186-0.787,2.158c-0.892-0.03-0.873-1.059-0.619-1.698
		c0,0-3.83,2.358-4.371,7.384c-0.414,3.891,2.637,7.08,6.236,7.45c4.088,0.422,7.805-1.463,8.286-5.95
		c0.519-4.848-3.126-7.675-5.95-10.113c-1.377-1.192-0.369-2.308-0.369-2.308C13.621,0.368,12.608,1.851,12.75,3.333L12.75,3.333z"
		/>
	<path fill="#F07122" d="M10.939,4.409c-1.055,0.855-3.311,3.093-3.706,6.795c-0.384,3.572,2.31,6.79,6.003,7.17
		c3.368,0.343,7.49-0.941,8-5.725c0.479-4.457-2.645-7.135-5.4-9.498l-0.461-0.398c-0.505-0.438-0.777-0.92-0.811-1.434
		c-0.014-0.242,0.025-0.485,0.113-0.713c-0.404,0.132-0.765,0.373-1.039,0.699c-0.471,0.545-0.7,1.276-0.631,2.006
		c0.095,1.004,0.08,1.756-0.31,2.16c-0.185,0.192-0.464,0.281-0.743,0.275c-0.449-0.016-0.693-0.238-0.816-0.422
		c-0.176-0.26-0.223-0.594-0.198-0.914 M14.37,18.944c-0.385,0-0.78-0.02-1.187-0.063c-3.977-0.41-6.877-3.877-6.465-7.729
		c0.545-5.09,4.328-7.473,4.488-7.572c0.095-0.059,0.215-0.051,0.303,0.018c0.086,0.068,0.117,0.186,0.076,0.289
		c-0.146,0.369-0.197,0.887-0.016,1.157c0.085,0.126,0.214,0.188,0.404,0.194c0.197,0.01,0.299-0.063,0.349-0.116
		c0.272-0.284,0.233-1.092,0.17-1.765c-0.083-0.863,0.188-1.724,0.751-2.383c0.482-0.567,1.171-0.918,1.913-0.974
		c0.104-0.013,0.206,0.044,0.25,0.14c0.048,0.093,0.033,0.206-0.038,0.282c-0.083,0.095-0.792,0.962,0.348,1.948l0.461,0.396
		c2.709,2.322,6.08,5.215,5.576,9.933c-0.416,3.88-3.266,6.239-7.385,6.239"/>
	<path fill="#331214" d="M10.386,11.147c-0.116-0.851-0.004-2.403,1.189-2.373c0.516,0.015,0.91,0.341,1.094,0.797
		c0.129,0.324,0.389,1.464,0.058,1.515c-0.287,0.042-0.357-0.2-0.416-0.46c-0.087-0.368-0.188-1.123-0.69-1.163
		c-0.533-0.04-0.619,0.703-0.689,1.084c-0.03,0.167-0.006,0.46-0.09,0.604C10.726,11.349,10.46,11.447,10.386,11.147 M15.5,11.146
		c-0.063-1.045,0.202-2.58,1.594-2.514c0.59,0.03,1.016,0.45,1.158,0.988c0.096,0.373,0.297,1.64-0.078,1.64
		c-0.353,0-0.42-0.755-0.473-1.13c-0.057-0.402-0.199-0.798-0.667-0.798c-0.567,0-0.847,0.584-0.956,1.065
		c-0.045,0.201-0.055,0.566-0.072,0.761c-0.016,0.187-0.486,0.411-0.506-0.011"/>
	<path fill="none" stroke="#341315" stroke-width="0.7" stroke-linecap="round" d="M12.361,14.254
		c0.636,1.374,3.232,1.524,3.997,0.024"/>
	<path fill="#FCB43B" d="M1.003,10.354C0.617,9.542,1.87,9.004,2.277,9.754c0.632,1.162,1.12,1.825,1.732,2.7l0.406-0.15
		c0,0-0.533-1.8-0.713-2.6c-0.246-1.102,0.992-1.301,1.323-0.4c0.157,0.426,1.478,4.301,1.478,4.301s0.254-1.801,0.865-2.101
		c0.61-0.3,1.477,0.3,1.477,0.3l-0.51,1.7c0,0,0.37,2.19,0.153,2.601c-0.662,1.25-2.14,2.049-3.769,2
		c-1.629-0.051-3.971-3.951-4.33-4.451c-0.354-0.5,0.063-1.079,0.511-0.924c0.433,0.149,1.478,1.149,1.478,1.149l0.356-0.3
		C1.64,11.653,1.384,11.153,1.003,10.354"/>
	<path fill="#F07122" d="M0.753,12.953c-0.086,0-0.146,0.063-0.17,0.094c-0.076,0.097-0.115,0.276,0.019,0.463
		c0.045,0.064,0.114,0.171,0.21,0.317c1.734,2.646,3.053,4,3.918,4.027c1.52,0.047,2.91-0.686,3.533-1.865
		c0.106-0.206-0.006-1.43-0.178-2.445c-0.006-0.037-0.004-0.074,0.008-0.109l0.453-1.521c-0.274-0.151-0.748-0.342-1.063-0.187
		c-0.338,0.166-0.63,1.217-0.728,1.91c-0.018,0.115-0.111,0.205-0.229,0.215c-0.117,0.012-0.227-0.059-0.266-0.17
		C6.248,13.644,4.94,9.808,4.786,9.388C4.664,9.056,4.394,8.94,4.19,8.998C3.966,9.062,3.875,9.312,3.95,9.647
		c0.175,0.785,0.703,2.567,0.71,2.586c0.036,0.126-0.031,0.26-0.156,0.304l-0.408,0.149c-0.109,0.041-0.232,0.002-0.299-0.094
		L3.591,12.3c-0.524-0.746-0.977-1.39-1.541-2.43C1.911,9.613,1.63,9.603,1.429,9.7c-0.063,0.031-0.362,0.199-0.197,0.546v-0.002
		c0.38,0.795,0.643,1.307,1.724,3.21c0.058,0.104,0.034,0.234-0.057,0.311l-0.356,0.299c-0.1,0.086-0.248,0.082-0.343-0.01
		c-0.388-0.369-1.106-0.996-1.383-1.093c-0.021-0.007-0.043-0.011-0.065-0.01 M4.865,18.353c-0.05,0-0.102,0-0.152-0.002
		c-1.408-0.043-3.146-2.449-4.33-4.256c-0.09-0.138-0.16-0.246-0.201-0.301c-0.239-0.336-0.241-0.75-0.006-1.052
		c0.186-0.252,0.514-0.354,0.81-0.252c0.377,0.13,1.063,0.735,1.401,1.048l0.023-0.02c-1.006-1.771-1.266-2.28-1.638-3.061
		C0.507,9.905,0.81,9.446,1.202,9.253C1.62,9.048,2.216,9.11,2.5,9.633c0.553,1.017,0.996,1.65,1.51,2.382l0.095,0.133
		c-0.15-0.51-0.511-1.754-0.65-2.395C3.298,9.06,3.64,8.633,4.048,8.517C4.47,8.397,5.038,8.603,5.265,9.216
		c0.109,0.301,0.779,2.256,1.18,3.426c0.154-0.552,0.41-1.17,0.811-1.365c0.737-0.359,1.695,0.293,1.736,0.32
		c0.09,0.063,0.128,0.174,0.098,0.275l-0.494,1.645c0.099,0.594,0.349,2.268,0.119,2.7c-0.693,1.31-2.193,2.138-3.851,2.138"/>
	<path fill="#FCB43B" d="M3.729,12.804c0,0,0.382-0.375,1.12-0.525"/>
	<path fill="#F07122" d="M3.729,13.054c-0.067,0-0.132-0.027-0.181-0.074c-0.097-0.096-0.099-0.251-0.004-0.348
		c0.002-0.002,0.003-0.004,0.004-0.005c0.018-0.019,0.445-0.43,1.25-0.593c0.137-0.029,0.271,0.059,0.301,0.193
		c0.026,0.136-0.062,0.268-0.197,0.295c0,0,0,0-0.001,0c-0.646,0.131-0.99,0.455-0.993,0.457c-0.049,0.047-0.113,0.072-0.18,0.072"
		/>
	<path fill="#FCB43B" d="M2.038,14.259c0,0,0.296-0.441,0.988-0.736"/>
	<path fill="#F07122" d="M2.037,14.509c-0.05,0-0.098-0.015-0.14-0.042c-0.114-0.073-0.147-0.227-0.073-0.341
		c0-0.002,0-0.002,0.001-0.003c0.015-0.021,0.349-0.51,1.101-0.83c0.129-0.055,0.279,0.003,0.336,0.13
		c0.055,0.125-0.002,0.271-0.127,0.327c-0.002,0.001-0.004,0.002-0.006,0.003c-0.605,0.256-0.875,0.641-0.877,0.645
		C2.203,14.468,2.123,14.509,2.037,14.509"/>
</g>
</svg>
