<?xml version="1.0" encoding="utf-8"?>
<!-- Generator: Adobe Illustrator 16.0.0, SVG Export Plug-In . SVG Version: 6.00 Build 0)  -->
<!DOCTYPE svg PUBLIC "-//W3C//DTD SVG 1.1//EN" "http://www.w3.org/Graphics/SVG/1.1/DTD/svg11.dtd">
<svg version="1.1" id="Calque_1" xmlns="http://www.w3.org/2000/svg" xmlns:xlink="http://www.w3.org/1999/xlink" x="0px" y="0px"
	 width="14.618px" height="18.642px" viewBox="0 0 14.618 18.642" enable-background="new 0 0 14.618 18.642" xml:space="preserve">
<g>
	
		<linearGradient id="SVGID_1_" gradientUnits="userSpaceOnUse" x1="1.6641" y1="-0.5845" x2="1.6641" y2="-1.8959" gradientTransform="matrix(14.1183 0 0 -18.1417 -16.1797 -11.9302)">
		<stop  offset="0" style="stop-color:#FDEC5F"/>
		<stop  offset="0.6143" style="stop-color:#F89B2E"/>
		<stop  offset="1" style="stop-color:#F26422"/>
	</linearGradient>
	<path fill="url(#SVGID_1_)" stroke="#F07122" stroke-width="0.5" stroke-linecap="round" stroke-linejoin="round" d="M4.508,3.73
		c0,0-3.701,2.32-4.221,7.271c-0.404,3.83,2.547,6.968,6.025,7.334c3.949,0.415,7.544-1.44,8.008-5.86
		c0.502-4.77-3.02-7.554-5.75-9.955C7.238,1.347,8.213,0.25,8.213,0.25C6.711,0.359,5.731,1.82,5.867,3.277
		c0.112,1.205,0.072,2.152-0.76,2.125C4.248,5.373,4.264,4.361,4.508,3.73z"/>
	<path fill="#341315" d="M8.891,16.398c0.037-0.011,0.07-0.023,0.107-0.033c1.149-1.033,1.577-3.156,1.5-3.33
		c-0.091-0.189-1.591-1.059-3.709-0.916c-0.308,0.021-0.615,0.047-0.923,0.078c-1.313,0.139-1.571,0.322-1.537,0.518
		c0.423,2.376,1.451,3.354,1.998,3.934c0.401,0.03,0.815,0.028,1.235-0.009c0.467-0.056,0.91-0.138,1.328-0.239V16.398z"/>
	<path fill="#F1F3F4" d="M4.832,12.947c0.029,0.172,0.064,0.334,0.103,0.492c1.786-0.188,2.7-0.4,4.528-0.007
		c0.127-0.044,0.271-0.241,0.396-0.448c-0.522-0.283-1.565-0.652-2.883-0.564c-1.847,0.124-2.181,0.313-2.142,0.527H4.832z"/>
	<path fill="#F26665" d="M8.658,15.898c0.637-0.563,1.014-1.523,1.174-2.16c-2.177,0.246-3.14,1.254-3.594,2.162
		c0.094,0.102,0.178,0.188,0.25,0.269c0.29,0.005,0.582-0.007,0.868-0.037C7.796,16.086,8.231,16.008,8.658,15.898L8.658,15.898z"/>
	<path fill="#331214" d="M3.582,10.971C3.471,10.135,3.58,8.605,4.734,8.636C5.232,8.648,5.611,8.97,5.789,9.42
		c0.127,0.32,0.379,1.439,0.057,1.49c-0.278,0.041-0.346-0.197-0.402-0.452C5.36,10.096,5.262,9.354,4.775,9.313
		C4.262,9.273,4.178,10.006,4.11,10.38c-0.03,0.165-0.007,0.454-0.088,0.597C3.912,11.169,3.654,11.266,3.582,10.971z M8.524,10.97
		c-0.06-1.03,0.196-2.54,1.542-2.476c0.57,0.029,0.98,0.445,1.118,0.974c0.095,0.366,0.29,1.612-0.075,1.612
		c-0.34,0-0.405-0.742-0.456-1.112c-0.056-0.396-0.192-0.785-0.644-0.785c-0.551,0-0.82,0.575-0.926,1.05
		c-0.043,0.195-0.054,0.557-0.07,0.748C8.998,11.165,8.543,11.386,8.524,10.97L8.524,10.97z"/>
</g>
</svg>
