<?xml version="1.0" encoding="utf-8"?>
<!-- Generator: Adobe Illustrator 16.0.0, SVG Export Plug-In . SVG Version: 6.00 Build 0)  -->
<!DOCTYPE svg PUBLIC "-//W3C//DTD SVG 1.1//EN" "http://www.w3.org/Graphics/SVG/1.1/DTD/svg11.dtd">
<svg version="1.1" id="Calque_1" xmlns="http://www.w3.org/2000/svg" xmlns:xlink="http://www.w3.org/1999/xlink" x="0px" y="0px"
	 width="17.852px" height="18.844px" viewBox="0 0 17.852 18.844" enable-background="new 0 0 17.852 18.844" xml:space="preserve">
<g>
	<path fill="#F05223" d="M4.191,9.984c0,0-1.416,1.063-3.908,0.761c0,0,0.67,2.146-0.283,3.151c0,0,2.596,0.334,4.686-1.771
		L4.189,9.984H4.191z"/>
	<path fill="#F05223" d="M4.636,12.369c0,0-1.362,2.117-3.836,2.466c0,0,1.37,0.306,1.376,2.308c0,0,2.463-0.896,3.38-3.73
		L4.636,12.369z"/>
	<path fill="#231F20" d="M12.419,2.753L11.975,2.36c-1.1-0.98-0.416-1.845-0.335-1.938c0.067-0.077,0.083-0.188,0.037-0.28
		c-0.045-0.09-0.13-0.155-0.243-0.14c-0.723,0.057-1.39,0.407-1.848,0.968C9.04,1.633,8.779,2.485,8.859,3.34
		C8.92,4.008,8.96,4.813,8.695,5.095C8.646,5.147,8.555,5.208,8.359,5.209C8.175,5.206,8.051,5.143,7.969,5.018
		c-0.176-0.27-0.126-0.783,0.016-1.15C8.023,3.766,7.994,3.649,7.91,3.58C7.827,3.511,7.709,3.502,7.617,3.56
		c-0.154,0.1-3.807,2.47-4.334,7.535c-0.397,3.83,2.402,7.28,6.244,7.69c0.392,0.04,0.773,0.06,1.145,0.06
		c3.979,0,6.73-2.347,7.13-6.207C18.292,7.944,15.035,5.067,12.419,2.753"/>
	
		<linearGradient id="SVGID_1_" gradientUnits="userSpaceOnUse" x1="6.8271" y1="-48.1206" x2="6.8271" y2="-49.1206" gradientTransform="matrix(9.377 0 0 -4.31 -53.605 -198.9189)">
		<stop  offset="0" style="stop-color:#F7B24E"/>
		<stop  offset="1" style="stop-color:#F69C42"/>
	</linearGradient>
	<path fill="url(#SVGID_1_)" d="M5.724,8.842l0.066,3.946c5.475-0.166,9.31,0,9.31,0l-0.064-3.98
		c-1.537-0.22-3.089-0.331-4.643-0.33C7.566,8.479,5.723,8.842,5.724,8.842L5.724,8.842z"/>
	<path fill="#331214" d="M6.684,11.851c-0.111-0.844-0.002-2.39,1.15-2.359c0.498,0.014,0.877,0.338,1.055,0.793
		c0.127,0.322,0.378,1.455,0.057,1.506c-0.276,0.043-0.344-0.2-0.4-0.457c-0.084-0.366-0.182-1.117-0.668-1.157
		c-0.514-0.04-0.596,0.7-0.665,1.078c-0.03,0.166-0.006,0.46-0.087,0.603c-0.112,0.194-0.368,0.293-0.439-0.006 M11.622,11.851
		c-0.06-1.041,0.196-2.567,1.54-2.5c0.57,0.028,0.982,0.448,1.119,0.982c0.094,0.37,0.287,1.63-0.075,1.63
		c-0.341,0-0.405-0.75-0.456-1.124c-0.055-0.399-0.193-0.793-0.645-0.793c-0.55,0-0.82,0.58-0.924,1.06
		c-0.044,0.198-0.054,0.563-0.07,0.756C12.097,12.047,11.642,12.271,11.622,11.851"/>
	<path fill="#F05223" d="M3.48,9.521c0.202,0.257,2.311-0.62,6.762-0.682c4.746-0.066,7.304,0.95,7.451,0.883
		c0.147-0.067-0.86-2.538-1.377-2.985c-0.517-0.446-3.025-0.695-6.051-0.72c-2.852-0.026-5.26,0.49-5.63,0.736
		C4.266,6.998,3.355,9.364,3.48,9.521"/>
</g>
</svg>
