<?xml version="1.0" encoding="utf-8"?>
<!-- Generator: Adobe Illustrator 16.0.0, SVG Export Plug-In . SVG Version: 6.00 Build 0)  -->
<!DOCTYPE svg PUBLIC "-//W3C//DTD SVG 1.1//EN" "http://www.w3.org/Graphics/SVG/1.1/DTD/svg11.dtd">
<svg version="1.1" id="Calque_1" xmlns="http://www.w3.org/2000/svg" xmlns:xlink="http://www.w3.org/1999/xlink" x="0px" y="0px"
	 width="27.888px" height="18.942px" viewBox="0 0 27.888 18.942" enable-background="new 0 0 27.888 18.942" xml:space="preserve">
<g>
	<g transform="translate(.5 .5) translate(0 1.7)">
		<defs>
			<filter id="Adobe_OpacityMaskFilter" filterUnits="userSpaceOnUse" x="-0.5" y="-0.514" width="13.595" height="14.604">
				<feColorMatrix  type="matrix" values="1 0 0 0 0  0 1 0 0 0  0 0 1 0 0  0 0 0 1 0"/>
			</filter>
		</defs>
		<mask maskUnits="userSpaceOnUse" x="-0.5" y="-0.514" width="13.595" height="14.604" id="t_1_">
			<g filter="url(#Adobe_OpacityMaskFilter)">
				<path id="s_1_" fill="#FFFFFF" d="M-0.501-0.515h13.597v14.605H-0.501V-0.515z"/>
			</g>
		</mask>
		<path mask="url(#t_1_)" fill="#B9539F" d="M7.084,6.278C7.091,6.274,7.097,6.27,7.105,6.266c0.135-0.078,0.26-0.253,0.24-0.417
			C7.325,5.673,7.292,5.477,7.162,5.346c-0.09-0.09-0.25-0.145-0.375-0.1c-0.126,0.04-0.232,0.127-0.296,0.242
			C6.446,5.56,6.412,5.638,6.39,5.72C6.366,5.825,6.375,5.936,6.416,6.036c0.043,0.104,0.121,0.189,0.22,0.243
			C6.769,6.359,6.951,6.361,7.084,6.278 M5.922,5.665c0.054-0.502-0.485-0.938-0.87-1.176C4.659,4.247,4.218,4.722,4.435,5.105
			c0.222,0.396,0.643,0.933,1.146,0.9C5.781,5.991,5.9,5.858,5.922,5.665 M7.508,4.429C7.49,4.241,7.48,4.052,7.482,3.864
			c0.002-0.236-0.211-0.462-0.45-0.45c-0.265,0.01-0.431,0.197-0.453,0.45l-0.013,0.13c0,0.018-0.029,0.137-0.004,0.05
			C6.54,4.124,6.529,4.21,6.511,4.294c-0.06,0.297,0.104,0.588,0.424,0.63C7.21,4.962,7.54,4.737,7.508,4.429 M8.349,5.255
			c0.391-0.481,0.832-0.921,1.315-1.31c0.353-0.287-0.113-0.894-0.49-0.633c-0.573,0.392-1.038,0.92-1.356,1.537
			c-0.166,0.32,0.279,0.725,0.531,0.41 M4.253,6.413C3.15,6.784,2.042,7.147,0.933,7.5c-0.552,0.176-0.324,1.027,0.24,0.868
			C2.294,8.05,3.401,7.681,4.488,7.262C5.008,7.062,4.8,6.228,4.253,6.413 M3.183,4.987C2.152,4.769,1.13,4.612,0.08,4.722
			c-0.766,0.08-0.78,1.135,0,1.2c0.982,0.083,1.97,0.09,2.949,0.207C3.679,6.205,3.822,5.122,3.183,4.987 M3.588,3.528
			C3.043,3.097,2.516,2.644,2.008,2.17c-0.319-0.297-0.79,0.167-0.479,0.477c0.517,0.52,1.07,0.965,1.683,1.367
			C3.501,4.204,3.867,3.747,3.588,3.528 M5.628,3.682c-0.523-1.417-1.32-2.667-2.115-3.947C3.162-0.831,2.314-0.333,2.62,0.255
			c0.704,1.354,1.497,2.63,2.664,3.628C5.425,4.003,5.708,3.893,5.628,3.682 M7.174,2.5c-0.017-0.09,0.06-0.375,0.072-0.465
			c0.024-0.18,0.063-0.36,0.088-0.543c0.048-0.346,0.058-0.696,0.11-1.042c0.052-0.35-0.424-0.627-0.62-0.26
			C6.437,0.914,5.845,2.055,6.349,2.847C6.631,3.293,7.265,2.995,7.174,2.5 M8.439,3.02c0.789-0.53,1.375-1.372,1.908-2.142
			c0.381-0.553-0.431-1.08-0.887-0.68c-0.346,0.3-0.693,0.59-0.984,0.948C8.197,1.492,7.865,1.86,7.679,2.264
			C7.468,2.719,7.931,3.359,8.439,3.02 M10.885,3.185c0.63-0.533,1.306-1.006,1.968-1.497c0.543-0.404,0.086-1.25-0.539-0.923
			c-0.826,0.43-1.545,1-2.24,1.612C9.517,2.867,10.329,3.657,10.885,3.185 M3.396,8.659c-0.846,0.73-1.629,1.462-2.211,2.422
			c-0.295,0.484,0.354,0.922,0.754,0.58c0.81-0.695,1.442-1.52,2.123-2.34C4.447,8.859,3.859,8.26,3.396,8.659 M6.062,7.335
			C5.786,7.749,5.476,8.063,5.318,8.555C5.16,9.042,5.111,9.505,5.156,10.012c0.05,0.574,0.861,0.582,0.902,0
			c0.03-0.418,0.057-0.838,0.099-1.256C6.2,8.33,6.168,7.839,6.285,7.427C6.325,7.291,6.136,7.222,6.062,7.335 M3.921,11.653
			c-0.057,0.231-0.094,0.468-0.109,0.706c-0.015,0.177,0.279,0.22,0.313,0.042c0.04-0.221,0.1-0.434,0.178-0.643
			C4.39,11.522,3.984,11.404,3.921,11.653 M6.207,11.229c0.004,0.369,0,0.734,0.047,1.101c0.063,0.479,0.689,0.479,0.753,0
			c0.048-0.366,0.042-0.731,0.048-1.101C7.06,10.686,6.201,10.686,6.207,11.229 M4.849,12.069c-0.108,0.527-0.218,1.058-0.224,1.597
			c-0.005,0.474,0.765,0.604,0.851,0.116c0.094-0.53,0.121-1.066,0.186-1.602C5.717,11.719,4.941,11.617,4.849,12.069"/>
	</g>
	<path fill="#72CDDD" d="M20.568,6.366c-0.02-0.18-0.029-0.361-0.029-0.542c0.004-0.236-0.208-0.46-0.45-0.45
		c-0.263,0.01-0.43,0.198-0.452,0.45c-0.004,0.042-0.01,0.083-0.01,0.125c-0.01,0.133,0.02-0.085-0.006,0.043
		c-0.018,0.08-0.033,0.16-0.051,0.24c-0.06,0.298,0.106,0.59,0.424,0.633C20.269,6.9,20.599,6.675,20.568,6.366 M21.369,7.173
		c0.377-0.463,0.803-0.887,1.267-1.263c0.353-0.288-0.112-0.894-0.489-0.634c-0.563,0.39-1,0.883-1.311,1.49
		C20.672,7.086,21.113,7.489,21.369,7.173 M21.275,8.435c0.522-0.07,1.031-0.042,1.551-0.085c0.521-0.042,1.04-0.097,1.56-0.136
		c0.851-0.064,0.704-1.294-0.155-1.16c-0.515,0.078-1.033,0.157-1.541,0.27c-0.51,0.116-0.992,0.32-1.502,0.446
		c-0.36,0.09-0.297,0.714,0.09,0.663 M20.558,9.16c0.246,0.673,0.601,1.288,0.967,1.902c0.238,0.398,0.816,0.05,0.617-0.36
		c-0.313-0.647-0.68-1.258-1.189-1.77c-0.157-0.158-0.477,0-0.393,0.228 M18.746,5.645c-0.492-1.372-1.26-2.576-2.03-3.81
		c-0.353-0.566-1.198-0.069-0.894,0.52c0.677,1.308,1.441,2.538,2.578,3.49C18.543,5.965,18.822,5.857,18.746,5.645 M20.243,4.505
		c-0.015-0.084,0.062-0.36,0.073-0.444c0.023-0.174,0.061-0.345,0.084-0.52c0.045-0.333,0.052-0.67,0.1-1.005
		c0.05-0.347-0.42-0.625-0.62-0.26c-0.38,0.7-0.958,1.808-0.46,2.576C19.706,5.296,20.33,5.002,20.243,4.505 M21.455,5.025
		c0.77-0.5,1.337-1.323,1.847-2.07c0.38-0.555-0.428-1.076-0.887-0.68c-0.335,0.288-0.67,0.567-0.95,0.912
		c-0.27,0.333-0.594,0.69-0.77,1.083C20.49,4.728,20.943,5.36,21.455,5.025 M23.916,6.357c1.24-0.358,2.458-0.672,3.656-1.15
		C28,5.037,27.847,4.38,27.377,4.502c-1.292,0.333-2.438,0.876-3.622,1.478C23.545,6.087,23.691,6.42,23.916,6.357 M23.818,5.183
		c0.604-0.512,1.256-0.966,1.891-1.44c0.542-0.405,0.086-1.247-0.542-0.923c-0.796,0.412-1.49,0.963-2.16,1.555
		c-0.557,0.49,0.253,1.28,0.81,0.808 M23.521,10.283c0.896,0.421,1.806,0.768,2.777,0.967c0.477,0.098,0.658-0.563,0.2-0.723
		c-0.854-0.3-1.703-0.628-2.513-1.038C23.455,9.221,22.986,10.032,23.521,10.283 M20.728,11.983
		c0.351,0.696,0.657,1.417,0.988,2.123c0.256,0.547,1.176,0.162,0.98-0.41c-0.275-0.806-0.655-1.496-1.141-2.194
		c-0.35-0.506-1.106-0.07-0.83,0.482 M23.486,12.074c0.187,0.162,0.379,0.318,0.576,0.469c0.201,0.154,0.434,0.235,0.67,0.324
		c0.412,0.154,0.604-0.447,0.283-0.67c-0.182-0.124-0.348-0.253-0.55-0.346c-0.196-0.09-0.39-0.19-0.579-0.295
		C23.57,11.384,23.195,11.817,23.486,12.074 M25.351,9.315c0.582,0.07,1.149,0.118,1.736,0.095c0.502-0.02,0.49-0.726,0-0.77
		c-0.58-0.05-1.158-0.07-1.738-0.11c-0.515-0.037-0.492,0.727,0,0.786"/>
	
		<linearGradient id="SVGID_1_" gradientUnits="userSpaceOnUse" x1="8.1069" y1="5.7744" x2="8.1069" y2="4.4637" gradientTransform="matrix(14.3953 0 0 -18.4287 -102.2734 105.0513)">
		<stop  offset="0" style="stop-color:#FDEC5F"/>
		<stop  offset="1" style="stop-color:#F26422"/>
	</linearGradient>
	<path fill="url(#SVGID_1_)" d="M12.949,3.333c0.115,1.222,0.074,2.186-0.774,2.158c-0.878-0.03-0.86-1.06-0.61-1.698
		c0,0-3.773,2.358-4.305,7.384c-0.41,3.89,2.598,7.08,6.145,7.449c4.027,0.422,7.689-1.463,8.164-5.949
		c0.511-4.849-3.082-7.675-5.862-10.114c-1.36-1.192-0.365-2.307-0.365-2.307c-1.53,0.113-2.53,1.596-2.39,3.078L12.949,3.333z"/>
	<path fill="#F07122" d="M11.166,4.408c-1.038,0.857-3.262,3.094-3.652,6.796c-0.377,3.572,2.277,6.79,5.916,7.171
		c3.32,0.342,7.381-0.943,7.885-5.727c0.471-4.456-2.606-7.134-5.321-9.498l-0.455-0.398c-0.498-0.437-0.767-0.92-0.798-1.433
		c-0.015-0.243,0.023-0.486,0.109-0.714c-0.476,0.154-0.81,0.448-1.022,0.7c-0.468,0.559-0.691,1.281-0.622,2.005
		c0.093,1.003,0.078,1.755-0.305,2.16c-0.183,0.192-0.457,0.28-0.732,0.275c-0.445-0.015-0.686-0.238-0.807-0.422
		C11.189,5.063,11.142,4.73,11.166,4.408 M14.546,18.942c-0.38,0-0.77-0.021-1.17-0.062c-3.917-0.41-6.775-3.879-6.37-7.73
		c0.538-5.09,4.265-7.473,4.423-7.572c0.094-0.057,0.213-0.049,0.297,0.02c0.086,0.07,0.116,0.185,0.076,0.287
		c-0.144,0.37-0.195,0.887-0.016,1.158c0.084,0.126,0.21,0.188,0.398,0.194c0.194,0.01,0.295-0.063,0.344-0.116
		c0.269-0.284,0.23-1.092,0.168-1.764c-0.08-0.864,0.189-1.732,0.74-2.382c0.471-0.565,1.151-0.916,1.885-0.973
		c0.105-0.013,0.205,0.044,0.248,0.14c0.047,0.093,0.031,0.205-0.038,0.282c-0.08,0.094-0.78,0.96,0.343,1.948l0.454,0.395
		c2.668,2.324,5.989,5.217,5.493,9.934C21.412,16.581,18.603,18.941,14.546,18.942"/>
	<path fill="#341315" d="M16.032,16.661c0.038-0.01,0.071-0.024,0.108-0.034c1.174-1.051,1.611-3.205,1.529-3.381
		c-0.09-0.191-1.62-1.076-3.779-0.93c-0.361,0.023-0.673,0.05-0.94,0.08c-1.341,0.14-1.603,0.322-1.567,0.523
		c0.432,2.414,1.48,3.407,2.036,3.996c0.41,0.03,0.83,0.028,1.261-0.01C15.154,16.849,15.605,16.765,16.032,16.661"/>
	<path fill="#F1F3F4" d="M11.894,13.155c0.03,0.174,0.065,0.34,0.104,0.5c1.822-0.19,2.75-0.405,4.615-0.007
		c0.129-0.044,0.277-0.245,0.402-0.456c-0.529-0.286-1.593-0.662-2.936-0.573C12.195,12.745,11.855,12.939,11.894,13.155"/>
	<path fill="#F26665" d="M15.794,16.153c0.65-0.572,1.033-1.55,1.197-2.194c-2.221,0.252-3.2,1.275-3.665,2.197
		c0.096,0.104,0.18,0.191,0.256,0.273c0.296,0.005,0.593-0.008,0.885-0.039C14.941,16.341,15.381,16.259,15.794,16.153"/>
	<path fill="#331214" d="M10.621,11.147c-0.114-0.85-0.003-2.403,1.174-2.372c0.507,0.014,0.895,0.34,1.075,0.796
		c0.13,0.325,0.387,1.464,0.058,1.515c-0.281,0.043-0.35-0.201-0.41-0.461c-0.084-0.367-0.184-1.122-0.68-1.162
		c-0.523-0.04-0.609,0.703-0.68,1.083c-0.03,0.168-0.006,0.461-0.088,0.605c-0.112,0.195-0.375,0.295-0.447-0.005 M15.659,11.145
		c-0.06-1.044,0.2-2.58,1.569-2.513c0.584,0.03,1.004,0.45,1.143,0.988c0.097,0.372,0.295,1.638-0.076,1.638
		c-0.348,0-0.413-0.754-0.465-1.129c-0.055-0.4-0.196-0.797-0.656-0.797c-0.561,0-0.836,0.584-0.943,1.066
		c-0.043,0.2-0.054,0.565-0.069,0.76c-0.017,0.187-0.479,0.412-0.5-0.01"/>
	<path fill="#33B6E9" d="M3.779,2.315c0.015,0,0.02,0,0.043,0.015c0.072,0.044,0.16,0.124,0.182,0.226
		c0.023,0.103-0.016,0.223-0.17,0.357C3.82,2.924,3.804,2.933,3.788,2.939c-0.323,0.005-0.64,0.043-0.927,0.14
		c-0.164,0.056-0.322,0.13-0.471,0.22c-0.147,0.09-0.277,0.195-0.375,0.312c-0.098,0.112-0.164,0.246-0.197,0.39
		C1.785,4.13,1.792,4.267,1.838,4.393c0.022,0.05,0.047,0.084,0.091,0.12c0.041,0.034,0.104,0.07,0.18,0.102
		c0.492,0.209,1.035,0.271,1.563,0.18c0.167-0.028,0.33-0.08,0.46-0.152c0.119-0.058,0.216-0.153,0.276-0.27
		c0.026-0.053,0.03-0.1,0.026-0.112V4.259c0,0-0.01-0.01-0.027-0.022c-0.057-0.032-0.117-0.056-0.18-0.07
		c-0.072-0.019-0.146-0.029-0.221-0.03c-0.304-0.003-0.643,0.13-0.91,0.326c-0.264,0.195-0.472,0.483-0.494,0.75
		c-0.014,0.133,0.018,0.267,0.088,0.38c0.069,0.12,0.183,0.228,0.313,0.31c0.264,0.17,0.623,0.242,0.995,0.284
		c0.364,0.042,0.702,0.02,0.944-0.14C5,6.01,5.052,5.964,5.097,5.912l0.03-0.038L5.142,5.85V5.847L5.128,5.845
		c-0.016,0-0.031-0.006-0.05-0.006C4.808,5.807,4.48,5.959,4.176,6.157C4.02,6.26,3.869,6.369,3.722,6.485
		c-0.141,0.112-0.261,0.23-0.33,0.346C3.385,6.846,3.375,6.861,3.37,6.875L3.355,6.908L3.347,6.93
		C3.339,6.944,3.338,6.96,3.333,6.973c-0.02,0.084-0.012,0.173,0.021,0.253c0,0,0.008,0.035,0.039,0.094
		c0.113,0.204,0.311,0.348,0.539,0.393C4.083,7.745,4.248,7.741,4.4,7.72c0.258-0.047,0.429-0.116,0.533-0.14
		C5.039,7.55,5.08,7.56,5.074,7.602c-0.018,0.08-0.23,0.305-0.596,0.453c0.734,0.222,1.15,0.998,0.928,1.733
		c-0.223,0.735-0.998,1.15-1.732,0.929c-0.735-0.223-1.15-0.999-0.929-1.733c0.12-0.396,0.409-0.717,0.79-0.878
		C3.293,8.026,3.082,7.879,2.922,7.682c-0.071-0.09-0.129-0.19-0.17-0.298L2.745,7.357C2.682,7.15,2.687,6.93,2.759,6.727
		l0.018-0.05l0.007-0.014l0.021-0.046C2.873,6.479,2.96,6.352,3.068,6.24c0.16-0.167,0.33-0.293,0.49-0.41
		C3.72,5.712,3.89,5.594,4.078,5.49C4.265,5.388,4.47,5.295,4.706,5.246c0.12-0.026,0.245-0.036,0.368-0.03l0.095,0.006l0.101,0.016
		c0.045,0.005,0.092,0.023,0.135,0.04l0.135,0.047c0.164,0.078,0.27,0.242,0.273,0.423c0,0.092-0.02,0.183-0.059,0.267
		C5.72,6.094,5.678,6.169,5.628,6.239c-0.156,0.213-0.368,0.36-0.59,0.452C4.821,6.776,4.589,6.82,4.355,6.821
		C4.143,6.823,3.931,6.807,3.722,6.773C3.509,6.744,3.301,6.695,3.099,6.627C2.878,6.554,2.673,6.441,2.493,6.295
		C2.3,6.138,2.15,5.935,2.058,5.705c-0.092-0.243-0.105-0.509-0.037-0.76C2.083,4.714,2.197,4.5,2.351,4.317
		c0.293-0.346,0.682-0.598,1.117-0.726c0.226-0.068,0.462-0.092,0.696-0.07c0.12,0.012,0.239,0.04,0.358,0.082
		c0.14,0.045,0.268,0.124,0.369,0.23c0.066,0.07,0.113,0.155,0.141,0.248c0.029,0.095,0.029,0.183,0.023,0.263
		C5.048,4.419,5.03,4.493,5.002,4.564c-0.024,0.063-0.055,0.125-0.09,0.183C4.772,4.96,4.573,5.129,4.338,5.232
		c-0.21,0.1-0.435,0.156-0.646,0.186C3.051,5.51,2.396,5.419,1.804,5.156C1.685,5.103,1.576,5.032,1.478,4.945
		c-0.104-0.101-0.185-0.224-0.233-0.36C1.162,4.342,1.152,4.08,1.217,3.832c0.058-0.237,0.179-0.462,0.334-0.64
		c0.154-0.178,0.337-0.317,0.521-0.43c0.186-0.113,0.385-0.206,0.592-0.275c0.37-0.123,0.747-0.165,1.113-0.17"/>
	<path fill="#BB57A1" d="M23.861,7.235c-0.01,0.002-0.012,0.003-0.026-0.004c-0.063-0.021-0.118-0.059-0.16-0.11
		c-0.042-0.058-0.063-0.144,0.032-0.277c0.01-0.011,0.02-0.021,0.031-0.028c0.269-0.078,0.545-0.087,0.809-0.052
		c0.334,0.045,0.655,0.157,0.943,0.338c0.145,0.092,0.277,0.198,0.396,0.325c0.118,0.128,0.222,0.278,0.288,0.455
		c0.146,0.375,0.041,0.802-0.262,1.067c-0.141,0.124-0.307,0.213-0.488,0.26c-0.163,0.043-0.331,0.069-0.5,0.076
		c-0.159,0.009-0.318,0.01-0.479,0.005c-0.174-0.004-0.346-0.034-0.512-0.088c-0.092-0.032-0.18-0.077-0.26-0.134
		c-0.088-0.063-0.162-0.145-0.215-0.24c-0.064-0.117-0.08-0.255-0.043-0.384c0.037-0.117,0.111-0.219,0.21-0.292
		c0.17-0.13,0.347-0.174,0.522-0.204c0.09-0.012,0.18-0.017,0.269-0.015c0.087,0.004,0.175,0.014,0.26,0.03
		c0.337,0.068,0.66,0.217,0.916,0.474c0.123,0.127,0.242,0.29,0.282,0.503c0.02,0.106,0.016,0.23-0.033,0.345
		c-0.047,0.108-0.124,0.2-0.222,0.266c-0.075,0.05-0.153,0.093-0.236,0.128c-0.222,0.101-0.452,0.179-0.69,0.232
		c-0.319,0.07-0.664,0.098-1.01,0.01c-0.041-0.014-0.084-0.024-0.127-0.04c-0.014-0.006-0.06-0.023-0.092-0.037
		c-0.033-0.014-0.066-0.031-0.098-0.05c-0.123-0.08-0.206-0.187-0.217-0.312c-0.006-0.063,0.007-0.125,0.037-0.18
		c0.031-0.056,0.075-0.102,0.129-0.136c0.103-0.059,0.211-0.107,0.322-0.143c0.323-0.123,0.674-0.156,1.014-0.095
		c0.174,0.036,0.346,0.098,0.504,0.21c0.08,0.054,0.152,0.124,0.214,0.21c0.06,0.084,0.104,0.184,0.127,0.286
		c0.04,0.201,0.009,0.41-0.09,0.59c-0.093,0.165-0.224,0.303-0.382,0.405c-0.091,0.062-0.188,0.113-0.289,0.154L24.7,10.798
		l-0.026,0.01c-0.033,0.012-0.068,0.025-0.104,0.035c-0.094,0.032-0.191,0.058-0.289,0.076c0,0-0.182,0.027-0.42,0.019
		c-0.257-0.011-0.512-0.048-0.76-0.11c-0.393-0.092-0.5-0.16-0.455-0.193c0.047-0.037,0.252-0.045,0.494-0.045
		c-0.023-0.008,0.267,0.008,0.551-0.013c0.144-0.01,0.283-0.03,0.387-0.052c0.104-0.02,0.17-0.04,0.17-0.04
		c0.064-0.015,0.127-0.031,0.189-0.052c0.027-0.008,0.055-0.02,0.08-0.03c0.008-0.002,0.014-0.004,0.021-0.006l0.03-0.012
		c0.075-0.03,0.146-0.068,0.215-0.114c0.1-0.062,0.182-0.148,0.24-0.25c0.051-0.089,0.068-0.193,0.049-0.294
		c-0.021-0.098-0.082-0.182-0.168-0.235c-0.102-0.067-0.215-0.114-0.336-0.136c-0.264-0.044-0.533-0.018-0.783,0.078L23.691,9.47
		c0.004,0-0.006-0.004,0.015,0.004c0.03,0.013,0.06,0.02,0.09,0.028c0.25,0.066,0.53,0.05,0.804-0.012
		c0.27-0.062,0.529-0.16,0.773-0.292c0.03-0.018,0.055-0.045,0.07-0.077c0.012-0.032,0.014-0.066,0.007-0.1
		c-0.026-0.107-0.085-0.204-0.165-0.278c-0.189-0.182-0.429-0.304-0.688-0.35c-0.125-0.026-0.254-0.031-0.38-0.013
		c-0.115,0.013-0.226,0.053-0.321,0.118c-0.037,0.028-0.054,0.054-0.058,0.07c-0.005,0.018-0.005,0.027,0.011,0.057
		c0.026,0.058,0.125,0.132,0.232,0.167c0.111,0.04,0.245,0.057,0.385,0.063c0.141,0.005,0.294,0.004,0.436-0.003
		c0.285-0.015,0.557-0.07,0.719-0.223c0.082-0.073,0.142-0.169,0.17-0.276c0.026-0.106,0.018-0.219-0.023-0.32
		c-0.08-0.217-0.283-0.42-0.508-0.563c-0.232-0.145-0.494-0.237-0.766-0.273c-0.209-0.031-0.423-0.018-0.627,0.038"/>
	<path fill="#FBEE33" d="M1.381,11.735c0.009,0.007,0.011,0.007,0.011,0.028c0.006,0.029,0.004,0.061-0.004,0.09
		c-0.005,0.01-0.015,0.01-0.021,0.018c-0.056,0.045-0.113,0.087-0.173,0.127l-0.034,0.024l0.013-0.011c0,0-0.005-0.006-0.003,0
		c-0.005,0.007-0.005,0.019-0.005,0.014c0-0.004-0.01-0.016-0.008-0.014l0.205-0.213l0.186,0.223c0,0-0.01,0.086-0.056,0.18
		c-0.046,0.113-0.146,0.195-0.265,0.221C1.22,12.433,1.07,12.417,1.07,12.417L0.888,12.2l-0.121-0.14l0.067-0.174
		c0.043-0.109,0.139-0.189,0.254-0.215C1.191,11.649,1.298,11.671,1.381,11.735"/>
	<path fill="#33B6E9" d="M3.568,14.991c0.004,0,0.004,0,0.016,0.009c0.162,0.123,0.31,0.264,0.439,0.42l-0.344,0.359
		c0,0-0.103,0.014-0.211-0.01c-0.129-0.014-0.231-0.112-0.25-0.24c-0.013-0.004,0.014-0.182,0.014-0.182s0.334-0.351,0.338-0.356"/>
	<path fill="#FBEE33" d="M27.15,6.493c0-0.003,0-0.003,0.017-0.005c0.075-0.006,0.15-0.003,0.226,0.008
		c0.1,0.014,0.221,0.04,0.354,0.07l0.025,0.005c0,0-0.004,0.02-0.004,0.054c0,0.032,0.006,0.08,0.021,0.132
		c0.03,0.105,0.101,0.226,0.101,0.226l-0.015,0.068c-0.011,0.051-0.024,0.102-0.044,0.15c-0.051,0.17-0.191,0.205-0.296,0.177
		c-0.007,0.017-0.198-0.103-0.198-0.107l-0.05-0.1c-0.038-0.079-0.071-0.16-0.097-0.243c-0.027-0.093-0.043-0.19-0.047-0.288
		C27.14,6.555,27.15,6.496,27.15,6.493 M26.548,13.875c0.141,0.153,0.266,0.321,0.372,0.5l-0.042,0.033
		c-0.029,0.023-0.058,0.05-0.084,0.077c-0.061,0.06-0.105,0.127-0.105,0.127s-0.082,0.008-0.188,0c-0.152,0.003-0.266-0.08-0.3-0.17
		c-0.019,0-0.025-0.185-0.021-0.187c0,0,0.073-0.108,0.166-0.203c0.045-0.047,0.094-0.092,0.133-0.123l0.068-0.053"/>
	<path fill="#EB579F" d="M24.258,15.587l0.007-0.014c0.043-0.08,0.137-0.286,0.303-0.5c0.005-0.006,0.011-0.012,0.017-0.018
		c0.002,0.002,0.037,0.021,0.085,0.057c0.14,0.104,0.258,0.236,0.346,0.387c0,0-0.002,0.029-0.01,0.069
		c-0.012,0.052-0.032,0.1-0.063,0.144c-0.086,0.143-0.236,0.137-0.319,0.129c-0.005,0.004-0.042-0.01-0.078-0.02
		c-0.022-0.006-0.046-0.012-0.069-0.016c0,0-0.041-0.068-0.096-0.123c-0.037-0.037-0.078-0.07-0.123-0.098"/>
	<path fill="#FBEE33" d="M22.918,15.992l0.015,0.004c0.189,0.073,0.37,0.167,0.539,0.28c-0.968,1.192-2.719,1.374-3.912,0.405
		c-1.191-0.967-1.373-2.719-0.406-3.911c1.119-1.089,2.908-1.066,3.997,0.052c1.063,1.092,1.069,2.83,0.014,3.93
		c0,0-0.11,0.032-0.22,0.014c-0.129-0.008-0.234-0.103-0.258-0.229c-0.006-0.003-0.006-0.047-0.006-0.09s0.002-0.085,0.002-0.085
		s0.066-0.084,0.125-0.176C22.848,16.123,22.885,16.058,22.918,15.992"/>
</g>
</svg>
