<?xml version="1.0" encoding="utf-8"?>
<!-- Generator: Adobe Illustrator 16.0.0, SVG Export Plug-In . SVG Version: 6.00 Build 0)  -->
<!DOCTYPE svg PUBLIC "-//W3C//DTD SVG 1.1//EN" "http://www.w3.org/Graphics/SVG/1.1/DTD/svg11.dtd">
<svg version="1.1" id="Calque_1" xmlns="http://www.w3.org/2000/svg" xmlns:xlink="http://www.w3.org/1999/xlink" x="0px" y="0px"
	 width="23.912px" height="18.942px" viewBox="0 0 23.912 18.942" enable-background="new 0 0 23.912 18.942" xml:space="preserve">
<g>
	<path fill="#FEE936" d="M19,9.035c-0.024,0-0.048-0.003-0.071-0.01l-4.834-1.428c-0.073-0.022-0.132-0.075-0.16-0.145
		c-0.023-0.055-0.215-0.545,0.021-0.89c0.076-0.112,0.221-0.24,0.484-0.278c-0.049-0.464,0.043-1.068,0.631-1.23
		C15.197,5.019,15.328,5,15.458,5c0.132,0,0.25,0.02,0.356,0.053c0.007-0.386,0.109-0.87,0.55-1.043
		c0.167-0.066,0.333-0.1,0.493-0.1c0.164,0,0.302,0.035,0.41,0.08c0.17-0.318,0.513-0.786,1.062-0.786
		c0.018,0,0.035,0.002,0.054,0.003c0.512,0.03,0.834,0.347,1.01,0.59c0.237-0.16,0.516-0.249,0.801-0.257
		c0.119,0,0.234,0.017,0.346,0.052c0.32,0.1,0.493,0.36,0.585,0.578c0.099-0.038,0.202-0.057,0.308-0.058
		c0.168,0,0.33,0.056,0.461,0.16c0.285,0.226,0.342,0.544,0.313,0.805c0.22,0.054,0.5,0.188,0.664,0.518
		c0.13,0.267,0.146,0.514,0.125,0.7c0.255,0.042,0.426,0.153,0.5,0.328c0.118,0.28,0,0.822-0.04,0.982
		c-0.021,0.086-0.088,0.155-0.173,0.18l-4.21,1.24c-0.023,0.006-0.047,0.01-0.07,0.01"/>
	<path fill="#F7911E" d="M18.329,2.955c-0.58,0-0.96,0.393-1.18,0.738c-0.096-0.021-0.194-0.031-0.293-0.03
		c-0.191,0-0.389,0.04-0.588,0.117c-0.449,0.177-0.623,0.587-0.68,0.976c-0.196-0.014-0.395,0.005-0.584,0.058
		c-0.604,0.167-0.838,0.71-0.832,1.28c-0.174,0.062-0.324,0.177-0.428,0.33c-0.303,0.444-0.092,1.014-0.047,1.124
		c0.058,0.14,0.177,0.247,0.324,0.29l4.83,1.427c0.094,0.028,0.195,0.028,0.289,0l4.211-1.24c0.172-0.05,0.304-0.188,0.347-0.362
		c0.069-0.284,0.165-0.81,0.026-1.137c-0.09-0.201-0.262-0.354-0.471-0.42c-0.008-0.215-0.063-0.426-0.16-0.618
		c-0.131-0.267-0.356-0.476-0.633-0.586c-0.007-0.323-0.158-0.625-0.414-0.823c-0.223-0.177-0.51-0.25-0.789-0.2
		c-0.143-0.25-0.373-0.437-0.646-0.524c-0.136-0.042-0.278-0.064-0.421-0.064c-0.283,0-0.537,0.083-0.739,0.183
		C19.167,3.151,18.758,2.963,18.329,2.955 M18.328,3.454l0.04,0.002c0.667,0.038,0.949,0.712,0.949,0.712s0.389-0.378,0.875-0.378
		c0.092,0,0.184,0.013,0.271,0.04c0.431,0.134,0.507,0.713,0.507,0.713s0.211-0.182,0.461-0.182c0.1,0,0.203,0.028,0.303,0.106
		c0.382,0.3,0.16,0.826,0.16,0.826h0.029c0.118,0,0.53,0.027,0.719,0.41c0.223,0.45,0.031,0.823,0.031,0.823s0.027-0.002,0.07-0.002
		c0.138,0,0.443,0.022,0.516,0.194c0.096,0.225-0.05,0.827-0.05,0.827l-4.21,1.24l-4.832-1.426c0,0-0.343-0.834,0.43-0.835
		c0.045,0,0.094,0.002,0.146,0.008c0,0-0.29-1.048,0.395-1.237c0.118-0.03,0.225-0.044,0.32-0.044c0.434,0,0.648,0.27,0.648,0.27
		s-0.205-1.058,0.35-1.277c0.15-0.06,0.285-0.083,0.4-0.083c0.192-0.005,0.38,0.064,0.521,0.195c0,0,0.311-0.9,0.95-0.9"/>
	<path fill="#FEBC11" d="M23.208,7.545l-4.21,1.24l-4.83-1.426c0,0-0.385-0.934,0.575-0.826c0,0-0.29-1.048,0.396-1.237
		c0.647-0.176,0.967,0.225,0.967,0.225s-0.205-1.057,0.351-1.276c0.597-0.237,0.922,0.112,0.922,0.112s0.32-0.937,0.99-0.9
		c0.667,0.038,0.95,0.712,0.95,0.712s-0.76-0.13-0.961,0.217c-0.231,0.41-0.049,0.793-0.049,0.793s-0.545-0.05-0.804,0.128
		c-0.26,0.18,0.207,0.818,0.207,0.818s-0.415,0.562-0.13,0.894c0.284,0.332,1.008-0.05,1.008-0.05s0.338,0.46,0.776,0.536
		c0.44,0.076,1.034-0.077,1.216-0.41c0,0,0.57,0.563,1.035,0.512c0.466-0.05,1.59-0.06,1.59-0.06"/>
	<path fill="#FFFFFF" d="M18.633,17.181c-0.025,0-0.051-0.004-0.074-0.01l-3.408-1.037c-0.092-0.027-0.16-0.104-0.176-0.199
		l-1.361-8.49c-0.014-0.081,0.015-0.164,0.074-0.22c0.062-0.057,0.146-0.08,0.228-0.063l4.873,1.024l4.56-1.022
		c0.082-0.018,0.166,0.004,0.228,0.06c0.061,0.055,0.091,0.136,0.08,0.217l-1.154,8.542c-0.014,0.101-0.086,0.183-0.185,0.208
		l-3.616,0.982c-0.022,0.007-0.045,0.01-0.067,0.01"/>
	<path fill="#E21F26" d="M23.404,6.905c-0.038,0-0.075,0.005-0.112,0.014l-4.505,1.01l-4.819-1.012
		c-0.164-0.034-0.332,0.013-0.453,0.127c-0.121,0.113-0.177,0.277-0.15,0.44l1.361,8.49c0.03,0.188,0.166,0.343,0.351,0.4
		l3.409,1.033c0.092,0.028,0.189,0.029,0.283,0.005l3.617-0.985c0.195-0.051,0.342-0.215,0.369-0.416l1.152-8.542
		c0.021-0.163-0.038-0.325-0.16-0.435C23.653,6.95,23.531,6.903,23.404,6.905 M23.405,7.404l-1.154,8.541l-3.617,0.984l-3.408-1.035
		l-1.363-8.49l4.927,1.037L23.405,7.404"/>
	<path fill="#B9BAC0" d="M18.633,16.931l-3.41-1.036l-1.359-8.49l4.927,1.037L18.633,16.931"/>
	<path fill="#E21F26" d="M16.199,16.458c-0.129,0-0.237-0.097-0.252-0.225l-0.89-8.644c-0.015-0.137,0.086-0.26,0.223-0.274
		c0.001,0,0.002,0,0.002,0c0.138-0.014,0.262,0.085,0.277,0.223l0.892,8.643c0.014,0.139-0.087,0.261-0.224,0.274
		c-0.01,0.001-0.02,0.001-0.028,0.001 M21.149,16.66c-0.137,0.002-0.251-0.108-0.252-0.246c-0.001-0.01,0-0.02,0-0.029l0.891-8.87
		c0.016-0.138,0.139-0.237,0.277-0.223c0.137,0.012,0.238,0.133,0.227,0.271c0,0.001,0,0.001,0,0.002l-0.891,8.87
		c-0.014,0.127-0.121,0.225-0.25,0.225 M17.43,16.919c-0.135,0.001-0.246-0.104-0.254-0.238l-0.42-8.766
		c-0.006-0.138,0.1-0.255,0.238-0.262c0,0,0.001,0,0.002,0c0.137-0.007,0.258,0.1,0.264,0.238l0.422,8.768
		c0.006,0.138-0.102,0.255-0.239,0.26c-0.005,0.001-0.01,0.001-0.015,0.001 M18.633,17.028h-0.005
		c-0.14-0.001-0.251-0.114-0.25-0.254c0-0.001,0-0.001,0-0.001l0.16-8.386c0.003-0.138,0.116-0.248,0.255-0.245h0.001
		c0.14,0.002,0.252,0.116,0.25,0.254l-0.157,8.387c-0.003,0.137-0.115,0.246-0.252,0.246 M19.969,16.769
		c-0.139,0.002-0.252-0.109-0.254-0.247c0-0.005,0-0.009,0-0.013l0.395-8.618c0.006-0.138,0.122-0.245,0.26-0.24
		c0.002,0,0.004,0,0.005,0c0.138,0.004,0.247,0.12,0.242,0.257c0,0.001,0,0.003,0,0.004l-0.394,8.615
		C20.216,16.664,20.104,16.769,19.969,16.769"/>
	<path fill="#FFFFFF" d="M22.158,11.544c-0.08,1.098-0.69,1.95-1.364,1.902s-1.156-0.977-1.078-2.074
		c0.08-1.098,0.69-1.95,1.364-1.902C21.753,9.518,22.237,10.446,22.158,11.544"/>
	<path fill="#E21F26" d="M21.026,9.719c-0.301,0-0.53,0.26-0.646,0.418c-0.229,0.322-0.377,0.768-0.411,1.253
		c-0.068,0.943,0.317,1.771,0.842,1.807c0.316,0.023,0.563-0.25,0.681-0.416c0.231-0.322,0.38-0.768,0.413-1.254
		c0.07-0.943-0.317-1.77-0.842-1.807C21.051,9.719,21.039,9.719,21.026,9.719 M20.85,13.7c-0.024,0-0.049-0.002-0.074-0.004
		c-0.825-0.058-1.401-1.085-1.312-2.34c0.04-0.575,0.22-1.11,0.505-1.507c0.31-0.433,0.711-0.656,1.129-0.627
		c0.826,0.058,1.403,1.086,1.313,2.34c-0.042,0.576-0.22,1.111-0.505,1.508C21.615,13.48,21.242,13.7,20.85,13.7"/>
	
		<linearGradient id="SVGID_1_" gradientUnits="userSpaceOnUse" x1="2.71" y1="9.2783" x2="2.71" y2="7.9676" gradientTransform="matrix(14.5244 0 0 -18.4297 -31.8318 169.6323)">
		<stop  offset="0" style="stop-color:#FDEC5F"/>
		<stop  offset="1" style="stop-color:#F26422"/>
	</linearGradient>
	<path fill="url(#SVGID_1_)" d="M6.034,3.333c0.117,1.222,0.074,2.186-0.78,2.158c-0.887-0.03-0.87-1.06-0.616-1.698
		c0,0-3.809,2.358-4.344,7.384c-0.414,3.89,2.62,7.08,6.2,7.449c4.063,0.422,7.76-1.463,8.237-5.949
		c0.516-4.849-3.108-7.675-5.916-10.114C7.446,1.371,8.448,0.255,8.448,0.255c-1.544,0.114-2.555,1.597-2.414,3.08V3.333z"/>
	<path fill="#F07122" d="M4.233,4.408c-1.045,0.857-3.289,3.094-3.682,6.797c-0.381,3.572,2.297,6.79,5.969,7.17
		c3.349,0.342,7.447-0.943,7.955-5.726c0.476-4.456-2.629-7.134-5.369-9.498L8.647,2.753C8.145,2.316,7.874,1.833,7.842,1.32
		C7.828,1.076,7.866,0.833,7.954,0.605c-0.482,0.154-0.82,0.448-1.035,0.7C6.448,1.861,6.221,2.584,6.291,3.31
		c0.095,1.003,0.08,1.755-0.308,2.16C5.799,5.662,5.524,5.75,5.244,5.745c-0.45-0.015-0.69-0.238-0.812-0.422
		C4.258,5.063,4.211,4.73,4.235,4.408 M7.645,18.942c-0.383,0-0.775-0.021-1.181-0.062c-3.952-0.41-6.836-3.879-6.426-7.73
		C0.581,6.06,4.34,3.677,4.5,3.578c0.094-0.058,0.215-0.049,0.301,0.02c0.086,0.068,0.116,0.185,0.076,0.287
		C4.731,4.255,4.68,4.772,4.862,5.043c0.084,0.126,0.212,0.188,0.4,0.194c0.197,0.01,0.299-0.063,0.35-0.116
		c0.27-0.284,0.23-1.092,0.168-1.764C5.697,2.495,5.966,1.636,6.526,0.975C7.004,0.409,7.69,0.058,8.428,0.002
		c0.105-0.014,0.207,0.043,0.25,0.14c0.048,0.093,0.031,0.206-0.039,0.282c-0.082,0.094-0.787,0.96,0.346,1.948l0.459,0.395
		c2.693,2.324,6.046,5.217,5.544,9.934C14.575,16.582,11.742,18.941,7.645,18.942"/>
	<path fill="#341315" d="M9.143,16.661c0.041-0.01,0.074-0.024,0.11-0.034c1.183-1.051,1.625-3.205,1.542-3.381
		c-0.09-0.191-1.633-1.076-3.813-0.93c-0.364,0.023-0.68,0.05-0.95,0.08c-1.351,0.14-1.617,0.322-1.58,0.523
		c0.435,2.414,1.491,3.407,2.053,3.996c0.414,0.03,0.841,0.028,1.271-0.01C8.258,16.849,8.713,16.765,9.143,16.661"/>
	<path fill="#F1F3F4" d="M4.969,13.155c0.03,0.174,0.066,0.34,0.105,0.5c1.84-0.19,2.777-0.405,4.66-0.007
		c0.13-0.044,0.279-0.245,0.404-0.456c-0.535-0.286-1.607-0.662-2.963-0.573c-1.902,0.126-2.242,0.32-2.205,0.535"/>
	<path fill="#F26665" d="M8.906,16.153c0.655-0.571,1.042-1.55,1.207-2.194c-2.24,0.252-3.229,1.275-3.698,2.197l0.258,0.273
		c0.299,0.005,0.597-0.008,0.893-0.039C8.017,16.343,8.465,16.265,8.906,16.153"/>
	<path fill="#331214" d="M3.684,11.147c-0.115-0.85-0.002-2.403,1.186-2.372c0.512,0.014,0.902,0.34,1.085,0.796
		c0.13,0.325,0.39,1.464,0.058,1.515c-0.285,0.043-0.354-0.201-0.412-0.461c-0.086-0.367-0.188-1.122-0.688-1.162
		c-0.529-0.04-0.614,0.703-0.686,1.083c-0.029,0.168-0.006,0.461-0.09,0.605c-0.113,0.195-0.377,0.295-0.451-0.005 M8.768,11.145
		c-0.061-1.044,0.203-2.58,1.586-2.513c0.586,0.03,1.01,0.45,1.149,0.988c0.101,0.372,0.298,1.638-0.075,1.638
		c-0.35,0-0.416-0.753-0.47-1.129c-0.056-0.4-0.198-0.797-0.663-0.797c-0.564,0-0.843,0.584-0.951,1.066
		c-0.045,0.2-0.056,0.565-0.07,0.76c-0.018,0.187-0.485,0.412-0.506-0.01"/>
</g>
</svg>
