<?xml version="1.0" encoding="utf-8"?>
<!-- Generator: Adobe Illustrator 16.0.0, SVG Export Plug-In . SVG Version: 6.00 Build 0)  -->
<!DOCTYPE svg PUBLIC "-//W3C//DTD SVG 1.1//EN" "http://www.w3.org/Graphics/SVG/1.1/DTD/svg11.dtd">
<svg version="1.1" id="Calque_1" xmlns="http://www.w3.org/2000/svg" xmlns:xlink="http://www.w3.org/1999/xlink" x="0px" y="0px"
	 width="14.622px" height="18.642px" viewBox="0 0 14.622 18.642" enable-background="new 0 0 14.622 18.642" xml:space="preserve">
<g>
	
		<linearGradient id="SVGID_1_" gradientUnits="userSpaceOnUse" x1="3.2324" y1="11.7305" x2="3.2324" y2="10.4191" gradientTransform="matrix(14.1216 0 0 -18.1417 -38.3364 211.4727)">
		<stop  offset="0" style="stop-color:#FDEC5F"/>
		<stop  offset="0.6143" style="stop-color:#F89B2E"/>
		<stop  offset="1" style="stop-color:#F26422"/>
	</linearGradient>
	<path fill="url(#SVGID_1_)" stroke="#F07122" stroke-width="0.5" stroke-linecap="round" stroke-linejoin="round" d="M4.51,3.731
		c0,0-3.703,2.32-4.224,7.27c-0.401,3.83,2.548,6.968,6.027,7.334c3.95,0.415,7.544-1.439,8.01-5.86
		c0.5-4.77-3.022-7.554-5.752-9.955C7.24,1.347,8.215,0.25,8.215,0.25C6.713,0.36,5.733,1.82,5.869,3.278
		c0.112,1.204,0.072,2.152-0.76,2.125c-0.86-0.03-0.845-1.042-0.601-1.672H4.51z"/>
	<path fill="#341315" d="M8.777,8.746c0,0,0.022,0.056,0.047,0.154c0.028,0.1,0.06,0.225,0.11,0.356
		c0.058,0.13,0.117,0.262,0.225,0.372c0.107,0.105,0.248,0.21,0.424,0.284c0.176,0.072,0.375,0.114,0.569,0.154
		c0.19,0.043,0.383,0.055,0.545,0.072c0.164,0.022,0.304,0.022,0.399,0.03l0.156,0.017l0.029,0.358c0,0-0.227,0.056-0.582,0.1
		c-0.18,0.01-0.388,0.023-0.62,0.007c-0.249-0.011-0.495-0.061-0.729-0.146c-0.128-0.047-0.25-0.107-0.365-0.18
		c-0.332-0.206-0.553-0.549-0.602-0.936c-0.054-0.41,0.049-0.615,0.035-0.62l0.359-0.02L8.777,8.746z M6.247,8.797
		c0,0,0,0.217-0.119,0.546C6.065,9.534,5.973,9.713,5.853,9.875c-0.132,0.193-0.295,0.362-0.483,0.5
		c-0.374,0.29-0.81,0.443-1.136,0.516c-0.326,0.074-0.546,0.076-0.546,0.076l-0.08-0.35l0.128-0.06
		c0.084-0.034,0.2-0.087,0.335-0.153c0.27-0.126,0.62-0.304,0.904-0.535c0.141-0.12,0.273-0.243,0.384-0.374
		c0.103-0.122,0.198-0.25,0.285-0.383l0.266-0.43L6.25,8.799L6.247,8.797z M8.631,17.321c-0.424-0.945-0.883-1.455-1.322-1.475
		H7.283c-0.58,0-1.052,0.816-1.106,0.91l-0.469-0.264c0.114-0.204,0.756-1.219,1.625-1.184c0.666,0.029,1.268,0.631,1.791,1.791
		l-0.49,0.221H8.631z M4.874,13.397c-0.998,0-1.893-0.334-2.416-0.582l0.297-0.832c0.51,0.24,1.832,0.763,3.092,0.377
		c0.108-0.033,0.324-0.369,0.361-0.508l0.209,0.073l0.566-0.007c0.004,0.336-0.428,1.156-0.936,1.311
		c-0.395,0.121-0.791,0.17-1.174,0.17V13.397z M9.592,13.188c-0.432,0-0.848-0.072-1.209-0.24c-0.48-0.221-0.688-0.768-0.681-1.084
		l0.782,0.02c0.03,0.1,0.099,0.184,0.189,0.234c0.738,0.34,2.082,0.154,3.129-0.43l0.343,0.807c-0.697,0.39-1.66,0.695-2.554,0.695
		V13.188z"/>
	<path fill="#F16260" d="M9.413,15.067c-0.1-0.001-0.18-0.082-0.18-0.182c0-0.066,0.038-0.128,0.098-0.158l1.79-0.925
		c0.089-0.046,0.198-0.011,0.243,0.079c0.046,0.088,0.011,0.197-0.078,0.243l-1.79,0.923C9.469,15.062,9.441,15.067,9.413,15.067
		L9.413,15.067z M10.404,15.213c-0.073,0.001-0.139-0.043-0.167-0.11c-0.037-0.092,0.008-0.197,0.1-0.234l2.771-1.127
		c0.091-0.039,0.197,0.002,0.236,0.094c0.04,0.091-0.003,0.197-0.094,0.236c-0.003,0.002-0.006,0.002-0.009,0.004l-2.77,1.125
		C10.45,15.209,10.426,15.214,10.404,15.213L10.404,15.213z M11.61,15.405c-0.1,0.002-0.182-0.077-0.184-0.176
		c-0.002-0.086,0.055-0.16,0.138-0.18l1.51-0.395c0.096-0.026,0.195,0.029,0.222,0.125c0.027,0.096-0.028,0.195-0.124,0.223
		c-0.002,0-0.004,0-0.005,0.001l-1.511,0.394C11.641,15.402,11.625,15.404,11.61,15.405L11.61,15.405z M1.32,15.032
		c-0.079,0.002-0.148-0.049-0.173-0.123c-0.031-0.095,0.021-0.196,0.115-0.227c0.001,0,0.002,0,0.002-0.001l1.52-0.497
		c0.094-0.029,0.195,0.021,0.227,0.115c0.03,0.095-0.021,0.196-0.115,0.227l-1.52,0.496C1.358,15.029,1.338,15.032,1.32,15.032z
		 M1.971,15.45c-0.073,0-0.14-0.045-0.168-0.113c-0.036-0.092,0.008-0.197,0.101-0.234l2.771-1.125
		c0.092-0.037,0.196,0.008,0.233,0.1s-0.007,0.195-0.098,0.234L2.04,15.437c-0.021,0.009-0.043,0.014-0.066,0.014H1.971z
		 M3.831,15.358c-0.1,0.001-0.18-0.079-0.181-0.179c-0.001-0.073,0.044-0.14,0.112-0.168l1.44-0.598
		c0.093-0.036,0.197,0.008,0.235,0.1c0.037,0.092-0.006,0.196-0.098,0.234l-1.439,0.597C3.878,15.354,3.855,15.358,3.831,15.358
		L3.831,15.358z"/>
</g>
</svg>
