<?xml version="1.0" encoding="utf-8"?>
<!-- Generator: Adobe Illustrator 16.0.0, SVG Export Plug-In . SVG Version: 6.00 Build 0)  -->
<!DOCTYPE svg PUBLIC "-//W3C//DTD SVG 1.1//EN" "http://www.w3.org/Graphics/SVG/1.1/DTD/svg11.dtd">
<svg version="1.1" id="Calque_1" xmlns="http://www.w3.org/2000/svg" xmlns:xlink="http://www.w3.org/1999/xlink" x="0px" y="0px"
	 width="17.977px" height="18.14px" viewBox="0 0 17.977 18.14" enable-background="new 0 0 17.977 18.14" xml:space="preserve">
<g>
	
		<linearGradient id="SVGID_1_" gradientUnits="userSpaceOnUse" x1="4.7036" y1="13.3955" x2="4.7036" y2="12.0835" gradientTransform="matrix(13.7273 0 0 -17.6392 -55.5176 234.9849)">
		<stop  offset="0" style="stop-color:#FDEC5F"/>
		<stop  offset="0.6143" style="stop-color:#F89B2E"/>
		<stop  offset="1" style="stop-color:#F26422"/>
	</linearGradient>
	<path fill="url(#SVGID_1_)" stroke="#F07122" stroke-width="0.5" stroke-linecap="round" stroke-linejoin="round" d="M6.328,3.636
		c0,0-3.6,2.257-4.105,7.068c-0.391,3.724,2.477,6.774,5.859,7.13c3.841,0.404,7.334-1.4,7.785-5.695
		c0.487-4.641-2.939-7.346-5.59-9.681C8.98,1.318,9.928,0.25,9.928,0.25C8.469,0.358,7.519,1.776,7.648,3.196
		c0.11,1.17,0.07,2.092-0.738,2.065C6.072,5.233,6.091,4.248,6.328,3.636L6.328,3.636z"/>
	<g transform="translate(-1 1.2) translate(.933 7.35)">
		<g transform="translate(9.256 1.296)">
			<ellipse fill="#A0DDF6" cx="2.622" cy="0.946" rx="2.143" ry="2.1"/>
			<path fill="#341315" d="M5.067,0.961L5.061,1.108C5.017,1.859,4.622,2.545,3.994,2.959c-0.3,0.195-0.677,0.344-1.092,0.396
				C2.793,3.362,2.705,3.371,2.574,3.368c-0.095-0.006-0.177-0.005-0.3-0.026C1.584,3.24,0.969,2.854,0.579,2.276
				C0.316,1.883,0.176,1.42,0.176,0.946c0.008-0.472,0.153-0.93,0.418-1.32c0.263-0.375,0.625-0.67,1.047-0.85
				c0.391-0.163,0.817-0.226,1.24-0.182c0.43,0.046,0.782,0.188,1.084,0.38c0.482,0.311,0.839,0.785,1.004,1.335
				c0.06,0.196,0.08,0.36,0.086,0.468l0.011,0.168L5.067,0.961L5.067,0.961z M4.461,0.946c0,0,0-0.044-0.006-0.127
				c-0.032-0.563-0.329-1.079-0.8-1.39c-0.243-0.159-0.52-0.261-0.808-0.3C2.153-0.954,1.471-0.639,1.082-0.057
				C0.886,0.24,0.783,0.59,0.785,0.946C0.79,1.302,0.903,1.649,1.1,1.936c0.293,0.415,0.745,0.692,1.248,0.763
				c0.063,0.014,0.17,0.014,0.261,0.018l0.218-0.01C3.686,2.621,4.366,1.939,4.449,1.08l0.008-0.147l0.002,0.015L4.461,0.946z"/>
		</g>
		<path fill="#341315" d="M10.723-1.282c-0.008-0.005,0.053,0.027,0.092,0.03c0.027,0.002,0.141,0.02,0.248,0.04
			c0.234,0.043,0.547,0.097,0.859,0.152c0.635,0.11,1.256,0.258,1.256,0.258c0.145,0.033,0.236,0.178,0.203,0.323
			c0,0.001,0,0.002-0.001,0.003c-0.028,0.109-0.12,0.19-0.233,0.205c0,0-0.176,0.022-0.433,0.02c-0.312-0.009-0.623-0.042-0.93-0.1
			c-0.309-0.057-0.612-0.14-0.906-0.248c-0.108-0.043-0.214-0.093-0.315-0.15c-0.094-0.05-0.1-0.068-0.109-0.07
			c-0.127-0.07-0.174-0.23-0.104-0.357c0.002-0.001,0.002-0.003,0.004-0.005C10.428-1.311,10.594-1.355,10.723-1.282L10.723-1.282z
			 M7.969-0.546c0,0-0.154,0.1-0.431,0.205c-0.271,0.108-0.647,0.19-1.021,0.228C6.181-0.075,5.84-0.064,5.502-0.078
			c-0.276-0.016-0.46-0.035-0.46-0.035c-0.148-0.016-0.255-0.148-0.24-0.296C4.817-0.532,4.913-0.63,5.036-0.646l0.443-0.058
			c0.26-0.03,0.607-0.07,0.955-0.107c0.345-0.042,0.674-0.096,0.92-0.143l0.418-0.088C7.921-1.073,8.065-0.982,8.1-0.835
			c0.022,0.108-0.023,0.22-0.117,0.28L7.971-0.547L7.969-0.546z M5.654,1.178c0,0,0.026,0.33,0.086,0.79
			c0.028,0.23,0.079,0.5,0.157,0.746C5.938,2.83,5.993,2.956,6.046,3.003c0.067,0.051,0.014,0.034,0.12,0.027
			c0.11-0.02,0.072-0.023,0.136-0.047c0.047-0.02,0.09-0.057,0.135-0.09C6.522,2.82,6.596,2.718,6.663,2.61
			c0.13-0.221,0.22-0.463,0.27-0.678c0.11-0.433,0.117-0.743,0.117-0.743c0.006-0.148,0.129-0.264,0.277-0.26
			c0.135,0.003,0.248,0.105,0.263,0.24l0.003,0.02c0,0,0.037,0.346-0.048,0.866C7.495,2.316,7.42,2.621,7.248,2.934
			c-0.09,0.154-0.198,0.313-0.354,0.453c-0.08,0.072-0.17,0.136-0.266,0.188c-0.102,0.056-0.212,0.096-0.326,0.12l-0.06,0.013
			L6.227,3.71C6.162,3.72,6.192,3.712,6.171,3.716H6.115c-0.077-0.006-0.152,0-0.226-0.033C5.753,3.639,5.631,3.559,5.537,3.451
			c-0.168-0.19-0.222-0.37-0.28-0.538C5.155,2.578,5.135,2.28,5.115,2.027C5.09,1.519,5.11,1.201,5.11,1.201l0.003-0.018
			c0.011-0.148,0.14-0.261,0.288-0.25c0,0,0.001,0,0.002,0C5.537,0.94,5.645,1.045,5.656,1.179L5.654,1.178z M16.309,4.398
			c0.617,0.29,1.196,2.282-0.975,2.228c-0.773-0.021-2.038-1.768-3.122-1.955c-1.063-0.184-2.743,0.373-3.12,0.658
			C9.079,5.335,9.069,5.337,9.055,5.343C9.042,5.337,9.032,5.335,9.018,5.329C8.641,5.044,6.963,4.487,5.899,4.671
			C4.813,4.858,3.548,6.605,2.776,6.624c-2.17,0.055-1.592-1.936-0.973-2.228C0.489,4.44,0.067,5.661,0.067,6.68
			c0,1.565,2.31,2.104,4.914,2.104c2.189,0,3.609-0.989,4.074-1.444C9.52,7.794,10.94,8.784,13.13,8.784
			c2.606,0,4.913-0.54,4.913-2.105c0-1.021-0.42-2.24-1.736-2.282L16.309,4.398z"/>
		<path fill="#FFFFFF" d="M12.959,0.831l-2.377,2.65l0.382,0.258l2.338-2.576L12.959,0.831L12.959,0.831z M13.36,1.233l-2.279,2.59
			l0.24,0.088l2.22-2.36L13.36,1.233z"/>
		<ellipse fill="#341315" cx="14.522" cy="2.625" rx="0.466" ry="0.631"/>
		<ellipse fill="#341315" cx="14.99" cy="3.998" rx="0.438" ry="0.429"/>
		<ellipse fill="#341315" cx="15.25" cy="5.063" rx="0.435" ry="0.426"/>
		<ellipse fill="#341315" cx="15.422" cy="6.191" rx="0.436" ry="0.426"/>
	</g>
</g>
</svg>
