<?xml version="1.0" encoding="utf-8"?>
<!-- Generator: Adobe Illustrator 16.0.0, SVG Export Plug-In . SVG Version: 6.00 Build 0)  -->
<!DOCTYPE svg PUBLIC "-//W3C//DTD SVG 1.1//EN" "http://www.w3.org/Graphics/SVG/1.1/DTD/svg11.dtd">
<svg version="1.1" id="Calque_1" xmlns="http://www.w3.org/2000/svg" xmlns:xlink="http://www.w3.org/1999/xlink" x="0px" y="0px"
	 width="14.622px" height="18.642px" viewBox="0 0 14.622 18.642" enable-background="new 0 0 14.622 18.642" xml:space="preserve">
<g>
	
		<linearGradient id="SVGID_1_" gradientUnits="userSpaceOnUse" x1="3.5757" y1="17.4453" x2="3.5757" y2="16.1333" gradientTransform="matrix(14.1206 0 0 -18.1434 -43.1777 315.1733)">
		<stop  offset="0" style="stop-color:#FBEA5F"/>
		<stop  offset="1" style="stop-color:#F16624"/>
	</linearGradient>
	<path fill="url(#SVGID_1_)" d="M5.869,3.278c0.11,1.203,0.072,2.152-0.76,2.125c-0.861-0.03-0.844-1.043-0.6-1.672
		c0,0-3.702,2.32-4.223,7.27c-0.401,3.83,2.547,6.968,6.026,7.334c3.95,0.414,7.545-1.441,8.011-5.859
		c0.5-4.773-3.023-7.556-5.752-9.957C7.24,1.346,8.215,0.248,8.215,0.248C6.712,0.358,5.733,1.818,5.869,3.278z"/>
	<path fill="none" stroke="#EF7125" stroke-width="0.5" stroke-linecap="round" stroke-linejoin="round" d="M4.509,3.731
		c0,0-3.702,2.32-4.223,7.27c-0.401,3.83,2.547,6.968,6.026,7.334c3.95,0.414,7.544-1.441,8.011-5.859
		c0.5-4.773-3.023-7.556-5.752-9.957C7.24,1.346,8.215,0.25,8.215,0.25C6.712,0.36,5.732,1.82,5.869,3.278
		C5.98,4.481,5.94,5.43,5.108,5.402C4.248,5.372,4.264,4.36,4.509,3.731L4.509,3.731z"/>
	<path fill="#331517" d="M8.892,16.399c0.037-0.011,0.07-0.023,0.105-0.035c1.15-1.034,1.58-3.156,1.5-3.33
		c-0.088-0.189-1.59-1.059-3.707-0.914c-0.354,0.023-0.66,0.05-0.922,0.076c-1.314,0.139-1.572,0.32-1.537,0.518
		c0.422,2.375,1.449,3.354,1.996,3.934c0.402,0.029,0.816,0.027,1.235-0.011c0.47-0.055,0.91-0.137,1.33-0.239"/>
	<path fill="#F1F2F3" d="M4.833,12.946c0.029,0.172,0.063,0.336,0.1,0.492c1.79-0.187,2.7-0.4,4.53-0.007
		c0.126-0.043,0.272-0.239,0.395-0.448c-0.52-0.281-1.563-0.652-2.88-0.564C5.128,12.543,4.796,12.733,4.833,12.946"/>
	<path fill="#99DAF0" d="M5.531,10.735c0.01,0.678-1.551,1.211-1.677,1.803c-0.126,0.594,0.36,2.088-0.306,2.716
		c-0.664,0.628-1.258,0.916-1.258,0.916s-0.924-1.054-1.436-2.224c0,0,0.874-0.783,0.905-1.842c0.026-0.91,1.662-0.74,2.03-1.371
		c0.369-0.627,0.018-1.54,1.039-1.727c1.024-0.186,0.701,1.73,0.701,1.73 M8.855,10.851c-0.012,0.678,1.83,1.346,1.956,1.94
		c0.125,0.593-0.36,2.088,0.306,2.716c0.664,0.628,1.26,0.916,1.26,0.916s0.923-1.055,1.436-2.225c0,0-0.875-0.78-0.906-1.84
		c-0.027-0.91-1.662-0.74-2.029-1.371c-0.37-0.627,0.07-1.803-0.954-1.991C8.898,8.806,8.855,10.851,8.855,10.851"/>
	<path fill="#F06666" d="M8.66,15.899c0.638-0.564,1.014-1.525,1.174-2.162c-2.18,0.25-3.139,1.258-3.596,2.166
		c0.094,0.1,0.178,0.187,0.25,0.267c0.291,0.005,0.584-0.007,0.87-0.037c0.438-0.046,0.873-0.124,1.3-0.233"/>
	<path fill="#321517" d="M3.585,10.971c-0.114-0.835-0.004-2.365,1.15-2.335C5.233,8.649,5.613,8.97,5.791,9.42
		c0.127,0.32,0.379,1.44,0.057,1.489c-0.277,0.043-0.346-0.196-0.402-0.451c-0.082-0.362-0.182-1.105-0.668-1.145
		c-0.514-0.04-0.597,0.693-0.666,1.067c-0.029,0.165-0.006,0.454-0.087,0.596c-0.112,0.193-0.37,0.29-0.44-0.005 M8.525,10.969
		c-0.06-1.03,0.198-2.54,1.542-2.475c0.57,0.03,0.983,0.444,1.12,0.973c0.094,0.367,0.288,1.613-0.074,1.613
		c-0.341,0-0.406-0.742-0.457-1.11c-0.054-0.397-0.191-0.786-0.644-0.786c-0.55-0.002-0.82,0.575-0.925,1.05
		c-0.043,0.195-0.053,0.556-0.07,0.746c-0.014,0.186-0.47,0.407-0.49-0.01"/>
</g>
</svg>
