<?xml version="1.0" encoding="utf-8"?>
<!-- Generator: Adobe Illustrator 16.0.0, SVG Export Plug-In . SVG Version: 6.00 Build 0)  -->
<!DOCTYPE svg PUBLIC "-//W3C//DTD SVG 1.1//EN" "http://www.w3.org/Graphics/SVG/1.1/DTD/svg11.dtd">
<svg version="1.1" id="Calque_1" xmlns="http://www.w3.org/2000/svg" xmlns:xlink="http://www.w3.org/1999/xlink" x="0px" y="0px"
	 width="18.154px" height="18.844px" viewBox="0 0 18.154 18.844" enable-background="new 0 0 18.154 18.844" xml:space="preserve">
<g>
	<g transform="translate(.5 .5) translate(3.62 .298)">
		<g>
			
				<linearGradient id="E_3_" gradientUnits="userSpaceOnUse" x1="0.9703" y1="18.2323" x2="0.9703" y2="16.9202" gradientTransform="matrix(14.0322 0 0 -18.3304 -7.0468 332.0438)">
				<stop  offset="0" style="stop-color:#FDEC5F"/>
				<stop  offset="1" style="stop-color:#F26422"/>
			</linearGradient>
			<path id="E_1_" fill="url(#E_3_)" d="M5.137,2.516c0.11,1.217,0.069,2.175-0.756,2.147C3.525,4.633,3.54,3.611,3.784,2.975
				c0,0-3.678,2.344-4.194,7.344c-0.4,3.869,2.53,7.041,5.987,7.41c3.928,0.42,7.498-1.455,7.961-5.92
				c0.496-4.821-3.004-7.634-5.715-10.061C6.497,0.566,7.467-0.544,7.467-0.544C5.974-0.434,5.001,1.043,5.137,2.516z"/>
		</g>
		<defs>
			<filter id="Adobe_OpacityMaskFilter" filterUnits="userSpaceOnUse" x="-0.81" y="-0.544" width="14.845" height="18.357">
				<feColorMatrix  type="matrix" values="1 0 0 0 0  0 1 0 0 0  0 0 1 0 0  0 0 0 1 0"/>
			</filter>
		</defs>
		<mask maskUnits="userSpaceOnUse" x="-0.81" y="-0.544" width="14.845" height="18.357" id="G_1_">
			<g filter="url(#Adobe_OpacityMaskFilter)">
				<path id="E_2_" fill="#FFFFFF" d="M5.137,2.516c0.11,1.217,0.069,2.175-0.756,2.147C3.525,4.633,3.54,3.611,3.784,2.975
					c0,0-3.678,2.344-4.194,7.344c-0.4,3.869,2.53,7.041,5.987,7.41c3.928,0.42,7.498-1.455,7.961-5.92
					c0.496-4.821-3.004-7.634-5.715-10.061C6.497,0.566,7.467-0.544,7.467-0.544C5.974-0.434,5.001,1.043,5.137,2.516z"/>
			</g>
		</mask>
		<g transform="translate(-.293)" mask="url(#G_1_)">
			<path fill="#FEE55B" d="M-0.517-0.544h14.845v0.1H-0.516L-0.517-0.544z"/>
			<path fill="#FDE35B" d="M-0.517-0.531h14.845v0.18H-0.516L-0.517-0.531z"/>
			<path fill="#FDE35B" d="M-0.517-0.351h14.845v0.18H-0.516L-0.517-0.351z"/>
			<path fill="#FCE25A" d="M-0.517-0.171h14.845v0.18H-0.516L-0.517-0.171z"/>
			<path fill="#FCE159" d="M-0.517,0.009h14.845v0.18H-0.516L-0.517,0.009z"/>
			<path fill="#FDE058" d="M-0.517,0.189h14.845v0.18H-0.516L-0.517,0.189z"/>
			<path fill="#FDDF57" d="M-0.517,0.369h14.845v0.18H-0.516L-0.517,0.369z"/>
			<path fill="#FCDE56" d="M-0.517,0.549h14.845v0.18H-0.516L-0.517,0.549z"/>
			<path fill="#FCDD56" d="M-0.517,0.729h14.845v0.18H-0.516L-0.517,0.729z"/>
			<path fill="#FCDB56" d="M-0.517,0.909h14.845v0.18H-0.516L-0.517,0.909z"/>
			<path fill="#FDDB55" d="M-0.517,1.089h14.845v0.18H-0.516L-0.517,1.089z"/>
			<path fill="#FDDA54" d="M-0.517,1.269h14.845v0.18H-0.516L-0.517,1.269z"/>
			<path fill="#FDD953" d="M-0.517,1.449h14.845v0.18H-0.516L-0.517,1.449z"/>
			<path fill="#FED853" d="M-0.517,1.629h14.845v0.18H-0.516L-0.517,1.629z"/>
			<path fill="#FED752" d="M-0.517,1.809h14.845v0.18H-0.516L-0.517,1.809z"/>
			<path fill="#FDD651" d="M-0.517,1.989h14.845v0.18H-0.516L-0.517,1.989z"/>
			<path fill="#FDD552" d="M-0.517,2.169h14.845v0.18H-0.516L-0.517,2.169z"/>
			<path fill="#FDD451" d="M-0.517,2.349h14.845v0.18H-0.516L-0.517,2.349z"/>
			<path fill="#FDD34F" d="M-0.517,2.529h14.845v0.18H-0.516L-0.517,2.529z"/>
			<path fill="#FDD24F" d="M-0.517,2.709h14.845v0.18H-0.516L-0.517,2.709z"/>
			<path fill="#FED24E" d="M-0.517,2.889h14.845v0.18H-0.516L-0.517,2.889z"/>
			<path fill="#FED04D" d="M-0.517,3.069h14.845v0.18H-0.516L-0.517,3.069z"/>
			<path fill="#FED04E" d="M-0.517,3.249h14.845v0.18H-0.516L-0.517,3.249z"/>
			<path fill="#FCCF4D" d="M-0.517,3.43h14.845v0.18H-0.516L-0.517,3.43z"/>
			<path fill="#FCCE4C" d="M-0.517,3.61h14.845v0.18H-0.516L-0.517,3.61z"/>
			<path fill="#FCCC4C" d="M-0.517,3.79h14.845v0.18H-0.516L-0.517,3.79z"/>
			<path fill="#FCCC4B" d="M-0.517,3.97h14.845v0.18H-0.516L-0.517,3.97z"/>
			<path fill="#FCCA4B" d="M-0.517,4.15h14.845v0.18H-0.516L-0.517,4.15z"/>
			<path fill="#FDC949" d="M-0.517,4.33h14.845v0.18H-0.516L-0.517,4.33z"/>
			<path fill="#FDC848" d="M-0.517,4.51h14.845v0.18H-0.516L-0.517,4.51z"/>
			<path fill="#FCC848" d="M-0.517,4.69h14.845v0.18H-0.516L-0.517,4.69z"/>
			<path fill="#FCC647" d="M-0.517,4.87h14.845v0.18H-0.516L-0.517,4.87z"/>
			<path fill="#FCC647" d="M-0.517,5.05h14.845v0.18H-0.516L-0.517,5.05z"/>
			<path fill="#FCC346" d="M-0.517,5.23h14.845v0.18H-0.516L-0.517,5.23z"/>
			<path fill="#FBC245" d="M-0.517,5.41h14.845v0.18H-0.516L-0.517,5.41z"/>
			<path fill="#FBC144" d="M-0.517,5.59h14.845v0.18H-0.516L-0.517,5.59z"/>
			<path fill="#FBC044" d="M-0.517,5.77h14.845v0.18H-0.516L-0.517,5.77z"/>
			<path fill="#FBBF43" d="M-0.517,5.95h14.845v0.18H-0.516L-0.517,5.95z"/>
			<path fill="#FBBD42" d="M-0.517,6.13h14.845v0.18H-0.516L-0.517,6.13z"/>
			<path fill="#FBBD42" d="M-0.517,6.31h14.845v0.18H-0.516L-0.517,6.31z"/>
			<path fill="#FBBB41" d="M-0.517,6.49h14.845v0.18H-0.516L-0.517,6.49z"/>
			<path fill="#FABA40" d="M-0.517,6.67h14.845v0.18H-0.516L-0.517,6.67z"/>
			<path fill="#FCBA3F" d="M-0.517,6.85h14.845v0.18H-0.516L-0.517,6.85z"/>
			<path fill="#FAB93E" d="M-0.517,7.03h14.845v0.18H-0.516L-0.517,7.03z"/>
			<path fill="#FAB83E" d="M-0.517,7.21h14.845v0.18H-0.516L-0.517,7.21z"/>
			<path fill="#FBB73D" d="M-0.517,7.39h14.845v0.18H-0.516L-0.517,7.39z"/>
			<path fill="#FBB63C" d="M-0.517,7.57h14.845v0.18H-0.516L-0.517,7.57z"/>
			<path fill="#FBB53C" d="M-0.517,7.75h14.845v0.18H-0.516L-0.517,7.75z"/>
			<path fill="#FBB43B" d="M-0.517,7.93h14.845v0.18H-0.516L-0.517,7.93z"/>
			<path fill="#FCB43B" d="M-0.517,8.11h14.845v0.18H-0.516L-0.517,8.11z"/>
			<path fill="#FCB23B" d="M-0.517,8.29h14.845v0.18H-0.516L-0.517,8.29z"/>
			<path fill="#FCB23A" d="M-0.517,8.47h14.845v0.18H-0.516L-0.517,8.47z"/>
			<path fill="#FCB039" d="M-0.517,8.65h14.845v0.18H-0.516L-0.517,8.65z"/>
			<path fill="#FBAF3A" d="M-0.517,8.831h14.845v0.18H-0.516L-0.517,8.831z"/>
			<path fill="#FBAE38" d="M-0.517,9.01h14.845v0.18H-0.516L-0.517,9.01z"/>
			<path fill="#FBAD39" d="M-0.517,9.191h14.845v0.18H-0.516L-0.517,9.191z"/>
			<path fill="#FBAC38" d="M-0.517,9.371h14.845v0.18H-0.516L-0.517,9.371z"/>
			<path fill="#FBAB36" d="M-0.517,9.551h14.845v0.18H-0.516L-0.517,9.551z"/>
			<path fill="#FBAA37" d="M-0.517,9.731h14.845v0.18H-0.516L-0.517,9.731z"/>
			<path fill="#FBA936" d="M-0.517,9.911h14.845v0.18H-0.516L-0.517,9.911z"/>
			<path fill="#FAA935" d="M-0.517,10.091h14.845v0.18H-0.516L-0.517,10.091z"/>
			<path fill="#FAA735" d="M-0.517,10.271h14.845v0.18H-0.516L-0.517,10.271z"/>
			<path fill="#FAA734" d="M-0.517,10.451h14.845v0.18H-0.516L-0.517,10.451z"/>
			<path fill="#FAA633" d="M-0.517,10.631h14.845v0.181H-0.516L-0.517,10.631z"/>
			<path fill="#FAA433" d="M-0.517,10.811h14.845v0.18H-0.516L-0.517,10.811z"/>
			<path fill="#FAA433" d="M-0.517,10.991h14.845v0.18H-0.516L-0.517,10.991z"/>
			<path fill="#FAA332" d="M-0.517,11.171h14.845v0.18H-0.516L-0.517,11.171z"/>
			<path fill="#F9A132" d="M-0.517,11.35h14.845v0.18H-0.516L-0.517,11.35z"/>
			<path fill="#F9A131" d="M-0.517,11.53h14.845v0.181H-0.516L-0.517,11.53z"/>
			<path fill="#F99F31" d="M-0.517,11.711h14.845v0.181H-0.516L-0.517,11.711z"/>
			<path fill="#F99F30" d="M-0.517,11.891h14.845v0.18H-0.516L-0.517,11.891z"/>
			<path fill="#F99E2F" d="M-0.517,12.071h14.845v0.18H-0.516L-0.517,12.071z"/>
			<path fill="#F99C2F" d="M-0.517,12.251h14.845v0.18H-0.516L-0.517,12.251z"/>
			<path fill="#F89B2E" d="M-0.517,12.431h14.845v0.18H-0.516L-0.517,12.431z M-0.517,12.61h14.845v0.164H-0.516L-0.517,12.61z"/>
			<path fill="#F89A2E" d="M-0.517,12.774h14.845v0.162H-0.516L-0.517,12.774z"/>
			<path fill="#F89A2E" d="M-0.517,12.936h14.845v0.162H-0.516L-0.517,12.936z"/>
			<path fill="#F8982E" d="M-0.517,13.098h14.845v0.163H-0.516L-0.517,13.098z"/>
			<path fill="#F8972D" d="M-0.517,13.262h14.845v0.164H-0.516L-0.517,13.262z"/>
			<path fill="#F8972C" d="M-0.517,13.424h14.845v0.163H-0.516L-0.517,13.424z"/>
			<path fill="#F8952A" d="M-0.517,13.586h14.845v0.164H-0.516L-0.517,13.586z"/>
			<path fill="#F8952A" d="M-0.517,13.749h14.845v0.163H-0.516L-0.517,13.749z"/>
			<path fill="#F79329" d="M-0.517,13.912h14.845v0.163H-0.516L-0.517,13.912z"/>
			<path fill="#F79228" d="M-0.517,14.076h14.845v0.161H-0.516L-0.517,14.076z"/>
			<path fill="#F79226" d="M-0.517,14.235h14.845v0.164H-0.516L-0.517,14.235z"/>
			<path fill="#F79026" d="M-0.517,14.399h14.845v0.164H-0.516L-0.517,14.399z"/>
			<path fill="#F79026" d="M-0.517,14.561h14.845v0.164H-0.516L-0.517,14.561z"/>
			<path fill="#F78E25" d="M-0.517,14.725h14.845v0.162H-0.516L-0.517,14.725z"/>
			<path fill="#F78E25" d="M-0.517,14.886h14.845v0.164H-0.516L-0.517,14.886z"/>
			<path fill="#F78C24" d="M-0.517,15.05h14.845v0.163H-0.516L-0.517,15.05z"/>
			<path fill="#F68B24" d="M-0.517,15.213h14.845v0.163H-0.516L-0.517,15.213z"/>
			<path fill="#F68A24" d="M-0.517,15.376h14.845v0.162H-0.516L-0.517,15.376z"/>
			<path fill="#F68923" d="M-0.517,15.538h14.845v0.163H-0.516L-0.517,15.538z"/>
			<path fill="#F68822" d="M-0.517,15.7h14.845v0.162H-0.516L-0.517,15.7z"/>
			<path fill="#F68721" d="M-0.517,15.862h14.845v0.164H-0.516L-0.517,15.862z"/>
			<path fill="#F68620" d="M-0.517,16.026h14.845v0.162H-0.516L-0.517,16.026z"/>
			<path fill="#F6851F" d="M-0.517,16.188h14.845v0.162H-0.516L-0.517,16.188z"/>
			<path fill="#F5841F" d="M-0.517,16.35h14.845v0.164H-0.516L-0.517,16.35z"/>
			<path fill="#F5831F" d="M-0.517,16.513h14.845v0.163H-0.516L-0.517,16.513z"/>
			<path fill="#F58220" d="M-0.517,16.676h14.845v0.163H-0.516L-0.517,16.676z"/>
			<path fill="#F58120" d="M-0.517,16.838h14.845v0.163H-0.516L-0.517,16.838z"/>
			<path fill="#F58020" d="M-0.517,17.001h14.845v0.163H-0.516L-0.517,17.001z"/>
			<path fill="#F57F20" d="M-0.517,17.164h14.845v0.163H-0.516L-0.517,17.164z"/>
			<path fill="#F47D20" d="M-0.517,17.326h14.845v0.163H-0.516L-0.517,17.326z"/>
			<path fill="#F47C20" d="M-0.517,17.489h14.845v0.162H-0.516L-0.517,17.489z"/>
			<path fill="#F47B20" d="M-0.517,17.651h14.845v0.162H-0.516L-0.517,17.651z"/>
		</g>
	</g>
	<path fill="#F07122" d="M7.517,4.386c-1.013,0.852-3.18,3.077-3.56,6.761c-0.186,1.744,0.352,3.488,1.488,4.826
		c1.09,1.29,2.647,2.13,4.277,2.305c3.24,0.353,7.194-0.939,7.686-5.695c0.459-4.432-2.541-7.098-5.189-9.45l-0.439-0.393
		c-0.487-0.435-0.75-0.915-0.78-1.427c-0.013-0.241,0.024-0.482,0.11-0.708c-0.393,0.132-0.739,0.373-1,0.693
		c-0.457,0.56-0.676,1.277-0.606,1.996c0.09,0.998,0.075,1.746-0.298,2.15c-0.178,0.19-0.409,0.28-0.715,0.272
		C8.057,5.7,7.824,5.478,7.705,5.295c-0.17-0.26-0.215-0.588-0.19-0.908 M10.809,18.844c-0.369,0-0.75-0.02-1.14-0.063
		c-1.755-0.187-3.433-1.09-4.603-2.479c-1.227-1.443-1.807-3.327-1.605-5.21C3.984,6.029,7.617,3.659,7.771,3.56
		c0.09-0.057,0.207-0.048,0.289,0.02c0.084,0.07,0.113,0.184,0.074,0.286c-0.141,0.366-0.191,0.88-0.016,1.15
		c0.08,0.126,0.203,0.187,0.387,0.193c0.21,0.007,0.29-0.062,0.337-0.115c0.263-0.283,0.226-1.087,0.164-1.755
		C8.928,2.485,9.187,1.634,9.73,0.971c0.453-0.56,1.117-0.91,1.836-0.968c0.11-0.018,0.197,0.048,0.242,0.14
		c0.045,0.092,0.031,0.203-0.037,0.28c-0.08,0.093-0.762,0.956,0.334,1.937l0.44,0.392c2.603,2.312,5.84,5.19,5.356,9.884
		C17.502,16.496,14.766,18.842,10.809,18.844"/>
	<path fill="#341315" d="M12.999,12.886c-0.166,0.12-1.685,0.703-2.445,0.753l-0.067,0.003c-0.474,0-1.131-0.168-1.568-0.36
		c-0.35-0.151-0.51-0.219-0.648-0.219c-0.275,0.016-0.531,0.145-0.71,0.355c-0.14,0.174-0.196,0.398-0.157,0.617
		c0.139,0.666,0.568,1.232,1.17,1.548c0.636,0.327,1.416,0.51,2.195,0.51c0.48,0,0.961-0.067,1.426-0.198
		c0.551-0.154,2.271-1.242,2.371-2.164c0.033-0.332-0.089-0.547-0.197-0.668c-0.18-0.201-0.483-0.32-0.827-0.32
		C13.43,12.742,13.16,12.757,12.999,12.886"/>
	<path fill="#FFFFFF" d="M8.887,15.183c-0.827-0.327-0.97-0.957-0.975-0.983c-0.026-0.127,0.018-0.258,0.115-0.344
		c0.144-0.123,0.324-0.194,0.514-0.203c0.111,0,0.255,0.045,0.539,0.142c0.402,0.133,1.007,0.336,1.457,0.336
		c0.777-0.036,2.207-0.544,2.336-0.622c0.113-0.07,0.334-0.074,0.4-0.074c0.125,0,0.442,0.018,0.637,0.184
		c0.113,0.092,0.166,0.236,0.141,0.379c-0.078,0.578-1.563,1.296-2.02,1.393c-0.405,0.087-0.822,0.13-1.24,0.13
		C10.113,15.519,9.438,15.398,8.887,15.183"/>
	<path fill="#331214" d="M7.031,11.514c-0.109-0.845-0.002-2.39,1.146-2.36c0.495,0.014,0.872,0.337,1.048,0.792
		c0.126,0.323,0.376,1.457,0.057,1.505c-0.276,0.043-0.342-0.199-0.4-0.457c-0.082-0.367-0.18-1.118-0.663-1.158
		c-0.51-0.04-0.592,0.7-0.66,1.078c-0.03,0.167-0.007,0.46-0.087,0.602c-0.109,0.195-0.365,0.294-0.438-0.004 M11.943,11.512
		c-0.061-1.04,0.195-2.567,1.531-2.5c0.567,0.028,0.977,0.448,1.113,0.983c0.094,0.368,0.287,1.626-0.074,1.626
		c-0.338,0-0.402-0.75-0.453-1.122c-0.055-0.4-0.191-0.793-0.64-0.793c-0.547,0-0.815,0.582-0.92,1.062
		c-0.044,0.197-0.054,0.563-0.07,0.754C12.417,11.71,11.964,11.932,11.943,11.512"/>
	<path fill="#FCB43B" d="M0.322,12.929c-0.115,0.604-0.162,4.21,0.261,4.61c0.424,0.396,3.686,0.246,4.077,0.098
		c0.357-0.135,0.64-1.006,0.064-1.391c0,0,0.44-0.387,0.391-0.93c-0.059-0.649-0.521-0.861-0.521-0.861s0.521-0.383,0.49-0.896
		c-0.03-0.448-0.324-0.896-0.853-0.896c-0.824,0-1.965,0.005-1.89,0c0,0,0-1.89-0.194-2.453c-0.195-0.564-1.305-0.697-1.5,0.066
		C0.453,11.04,0.519,11.902,0.322,12.929"/>
	<path fill="#F07122" d="M1.375,9.994h-0.03c-0.14,0.006-0.387,0.06-0.46,0.345c-0.096,0.374-0.127,0.79-0.16,1.233
		c-0.029,0.42-0.066,0.895-0.162,1.403c-0.052,0.273-0.093,1.28-0.07,2.29c0.047,1.825,0.25,2.08,0.259,2.09
		c0.319,0.272,3.403,0.209,3.823,0.049c0.076-0.03,0.203-0.203,0.229-0.44c0.019-0.156-0.005-0.372-0.214-0.513
		c-0.115-0.076-0.145-0.231-0.068-0.346c0.012-0.019,0.027-0.035,0.043-0.05c0.004-0.002,0.344-0.313,0.307-0.717
		c-0.043-0.493-0.373-0.657-0.377-0.658c-0.126-0.058-0.182-0.206-0.124-0.331c0.018-0.039,0.046-0.073,0.081-0.099
		c0.004,0,0.412-0.31,0.388-0.677c-0.021-0.319-0.22-0.664-0.606-0.664H3.279c-0.258,0.002-0.492,0.002-0.662,0.002H2.414
		c-0.018,0-0.035,0-0.053-0.002H2.357c-0.17-0.016-0.258-0.096-0.261-0.239c0-0.019,0-0.034,0.003-0.05
		c-0.002-0.545-0.037-1.91-0.182-2.33C1.857,10.121,1.625,9.993,1.375,9.994 M2.464,18.041c-0.903,0-1.786-0.078-2.046-0.32
		c-0.576-0.542-0.414-4.422-0.335-4.84c0.092-0.48,0.124-0.92,0.155-1.348c0.035-0.464,0.068-0.903,0.176-1.32
		C0.521,9.79,0.871,9.516,1.326,9.497c0.479-0.022,0.92,0.244,1.055,0.63c0.167,0.48,0.199,1.736,0.208,2.29l0.69-0.003h0.955
		c0.672,0,1.06,0.566,1.094,1.128c0.025,0.38-0.178,0.694-0.352,0.89c0.164,0.164,0.348,0.438,0.385,0.86
		c0.037,0.405-0.14,0.733-0.289,0.933c0.176,0.21,0.254,0.488,0.22,0.794c-0.043,0.396-0.267,0.744-0.546,0.851
		C4.564,17.939,3.501,18.041,2.464,18.041"/>
	<path fill="#FCB43B" d="M4.677,14.453c-0.06-0.012-0.062-0.012-1.187-0.012"/>
	<path fill="#F07122" d="M4.677,14.703c-0.017,0-0.034-0.002-0.05-0.006c-0.034-0.006-0.16-0.008-1.137-0.008
		c-0.137-0.001-0.246-0.111-0.246-0.248c0-0.138,0.111-0.25,0.246-0.25c1.149,0,1.149,0,1.233,0.019
		c0.134,0.028,0.22,0.159,0.192,0.293C4.895,14.618,4.793,14.702,4.677,14.703"/>
	<path fill="#FCB43B" d="M4.787,16.27C4.725,16.257,3.6,16.257,3.6,16.257"/>
	<path fill="#F07122" d="M4.787,16.518c-0.396-0.01-0.791-0.014-1.187-0.012c-0.136,0-0.247-0.111-0.245-0.248v-0.002
		c0-0.137,0.109-0.248,0.244-0.248c1.15,0,1.206,0.012,1.234,0.018c0.133,0.028,0.219,0.158,0.191,0.293
		c-0.021,0.115-0.122,0.199-0.24,0.199 M3.611,12.912h-2.09c-0.137-0.001-0.246-0.111-0.246-0.248c0-0.001,0-0.002,0-0.002
		c0-0.137,0.11-0.248,0.244-0.248h2.09c0.137,0,0.246,0.111,0.246,0.248C3.855,12.8,3.746,12.912,3.611,12.912"/>
</g>
</svg>
