<?xml version="1.0" encoding="utf-8"?>
<!-- Generator: Adobe Illustrator 16.0.0, SVG Export Plug-In . SVG Version: 6.00 Build 0)  -->
<!DOCTYPE svg PUBLIC "-//W3C//DTD SVG 1.1//EN" "http://www.w3.org/Graphics/SVG/1.1/DTD/svg11.dtd">
<svg version="1.1" id="Calque_1" xmlns="http://www.w3.org/2000/svg" xmlns:xlink="http://www.w3.org/1999/xlink" x="0px" y="0px"
	 width="14.621px" height="18.705px" viewBox="0 0 14.621 18.705" enable-background="new 0 0 14.621 18.705" xml:space="preserve">
<g>
	
		<linearGradient id="SVGID_1_" gradientUnits="userSpaceOnUse" x1="1.5508" y1="19.5142" x2="1.5508" y2="18.2034" gradientTransform="matrix(14.1216 0 0 -18.1421 -14.5874 352.6816)">
		<stop  offset="0" style="stop-color:#FDEC5F"/>
		<stop  offset="0.6143" style="stop-color:#F89B2E"/>
		<stop  offset="1" style="stop-color:#F26422"/>
	</linearGradient>
	<path fill="url(#SVGID_1_)" stroke="#F07122" stroke-width="0.5" stroke-linecap="round" stroke-linejoin="round" d="M4.509,3.732
		c0,0-3.702,2.32-4.223,7.27c-0.402,3.829,2.548,6.968,6.026,7.333c3.95,0.417,7.545-1.44,8.01-5.858
		c0.5-4.77-3.022-7.554-5.752-9.955C7.239,1.349,8.214,0.25,8.214,0.25C6.712,0.36,5.733,1.82,5.869,3.28
		C5.981,4.483,5.94,5.43,5.108,5.404C4.249,5.374,4.264,4.361,4.509,3.732L4.509,3.732z"/>
	<path fill="#341315" d="M11.434,11.22c-0.496-0.184-0.998-0.188-1.47-0.16c-0.296,0.018-0.584,0.061-0.864,0.1
		c0.146-0.413,0.379-0.791,0.682-1.107c0.07-0.07,0.144-0.14,0.218-0.196c0.037-0.028,0.078-0.06,0.103-0.074
		c0.019-0.018,0.075-0.043,0.127-0.066l0.004-0.002c0.139-0.077,0.188-0.25,0.111-0.388c-0.066-0.119-0.208-0.175-0.338-0.132
		c-0.05,0.02-0.097,0.034-0.174,0.078C9.758,9.31,9.71,9.346,9.653,9.382c-0.104,0.075-0.2,0.154-0.291,0.238
		c-0.18,0.167-0.34,0.35-0.481,0.547c-0.28,0.394-0.521,0.84-0.587,1.382v0.01c-0.019,0.19,0.12,0.36,0.311,0.378
		c0.028,0.004,0.057,0.002,0.086-0.002c0.486-0.08,0.899-0.186,1.334-0.234c0.426-0.049,0.854-0.057,1.222,0.059l0.007,0.003
		c0.148,0.052,0.312-0.028,0.362-0.177c0.052-0.15-0.028-0.313-0.177-0.363L11.434,11.22z M6.51,11.549
		c-0.068-0.54-0.306-0.988-0.587-1.382C5.781,9.97,5.62,9.786,5.44,9.62C5.348,9.535,5.25,9.454,5.149,9.38
		C5.093,9.344,5.045,9.31,4.968,9.27C4.897,9.228,4.85,9.214,4.796,9.192c-0.146-0.059-0.312,0.011-0.37,0.156
		C4.37,9.488,4.432,9.648,4.569,9.712l0.002,0.003C4.623,9.74,4.68,9.765,4.698,9.783c0.115,0.081,0.223,0.171,0.32,0.272
		c0.141,0.145,0.268,0.306,0.379,0.478c0.129,0.201,0.232,0.414,0.306,0.627c-0.28-0.039-0.57-0.08-0.864-0.1
		c-0.473-0.027-0.977-0.021-1.473,0.16c-0.148,0.051-0.229,0.213-0.177,0.362s0.214,0.229,0.362,0.178l0.008-0.002
		c0.367-0.117,0.797-0.11,1.221-0.058c0.435,0.049,0.849,0.154,1.334,0.233c0.188,0.032,0.365-0.095,0.396-0.283
		c0.006-0.03,0.006-0.062,0.003-0.093L6.51,11.549L6.51,11.549z M3.579,14.314c0.02-0.363,0.378-0.768,0.626-0.777
		c0.397-0.014,1.178,0.19,2.616,0.078c0.92-0.069,2.463-0.313,2.82-0.516c0.209-0.117,1.272-0.22,1.205,0.572
		c-0.066,0.792-2.142,2.333-3.869,2.26c-2.088-0.087-3.42-1.25-3.398-1.615V14.314z"/>
	<path fill="#F26665" d="M5.602,14.637c0.338-0.337,1.338,0.2,1.965,0.16c0.701-0.046,1.74-0.67,2.141-0.218
		c0.764,0.861,0.072,2.388-0.088,2.65c-0.238,0.383-1.041,1.174-1.854,1.174c-0.82,0-1.693-0.484-2.095-1.065
		C5.319,16.833,4.919,15.322,5.602,14.637L5.602,14.637z"/>
	<path fill="#341315" d="M7.766,18.705c-1.25,0-1.904-0.51-2.39-1.211c-0.427-0.619-0.826-2.258-0.03-3.058
		c0.285-0.284,0.87-0.212,1.434-0.069c0.258,0.063,0.522,0.129,0.717,0.129c0.244-0.014,0.515-0.098,0.773-0.174
		c0.336-0.103,0.687-0.207,1.002-0.207c0.375,0,0.59,0.149,0.705,0.279c0.987,1.115-0.051,2.963-0.061,2.979
		C9.649,17.808,9.169,18.705,7.766,18.705z M5.946,14.824c-0.029-0.002-0.061,0.002-0.09,0.013c-0.547,0.55-0.189,1.916,0.105,2.345
		c0.363,0.525,0.891,0.922,1.802,0.922c0.882,0,1.323-0.654,1.55-1.02c0.141-0.225,0.754-1.608,0.121-2.32
		c-0.015-0.018-0.043-0.048-0.162-0.048c-0.203,0-0.498,0.09-0.781,0.175c-0.301,0.09-0.612,0.186-0.899,0.204l-0.101,0.004
		c-0.289,0-0.602-0.077-0.902-0.153c-0.234-0.057-0.48-0.119-0.643-0.119V14.824z"/>
</g>
</svg>
