<?xml version="1.0" encoding="utf-8"?>
<!-- Generator: Adobe Illustrator 16.0.0, SVG Export Plug-In . SVG Version: 6.00 Build 0)  -->
<!DOCTYPE svg PUBLIC "-//W3C//DTD SVG 1.1//EN" "http://www.w3.org/Graphics/SVG/1.1/DTD/svg11.dtd">
<svg version="1.1" id="Calque_1" xmlns="http://www.w3.org/2000/svg" xmlns:xlink="http://www.w3.org/1999/xlink" x="0px" y="0px"
	 width="14.622px" height="18.642px" viewBox="0 0 14.622 18.642" enable-background="new 0 0 14.622 18.642" xml:space="preserve">
<g transform="translate(-.7 -.1)">
	
		<linearGradient id="SVGID_1_" gradientUnits="userSpaceOnUse" x1="3.7337" y1="21.974" x2="3.7337" y2="20.6633" gradientTransform="matrix(14.1216 0 0 -18.1419 -44.7089 397.4071)">
		<stop  offset="0" style="stop-color:#FDEC5F"/>
		<stop  offset="0.6143" style="stop-color:#F89B2E"/>
		<stop  offset="1" style="stop-color:#F26422"/>
	</linearGradient>
	<path fill="url(#SVGID_1_)" stroke="#F07122" stroke-width="0.5" stroke-linecap="round" stroke-linejoin="round" d="M5.21,3.833
		c0,0-3.703,2.32-4.223,7.268c-0.402,3.83,2.547,6.97,6.026,7.334c3.95,0.416,7.544-1.44,8.011-5.86
		c0.5-4.77-3.023-7.553-5.752-9.954C7.94,1.448,8.915,0.35,8.915,0.35C7.413,0.459,6.432,1.919,6.569,3.379
		C6.68,4.582,6.64,5.53,5.808,5.503C4.948,5.474,4.965,4.461,5.21,3.833L5.21,3.833z"/>
	<g transform="translate(1.8 8.16)">
		<ellipse fill="#FFFFFF" stroke="#F68B24" stroke-width="0.5" cx="2.974" cy="3.097" rx="3.405" ry="3.512"/>
		<ellipse fill="#341315" cx="2.914" cy="3.026" rx="1.908" ry="1.968"/>
		<ellipse fill="#FFFFFF" cx="4.152" cy="2.077" rx="0.748" ry="0.77"/>
	</g>
	<g transform="translate(7.56 8.16)">
		<ellipse fill="#FFFFFF" stroke="#F68B24" stroke-width="0.5" cx="3.851" cy="3.097" rx="3.406" ry="3.512"/>
		<ellipse fill="#341315" cx="3.911" cy="3.147" rx="1.908" ry="1.968"/>
		<ellipse fill="#FFFFFF" cx="5.193" cy="2.065" rx="0.804" ry="0.829"/>
	</g>
	<ellipse fill="#341315" cx="8.19" cy="16.196" rx="1.314" ry="0.876"/>
</g>
</svg>
