<?xml version="1.0" encoding="utf-8"?>
<!-- Generator: Adobe Illustrator 16.0.0, SVG Export Plug-In . SVG Version: 6.00 Build 0)  -->
<!DOCTYPE svg PUBLIC "-//W3C//DTD SVG 1.1//EN" "http://www.w3.org/Graphics/SVG/1.1/DTD/svg11.dtd">
<svg version="1.1" id="Calque_1" xmlns="http://www.w3.org/2000/svg" xmlns:xlink="http://www.w3.org/1999/xlink" x="0px" y="0px"
	 width="14.247px" height="18.642px" viewBox="0 0 14.247 18.642" enable-background="new 0 0 14.247 18.642" xml:space="preserve">
<g>
	
		<linearGradient id="SVGID_1_" gradientUnits="userSpaceOnUse" x1="-112.4521" y1="-16.1577" x2="-112.4521" y2="-17.4685" gradientTransform="matrix(14.1198 0 0 -18.1417 1594.9229 -294.4653)">
		<stop  offset="0" style="stop-color:#FDEC5F"/>
		<stop  offset="0.6143" style="stop-color:#F89B2E"/>
		<stop  offset="1" style="stop-color:#F26422"/>
	</linearGradient>
	<path fill="url(#SVGID_1_)" stroke="#F07122" stroke-width="0.5" stroke-linecap="round" stroke-linejoin="round" d="M4.399,3.732
		c0,0-3.605,2.319-4.113,7.27c-0.392,3.828,2.479,6.967,5.866,7.333c3.847,0.415,7.346-1.44,7.798-5.86
		c0.487-4.77-2.941-7.554-5.598-9.955c-1.297-1.173-0.35-2.27-0.35-2.27C6.542,0.359,5.588,1.82,5.721,3.277
		C5.829,4.48,5.789,5.43,4.979,5.402c-0.837-0.031-0.821-1.043-0.584-1.67H4.399z"/>
	<path fill="#341315" d="M8.371,8.749c0,0,0.02,0.05,0.04,0.14c0.025,0.09,0.054,0.205,0.1,0.325C8.562,9.33,8.615,9.451,8.71,9.554
		c0.097,0.095,0.221,0.19,0.376,0.258C9.242,9.879,9.417,9.917,9.59,9.953c0.172,0.041,0.339,0.051,0.485,0.065
		c0.141,0.019,0.267,0.019,0.352,0.026l0.137,0.015l0.029,0.326c0,0-0.206,0.05-0.52,0.09c-0.157,0.011-0.344,0.021-0.55,0.007
		c-0.221-0.01-0.438-0.055-0.646-0.133c-0.113-0.043-0.221-0.098-0.323-0.164c-0.106-0.066-0.197-0.15-0.277-0.248
		C8.138,9.766,8.048,9.557,8.02,9.334C7.974,8.962,8.065,8.773,8.052,8.77l0.317-0.02L8.371,8.749z M6.361,8.812
		c0,0-0.002,0.198-0.108,0.498C6.2,9.483,6.116,9.646,6.01,9.793c-0.114,0.162-0.251,0.334-0.428,0.455
		c-0.331,0.266-0.717,0.404-1.006,0.47c-0.289,0.067-0.483,0.069-0.483,0.069l-0.072-0.319l0.114-0.054
		c0.074-0.03,0.175-0.077,0.297-0.137c0.239-0.115,0.548-0.279,0.803-0.49c0.123-0.109,0.243-0.219,0.34-0.34
		c0.09-0.111,0.173-0.229,0.251-0.35l0.236-0.39l0.302,0.106L6.361,8.812z M7.684,17.054c-0.271-0.64-0.563-0.987-0.843-1
		c-0.363-0.024-0.688,0.556-0.721,0.62l-0.281-0.155c0.07-0.134,0.444-0.79,0.984-0.79h0.031c0.418,0.018,0.796,0.42,1.121,1.196
		l-0.29,0.13L7.684,17.054z"/>
	<path fill="#F26665" d="M10.868,14.859c-0.097,0.002-0.177-0.078-0.179-0.178c-0.002-0.075,0.044-0.144,0.112-0.171l2.7-1.13
		c0.091-0.037,0.193,0.007,0.229,0.1c0.036,0.092-0.005,0.197-0.097,0.235l-2.7,1.13c-0.021,0.008-0.044,0.013-0.066,0.012V14.859z
		 M12.041,15.05c-0.095,0.001-0.175-0.077-0.177-0.177c-0.002-0.084,0.056-0.158,0.134-0.178l1.474-0.396
		c0.093-0.025,0.188,0.032,0.213,0.128c0,0.001,0,0.002,0,0.002c0.024,0.096-0.03,0.194-0.126,0.22c0,0,0,0,0,0.001l-1.472,0.395
		C12.072,15.049,12.057,15.05,12.041,15.05L12.041,15.05z M0.838,14.678C0.742,14.68,0.663,14.6,0.659,14.501
		c0-0.08,0.049-0.151,0.125-0.175l1.483-0.496c0.092-0.031,0.19,0.02,0.221,0.115c0.03,0.094-0.02,0.196-0.112,0.228l-1.483,0.496
		c-0.017,0.007-0.036,0.01-0.057,0.01L0.838,14.678z M1.477,15.096C1.38,15.098,1.3,15.019,1.298,14.92
		c-0.002-0.076,0.044-0.145,0.112-0.172l2.698-1.127c0.091-0.037,0.194,0.008,0.231,0.101s-0.007,0.198-0.099,0.236l-2.7,1.124
		c-0.021,0.008-0.043,0.013-0.066,0.014H1.477z"/>
	<path fill="#94D9F7" d="M5.6,12.285c-0.666,0.02-1.647-0.131-2.119-0.146c-0.359,0.29-0.604,0.57-0.604,0.738s0.054,0.869,0,1.206
		c-0.044,0.26-0.582,0.64-0.825,0.997c0.413,0.893,1.065,1.645,1.883,2.169c-0.012-0.14-0.021-0.261,0.006-0.347
		c0.108-0.352,0.956-0.939,0.97-1.39c0.013-0.448-0.179-1.599-0.15-1.821C4.785,13.466,5.227,12.751,5.6,12.285L5.6,12.285z
		 M12.611,14.531c-0.338-0.014-0.695-0.049-0.859-0.189c-0.3-0.25-0.217-1.037-0.354-1.346c-0.137-0.31-0.406-0.682-0.705-0.739
		l-0.181,0.028c-0.512,0.271-1.57-0.036-2.035,0.271c0.221,0.38,0.571,1.428,0.571,1.594S8.94,15.52,9.214,15.83
		c0.271,0.31,1.257,0.392,1.337,0.646c0.03,0.095,0.064,0.435,0.114,0.771c0.938-0.666,1.631-1.614,1.946-2.713V14.531z"/>
	<path fill="#341315" d="M4.789,12.826c-1.198,0-2.495-0.271-2.57-0.284L2.348,11.9c0.022,0.004,2.316,0.479,3.465,0.164
		c0.159-0.043,0.209-0.25,0.211-0.281l0.637-0.002c0.004,0.291-0.209,0.787-0.685,0.916c-0.341,0.094-0.759,0.127-1.187,0.127
		V12.826z M9.413,12.822c-0.45,0-0.892-0.037-1.251-0.139c-0.472-0.133-0.683-0.63-0.675-0.923l0.637,0.015
		c0,0.024,0.05,0.232,0.209,0.276c1.147,0.325,3.442-0.132,3.467-0.136l0.122,0.643c-0.074,0.014-1.327,0.264-2.507,0.264H9.413z"/>
</g>
</svg>
