<?xml version="1.0" encoding="utf-8"?>
<!-- Generator: Adobe Illustrator 16.0.0, SVG Export Plug-In . SVG Version: 6.00 Build 0)  -->
<!DOCTYPE svg PUBLIC "-//W3C//DTD SVG 1.1//EN" "http://www.w3.org/Graphics/SVG/1.1/DTD/svg11.dtd">
<svg version="1.1" id="Calque_1" xmlns="http://www.w3.org/2000/svg" xmlns:xlink="http://www.w3.org/1999/xlink" x="0px" y="0px"
	 width="18.028px" height="18.239px" viewBox="0 0 18.028 18.239" enable-background="new 0 0 18.028 18.239" xml:space="preserve">
<g>
	<path fill="#7A1216" d="M11.682,14.307l0.107,0.112c0.028,0.024,0.09,0.084,0.223,0.186c0.241,0.18,0.635,0.439,1.122,0.609
		c0.485,0.178,1.048,0.246,1.514,0.023l0.091-0.04c-0.027,0.026,0.066-0.04,0.096-0.057c0.082-0.054,0.191-0.118,0.234-0.157
		c0.107-0.078,0.237-0.189,0.353-0.311c0.227-0.235,0.403-0.516,0.513-0.824c0.226-0.616,0.149-1.35-0.137-1.986
		c-0.147-0.33-0.351-0.729-0.497-1.093c-0.157-0.365-0.276-0.747-0.353-1.138c-0.073-0.373-0.065-0.759,0.022-1.129
		c0.089-0.34,0.238-0.607,0.372-0.799c0.28-0.375,0.475-0.523,0.475-0.523l0.044-0.03c0.213-0.157,0.511-0.108,0.666,0.109
		c0.138,0.194,0.115,0.463-0.054,0.631c0,0-0.143,0.135-0.3,0.388c-0.151,0.26-0.269,0.598-0.128,1.114
		c0.068,0.258,0.189,0.55,0.349,0.864c0.159,0.322,0.346,0.615,0.561,1.021c0.445,0.82,0.687,1.942,0.38,3.014
		c-0.147,0.527-0.403,1.016-0.75,1.434c-0.171,0.207-0.361,0.396-0.566,0.568c-0.117,0.102-0.185,0.145-0.272,0.209
		c-0.06,0.043-0.046,0.041-0.163,0.117l-0.179,0.102c-0.46,0.254-0.971,0.395-1.494,0.41c-0.436,0.01-0.869-0.045-1.289-0.162
		c-0.597-0.166-1.165-0.422-1.685-0.76c-0.167-0.107-0.324-0.227-0.477-0.355c-0.04-0.034-0.078-0.068-0.116-0.104
		c-0.399-0.37-0.427-0.998-0.062-1.402c0.362-0.404,0.979-0.432,1.375-0.063c0.006,0.005,0.01,0.01,0.016,0.014l0.008,0.007H11.682z
		"/>
	<path fill="#7A1216" d="M13.631,7.382c1.474-0.862,2.856-1.5,4.397-1.25c-0.29,0.615-0.804,3.162-0.69,3.772
		c-0.58-0.569-1.207-1.844-1.016-2.187C15.262,7.814,14.323,7.816,13.631,7.382z"/>
	
		<linearGradient id="SVGID_1_" gradientUnits="userSpaceOnUse" x1="-144" y1="-9.7798" x2="-144" y2="-10.706" gradientTransform="matrix(13.7275 0 0 -17.6392 1983.7939 -170.8999)">
		<stop  offset="0" style="stop-color:#F16260"/>
		<stop  offset="1" style="stop-color:#DC4947"/>
	</linearGradient>
	<path fill="url(#SVGID_1_)" stroke="#7A1216" stroke-width="0.6" stroke-linecap="round" stroke-linejoin="round" d="M4.368,3.687
		c0,0-3.538,2.256-4.033,7.068c-0.382,3.723,2.433,6.774,5.758,7.129c3.771,0.404,7.204-1.399,7.646-5.695
		c0.479-4.641-2.884-7.346-5.491-9.68C6.976,1.37,7.905,0.3,7.905,0.3c-1.435,0.107-2.371,1.527-2.24,2.947
		c0.109,1.17,0.068,2.092-0.726,2.064C4.118,5.284,4.134,4.3,4.368,3.687L4.368,3.687z"/>
	<path fill="#FFFFFF" stroke="#BD2026" stroke-width="0.5" d="M7.935,11.122c0.09,0.612,0.439,1.76,1.698,1.76
		c1.257,0,2.451-0.864,2.12-3.437c-0.148,0.068-3.818,1.679-3.818,1.679V11.122z M2.555,9.945c-0.06,0.87,0.157,3.263,1.609,3.175
		c1.458-0.091,1.694-1.296,1.77-1.854C5.59,11.13,2.555,9.944,2.555,9.945L2.555,9.945z"/>
	<path fill="#341315" d="M7.643,9.751l0.485,1.457l-0.562-0.271l4.921-2.263c0.14-0.063,0.305,0,0.368,0.144
		c0.06,0.138,0.004,0.298-0.126,0.367l-4.816,2.489l-0.019,0.011c-0.187,0.097-0.413,0.022-0.507-0.166
		c-0.02-0.036-0.03-0.074-0.038-0.114L7.104,9.89c-0.03-0.154,0.065-0.305,0.215-0.337c0.145-0.03,0.284,0.055,0.326,0.196
		L7.643,9.751z M6.654,10.023l-0.285,1.497c-0.04,0.211-0.24,0.349-0.445,0.309c-0.03-0.006-0.06-0.016-0.088-0.029l-0.018-0.01
		L1.564,9.776C1.409,9.708,1.34,9.524,1.407,9.366c0.067-0.157,0.248-0.229,0.403-0.16l4.332,1.836l-0.551,0.272l0.472-1.446
		C6.108,9.702,6.274,9.604,6.438,9.65C6.598,9.694,6.693,9.86,6.654,10.023L6.654,10.023z M4.032,14.3
		c0.386-0.119,1.896-0.129,3.029-0.229c1.044-0.09,2.308-0.571,2.878-0.412c0.569,0.16,0.973,1.25,0.33,1.94
		c-0.702,0.75-1.84,1.324-3.327,1.297c-1.49-0.027-2.999-0.96-3.206-1.52c-0.113-0.301,0.027-0.99,0.294-1.074L4.032,14.3z"/>
	<path fill="#F0514E" d="M6.49,16.585c0.189,0.043,0.385,0.073,0.579,0.078c0.698,0.012,1.279-0.166,1.732-0.44
		c-0.232-0.253-0.618-0.42-1.056-0.42C7.123,15.803,6.604,16.14,6.49,16.585L6.49,16.585z"/>
	<path fill="#F1F3F4" d="M9.701,14.061c-0.434-0.087-1.287,0.187-2.068,0.286c-0.846,0.107-2.141,0.456-2.438,0.445
		c-0.199-0.006,0.334,0.367,0.582,0.354c0.681,0.044,2.145-0.117,3.175-0.444c0.104,0.106,0.071,0.857,0.194,0.817
		c0.368-0.116,0.844-0.794,0.82-1.285c-0.088-0.104-0.144-0.147-0.263-0.173L9.701,14.061z"/>
	<path fill="#7A1216" d="M3.063,4.917c0.563,0.744,1.701,1.82,1.922,1.99c0.054,0.551-0.188,2.229-1.914,1.7
		C2.403,7.794,2.664,5.587,3.063,4.917z M11.473,4.804c-0.561,0.734-1.685,1.802-1.903,1.968C9.146,7.81,9.755,8.979,11.465,8.456
		c0.658-0.806,0.402-2.986,0.01-3.651L11.473,4.804z"/>
</g>
</svg>
