<?xml version="1.0" encoding="utf-8"?>
<!-- Generator: Adobe Illustrator 16.0.0, SVG Export Plug-In . SVG Version: 6.00 Build 0)  -->
<!DOCTYPE svg PUBLIC "-//W3C//DTD SVG 1.1//EN" "http://www.w3.org/Graphics/SVG/1.1/DTD/svg11.dtd">
<svg version="1.1" id="Calque_1" xmlns="http://www.w3.org/2000/svg" xmlns:xlink="http://www.w3.org/1999/xlink" x="0px" y="0px"
	 width="14.62px" height="18.642px" viewBox="0 0 14.62 18.642" enable-background="new 0 0 14.62 18.642" xml:space="preserve">
<g>
	
		<linearGradient id="SVGID_1_" gradientUnits="userSpaceOnUse" x1="2.6323" y1="-6.293" x2="2.6323" y2="-7.6031" gradientTransform="matrix(14.1198 0 0 -18.1417 -29.8574 -115.4912)">
		<stop  offset="0" style="stop-color:#FDEC5F"/>
		<stop  offset="0.6143" style="stop-color:#F89B2E"/>
		<stop  offset="1" style="stop-color:#F26422"/>
	</linearGradient>
	<path fill="url(#SVGID_1_)" stroke="#F07122" stroke-width="0.5" stroke-linecap="round" stroke-linejoin="round" d="M4.51,3.731
		c0,0-3.703,2.319-4.223,7.27c-0.402,3.83,2.546,6.968,6.025,7.334c3.949,0.415,7.545-1.439,8.01-5.859
		c0.5-4.771-3.021-7.555-5.75-9.955C7.238,1.347,8.212,0.25,8.212,0.25c-1.5,0.11-2.479,1.569-2.344,3.028
		C5.98,4.481,5.939,5.43,5.108,5.403c-0.86-0.03-0.845-1.043-0.601-1.672H4.51z"/>
	<g transform="translate(-.9 -.5) translate(2.4 8.28)">
		<circle fill="#341315" cx="6.131" cy="7.903" r="0.84"/>
		<path fill="#341315" d="M3.311,6.018c-1.405,0-2.653-0.648-3.324-1.078l0.542-0.846c0.53,0.34,1.918,1.105,3.323,0.876
			c0.113-0.038,0.361-0.356,0.41-0.487l0.986,0.16c-0.029,0.338-0.582,1.214-1.236,1.32C3.781,6,3.547,6.02,3.313,6.018H3.311z
			 M8.668,5.78c-0.363,0-0.713-0.051-1.033-0.158c-0.59-0.199-0.879-0.785-0.897-1.138l1.004-0.05
			c0.008,0.023,0.08,0.188,0.216,0.234c0.86,0.291,2.38-0.062,3.532-0.819l0.55,0.84C11.146,5.28,9.84,5.78,8.668,5.78L8.668,5.78z
			 M10.624,0.423c-0.081-0.112-0.237-0.137-0.349-0.056c-0.002,0.001-0.002,0.002-0.004,0.002L7.148,2.668L6.9,1.55
			C6.866,1.414,6.729,1.332,6.594,1.366c-0.119,0.029-0.199,0.14-0.191,0.262l0.154,1.72c0.016,0.192,0.186,0.335,0.378,0.319
			C7.006,3.66,7.073,3.633,7.128,3.587l0.011-0.009l3.441-2.81C10.684,0.684,10.703,0.533,10.624,0.423L10.624,0.423z M5.362,1.478
			c-0.147-0.036-0.298,0.053-0.336,0.2l-0.3,1.193l-3.41-1.896C1.184,0.899,1.014,0.944,0.938,1.076
			C0.86,1.208,0.906,1.378,1.038,1.455L4.78,3.733l0.01,0.008c0.165,0.101,0.38,0.049,0.481-0.115
			C5.297,3.584,5.313,3.537,5.32,3.491l0.25-1.703C5.591,1.645,5.501,1.512,5.362,1.478L5.362,1.478z"/>
	</g>
</g>
</svg>
