<?xml version="1.0" encoding="utf-8"?>
<!-- Generator: Adobe Illustrator 16.0.0, SVG Export Plug-In . SVG Version: 6.00 Build 0)  -->
<!DOCTYPE svg PUBLIC "-//W3C//DTD SVG 1.1//EN" "http://www.w3.org/Graphics/SVG/1.1/DTD/svg11.dtd">
<svg version="1.1" id="Calque_1" xmlns="http://www.w3.org/2000/svg" xmlns:xlink="http://www.w3.org/1999/xlink" x="0px" y="0px"
	 width="13.834px" height="18.494px" viewBox="0 0 13.834 18.494" enable-background="new 0 0 13.834 18.494" xml:space="preserve">
<g>
	
		<linearGradient id="SVGID_1_" gradientUnits="userSpaceOnUse" x1="0.5068" y1="-4.0244" x2="0.5068" y2="-5.3352" gradientTransform="matrix(13.3351 0 0 -17.1335 0.1565 -70.2173)">
		<stop  offset="0" style="stop-color:#FDEC5F"/>
		<stop  offset="0.6143" style="stop-color:#F89B2E"/>
		<stop  offset="1" style="stop-color:#F26422"/>
	</linearGradient>
	<path fill="url(#SVGID_1_)" stroke="#F07122" stroke-width="0.5" stroke-linecap="round" stroke-linejoin="round" d="M4.271,3.538
		c0,0-3.495,2.192-3.986,6.864c-0.38,3.617,2.404,6.582,5.689,6.928c3.732,0.392,7.127-1.36,7.565-5.533
		c0.474-4.506-2.854-7.134-5.43-9.402C6.849,1.287,7.769,0.25,7.769,0.25C6.353,0.354,5.427,1.732,5.556,3.109
		c0.105,1.138,0.067,2.033-0.719,2.008C4.025,5.09,4.041,4.133,4.271,3.538L4.271,3.538z"/>
	<g transform="translate(-.3 .1) translate(2.947 2.72)">
		<path fill="#341315" d="M6.769-0.662c-0.205,0-0.427,0.16-0.427,0.359V3.3c0,0.2,0.222,0.36,0.427,0.36
			c0.206,0,0.428-0.162,0.428-0.36v-3.604C7.196-0.502,6.976-0.662,6.769-0.662z M8.478,0.058c-0.206,0-0.427,0.162-0.427,0.36
			v3.603c0,0.2,0.22,0.36,0.427,0.36c0.205,0,0.427-0.163,0.427-0.36V0.418C8.905,0.218,8.684,0.058,8.478,0.058z M10.187,1.498
			c-0.204,0-0.427,0.162-0.427,0.359V3.3c0,0.2,0.22,0.36,0.426,0.36s0.428-0.162,0.428-0.36V1.86
			C10.614,1.66,10.394,1.498,10.187,1.498L10.187,1.498z"/>
		<ellipse fill="#FFFFFF" stroke="#341315" stroke-width="0.6" cx="7.503" cy="8.506" rx="2.316" ry="2.247"/>
		<ellipse fill="#FFFFFF" stroke="#341315" stroke-width="0.6" cx="1.269" cy="8.506" rx="2.316" ry="2.247"/>
		<path fill="#341315" d="M2.353,11.599c0.472-0.17,3.048-0.32,3.75-0.067c0.703,0.252-0.192,3.592-0.964,3.922
			c-0.77,0.33-1.577,0.254-1.716,0.012c-0.14-0.239-0.653-2.939-0.746-3.008C2.581,12.388,1.595,11.873,2.353,11.599L2.353,11.599z"
			/>
		<path fill="#F26665" d="M5.012,12.909c-0.765,0-1.386,0.842-1.386,1.879c0,0.088,0.011,0.172,0.021,0.258
			c0.005,0.015,0.011,0.029,0.017,0.043c0.109,0.193,0.59,0.267,1.209,0c0.351-0.149,0.73-1.066,0.894-1.873
			c-0.204-0.193-0.474-0.304-0.754-0.309V12.909z"/>
	</g>
</g>
</svg>
