<?xml version="1.0" encoding="utf-8"?>
<!-- Generator: Adobe Illustrator 16.0.0, SVG Export Plug-In . SVG Version: 6.00 Build 0)  -->
<!DOCTYPE svg PUBLIC "-//W3C//DTD SVG 1.1//EN" "http://www.w3.org/Graphics/SVG/1.1/DTD/svg11.dtd">
<svg version="1.1" id="Calque_1" xmlns="http://www.w3.org/2000/svg" xmlns:xlink="http://www.w3.org/1999/xlink" x="0px" y="0px"
	 width="18.088px" height="18.289px" viewBox="0 0 18.088 18.289" enable-background="new 0 0 18.088 18.289" xml:space="preserve">
<g>
	<path fill="#E29B39" stroke="#D27328" stroke-width="0.8" d="M2.522,9.147C1.894,8.635,1.67,5.967,1.953,5.055l0.067-0.22
		l0.221-0.07c0.206-0.066,0.454-0.1,0.736-0.1c0.996,0,2.267,0.415,2.895,0.943l0.413,0.35L5.862,6.292
		c-0.533,0.42-2.153,2.17-2.732,2.807L2.851,9.409L2.524,9.146L2.522,9.147z M14.966,9.353c-0.021-0.024-2.045-2.535-2.695-3.113
		L11.845,5.86l0.476-0.316c0.653-0.438,1.837-0.742,2.88-0.742c0.443,0,0.814,0.057,1.104,0.168l0.221,0.085l0.053,0.232
		c0.215,0.96-0.294,3.69-1.027,4.161l-0.334,0.216l-0.25-0.31V9.353z"/>
	
		<linearGradient id="SVGID_1_" gradientUnits="userSpaceOnUse" x1="5.0552" y1="-2.834" x2="5.0552" y2="-4.1441" gradientTransform="matrix(13.8421 0 0 -17.7883 -60.7937 -51.7114)">
		<stop  offset="0" style="stop-color:#FDEC5F"/>
		<stop  offset="0.6143" style="stop-color:#F89B2E"/>
		<stop  offset="1" style="stop-color:#F26422"/>
	</linearGradient>
	<path fill="url(#SVGID_1_)" stroke="#F07122" stroke-width="0.5" stroke-linecap="round" stroke-linejoin="round" d="M6.437,3.663
		c0,0-3.631,2.277-4.141,7.13c-0.395,3.753,2.497,6.83,5.907,7.19c3.874,0.406,7.397-1.414,7.853-5.746
		c0.489-4.678-2.963-7.406-5.639-9.76c-1.307-1.149-0.35-2.228-0.35-2.228C8.595,0.358,7.634,1.79,7.767,3.22
		c0.11,1.18,0.07,2.11-0.746,2.083c-0.844-0.028-0.826-1.021-0.586-1.64H6.437z"/>
	<path fill="#341315" d="M5.327,9.218c0,0,0.025,0.365,0.094,0.87c0.038,0.25,0.09,0.55,0.208,0.804
		c0.056,0.131,0.138,0.232,0.216,0.285c0.086,0.053,0.133,0.061,0.297,0.033c0.547-0.074,0.912-0.706,1.029-1.166
		C7.31,9.569,7.31,9.229,7.31,9.229c-0.008-0.127,0.09-0.236,0.217-0.244c0.127-0.007,0.235,0.09,0.242,0.218l0.004,0.024
		c0,0,0.043,0.383-0.09,0.95c-0.073,0.28-0.19,0.61-0.416,0.923c-0.119,0.165-0.264,0.31-0.43,0.428
		c-0.16,0.123-0.4,0.217-0.6,0.257c-0.184,0.053-0.523,0.024-0.721-0.14c-0.178-0.137-0.315-0.32-0.396-0.531
		c-0.15-0.359-0.189-0.687-0.223-0.965c-0.051-0.56-0.03-0.91-0.03-0.91l0.002-0.02C4.876,9.094,4.983,8.997,5.11,9.003
		c0.117,0.005,0.21,0.1,0.217,0.213V9.218z M10.767,9.219c0,0,0.024,0.36,0.092,0.86c0.033,0.25,0.084,0.546,0.195,0.805
		c0.053,0.127,0.129,0.235,0.205,0.292c0.079,0.056,0.117,0.06,0.273,0.034c0.531-0.074,0.88-0.717,0.99-1.172
		c0.13-0.471,0.132-0.809,0.132-0.809C12.654,9.103,12.757,9,12.884,9c0.001,0,0.002,0,0.002,0c0.121,0,0.217,0.09,0.229,0.206
		l0.002,0.023c0,0,0.042,0.379-0.082,0.94c-0.068,0.276-0.18,0.603-0.393,0.916c-0.114,0.166-0.253,0.313-0.412,0.437
		c-0.178,0.131-0.381,0.221-0.596,0.264c-0.186,0.056-0.537,0.02-0.725-0.156c-0.196-0.162-0.3-0.359-0.37-0.534
		c-0.14-0.358-0.177-0.68-0.21-0.957c-0.043-0.553-0.023-0.899-0.023-0.899V9.219c0-0.128,0.104-0.231,0.23-0.23
		C10.663,8.988,10.767,9.091,10.767,9.219L10.767,9.219z"/>
	<path fill="none" stroke="#341315" stroke-width="0.5" d="M6.458,13.375c-0.167,0.492,0.02,1.39,0.891,1.378
		c0.678,0.001,1.322-0.295,1.765-0.811c0.366,0.365,0.894,0.9,1.53,0.813c0.89-0.122,1.17-1.01,0.936-1.626"/>
	<path fill="none" stroke="#341315" stroke-width="0.5" stroke-linecap="round" stroke-linejoin="round" d="M14.274,12.808
		l3.033-0.367 M14.362,14.173l3.476,0.54 M3.875,12.737l-3.149-0.366 M3.875,14.01L0.25,14.715"/>
	<path fill="#341315" d="M9.862,12.487c0,0.258-0.391,0.947-0.87,0.947s-0.87-0.69-0.87-0.947c0-0.258,0.391-0.467,0.87-0.467
		S9.862,12.229,9.862,12.487L9.862,12.487z"/>
</g>
</svg>
