<?xml version="1.0" encoding="utf-8"?>
<!-- Generator: Adobe Illustrator 16.0.0, SVG Export Plug-In . SVG Version: 6.00 Build 0)  -->
<!DOCTYPE svg PUBLIC "-//W3C//DTD SVG 1.1//EN" "http://www.w3.org/Graphics/SVG/1.1/DTD/svg11.dtd">
<svg version="1.1" id="Calque_1" xmlns="http://www.w3.org/2000/svg" xmlns:xlink="http://www.w3.org/1999/xlink" x="0px" y="0px"
	 width="14.788px" height="18.857px" viewBox="0 0 14.788 18.857" enable-background="new 0 0 14.788 18.857" xml:space="preserve">
<g>
	
		<linearGradient id="SVGID_1_" gradientUnits="userSpaceOnUse" x1="4.0913" y1="0.3042" x2="4.0913" y2="-1.0059" gradientTransform="matrix(14.2876 0 0 -18.3574 -51.0642 4.2412)">
		<stop  offset="0" style="stop-color:#FDEC5F"/>
		<stop  offset="0.6143" style="stop-color:#F89B2E"/>
		<stop  offset="1" style="stop-color:#F26422"/>
	</linearGradient>
	<path fill="url(#SVGID_1_)" stroke="#F07122" stroke-width="0.5" stroke-linecap="round" stroke-linejoin="round" d="M4.559,3.772
		c0,0-3.746,2.351-4.271,7.357c-0.408,3.875,2.576,7.051,6.097,7.42c3.998,0.42,7.634-1.457,8.104-5.928
		c0.51-4.83-3.057-7.645-5.818-10.074C7.321,1.361,8.307,0.25,8.307,0.25c-1.52,0.11-2.51,1.591-2.373,3.065
		c0.114,1.218,0.073,2.177-0.77,2.15C4.293,5.435,4.311,4.41,4.559,3.772z"/>
	<path fill="#341315" d="M4.31,15.066c-0.106-0.482,0.32-0.763,0.565-0.8c0.246-0.041,1.693,0.763,2.604,0.617
		c0.91-0.145,2.623-1.197,2.798-1.375c0.176-0.18,1.258-0.31,1.235,0.59c-0.022,0.898-1.665,2.271-2.202,2.486
		c-1.391,0.557-2.777,0.43-3.773-0.023C4.543,16.106,4.31,15.066,4.31,15.066z"/>
	<path fill="#F26665" d="M10.002,15.244c0.041-0.19,0.059-0.366,0.057-0.521c-1.25-0.104-1.859,0.545-2.2,0.801
		c-0.227,0.173-0.25,0.51-0.204,0.779c0.096,0.055,0.194,0.09,0.293,0.101C8.167,16.425,9.745,16.454,10.002,15.244L10.002,15.244z"
		/>
	<path fill="#7A1216" d="M5.778,8.3C5.637,8.272,5.495,8.265,5.352,8.274c-0.564,0.037-1.18,0.361-1.493,0.925
		C3.627,9.052,3.338,8.94,3.047,8.96C2.968,8.965,2.89,8.979,2.815,9.004C2.499,9.111,2.063,9.44,1.859,9.916
		c-0.149,0.351-0.145,0.706,0.013,1.028c0.365,0.748,1.981,1.98,2.893,2.057l0.167,0.016l0.116-0.119
		c0.393-0.413,1.716-2.035,1.96-2.723C7.131,9.806,7.084,9.401,6.88,9.07C6.639,8.669,6.238,8.39,5.778,8.302V8.3z"/>
	<path fill="#F26665" d="M5.679,8.894c-0.112-0.021-0.226-0.029-0.34-0.021C4.891,8.904,4.485,9.341,4.237,9.786
		C4.05,9.67,3.364,9.476,3.132,9.492C3.069,9.495,3.198,9.336,3.137,9.354c-0.338,0.133-0.611,0.392-0.76,0.723
		c-0.119,0.258-0.115,0.556,0.011,0.811c0.29,0.59,1.576,1.565,2.303,1.627l0.134,0.011l0.092-0.095
		c0.313-0.326,1.367-1.607,1.56-2.15c0.101-0.277,0.063-0.596-0.101-0.872c-0.192-0.319-0.512-0.541-0.877-0.61L5.679,8.894
		L5.679,8.894z"/>
	<g>
		<path fill="#7A1216" d="M12.497,8.665c-0.118-0.08-0.246-0.143-0.381-0.189c-0.533-0.186-1.228-0.129-1.736,0.268
			C10.224,8.517,10,8.302,9.725,8.206c-0.074-0.026-0.151-0.043-0.23-0.05C9.161,8.132,8.632,8.265,8.258,8.622
			C7.993,8.864,7.85,9.214,7.868,9.573c0.045,0.831,1.051,2.598,1.859,3.023l0.148,0.08l0.154-0.065
			c0.521-0.226,2.373-1.202,2.866-1.739c0.259-0.291,0.374-0.682,0.315-1.066c-0.066-0.464-0.326-0.877-0.715-1.139V8.665z"/>
		<path fill="#F26665" d="M12.174,9.173C12.08,9.11,11.977,9.059,11.87,9.021c-0.424-0.146-0.97,0.098-1.371,0.41
			c-0.127-0.18-0.683-0.625-0.902-0.701C9.536,8.707,9.717,8.611,9.655,8.604C9.292,8.593,8.938,8.726,8.672,8.972
			C8.461,9.163,8.35,9.438,8.366,9.722c0.035,0.657,0.84,2.059,1.484,2.398l0.118,0.063l0.121-0.051
			c0.417-0.179,1.887-0.945,2.278-1.371c0.199-0.216,0.289-0.522,0.246-0.842c-0.053-0.369-0.26-0.697-0.568-0.906L12.174,9.173z"/>
	</g>
</g>
</svg>
