<?xml version="1.0" encoding="utf-8"?>
<!-- Generator: Adobe Illustrator 16.0.0, SVG Export Plug-In . SVG Version: 6.00 Build 0)  -->
<!DOCTYPE svg PUBLIC "-//W3C//DTD SVG 1.1//EN" "http://www.w3.org/Graphics/SVG/1.1/DTD/svg11.dtd">
<svg version="1.1" id="Calque_1" xmlns="http://www.w3.org/2000/svg" xmlns:xlink="http://www.w3.org/1999/xlink" x="0px" y="0px"
	 width="14.888px" height="18.959px" viewBox="0 0 14.888 18.959" enable-background="new 0 0 14.888 18.959" xml:space="preserve">
<g>
	
		<linearGradient id="SVGID_1_" gradientUnits="userSpaceOnUse" x1="2.9712" y1="2.2744" x2="2.9712" y2="0.9636" gradientTransform="matrix(14.2876 0 0 -18.3594 -35.0154 40.4468)">
		<stop  offset="0" style="stop-color:#F16260"/>
		<stop  offset="1" style="stop-color:#DB4847"/>
	</linearGradient>
	<path fill="url(#SVGID_1_)" d="M5.984,3.367c0.114,1.217,0.073,2.177-0.768,2.15c-0.873-0.03-0.854-1.055-0.607-1.692
		c0,0-3.745,2.348-4.27,7.355c-0.41,3.875,2.576,7.051,6.096,7.42c3.998,0.42,7.635-1.457,8.105-5.928
		c0.508-4.828-3.058-7.645-5.82-10.074c-1.348-1.188-0.36-2.3-0.36-2.3c-1.521,0.113-2.51,1.59-2.374,3.067L5.984,3.367z"/>
	<path fill="none" stroke="#7B1317" stroke-width="0.6" stroke-linecap="round" stroke-linejoin="round" d="M4.608,3.825
		c0,0-3.744,2.35-4.271,7.357c-0.41,3.873,2.576,7.049,6.097,7.42c3.998,0.42,7.635-1.457,8.104-5.929
		c0.508-4.83-3.057-7.645-5.817-10.074C7.371,1.412,8.359,0.3,8.359,0.3C6.84,0.413,5.85,1.89,5.986,3.367
		c0.113,1.217,0.072,2.177-0.77,2.15c-0.87-0.03-0.854-1.055-0.606-1.692H4.608z"/>
	<path fill="#F1F2F3" d="M6.887,11.856c-0.096,0.64-0.471,1.84-1.807,1.84c-1.339,0-2.613-0.904-2.261-3.595
		c0.157,0.07,4.067,1.753,4.067,1.753 M12.615,10.624c0.064,0.91-0.166,3.413-1.715,3.32c-1.55-0.094-1.803-1.355-1.883-1.938
		L12.615,10.624"/>
	<path fill="#331517" d="M1.703,9.469c0.052-0.116,0.188-0.167,0.304-0.115c0.001,0,0.001,0,0.001,0l4.884,2.236l0.368-1.155
		c0.035-0.111,0.147-0.178,0.262-0.156c0.125,0.022,0.207,0.141,0.186,0.266l-0.289,1.58c-0.032,0.172-0.197,0.286-0.37,0.254
		c-0.028-0.006-0.058-0.015-0.083-0.027l-0.014-0.006l-1.187-0.595c-0.073,0.431-0.345,1.13-0.72,1.13
		c-0.412,0-0.801-0.564-0.935-1.957L1.809,9.772C1.697,9.716,1.65,9.582,1.703,9.469 M5.441,16.159c0.08,0,0.155-0.039,0.202-0.104
		c0.26-0.355,0.95-1.088,1.12-1.164c0.189-0.037,1.98-0.063,2.193-0.011c0.133,0.058,0.643,0.608,0.846,0.947
		c0.06,0.124,0.209,0.177,0.334,0.117c0.123-0.06,0.176-0.209,0.117-0.333c-0.008-0.015-0.016-0.027-0.024-0.04
		c-0.177-0.294-0.8-1.058-1.122-1.165c-0.279-0.094-2.275-0.04-2.473,0.004c-0.354,0.08-1.262,1.167-1.395,1.352
		c-0.081,0.109-0.059,0.264,0.051,0.345c0.001,0.001,0.002,0.002,0.004,0.003c0.041,0.031,0.093,0.047,0.146,0.047"/>
	<path fill="#F06666" d="M9.219,16.847c0.092-0.002,0.166-0.078,0.164-0.17c0-0.045-0.019-0.087-0.051-0.117l-0.77-0.73
		c-0.072-0.057-0.178-0.045-0.234,0.027c-0.049,0.063-0.048,0.152,0.004,0.213l0.771,0.731c0.032,0.028,0.073,0.044,0.116,0.044
		 M8.021,16.947c0.092,0.001,0.167-0.073,0.167-0.165c0-0.031-0.008-0.061-0.023-0.088c-0.322-0.525-0.431-0.549-0.482-0.562
		c-0.07-0.014-0.186-0.043-0.61,0.438c-0.06,0.068-0.054,0.174,0.015,0.234c0.067,0.061,0.172,0.055,0.232-0.013l0.001-0.001
		c0.095-0.109,0.198-0.211,0.308-0.307c0.043,0.066,0.155,0.227,0.25,0.383c0.031,0.05,0.086,0.08,0.142,0.08 M6.58,16.38
		c0.034,0,0.067-0.011,0.096-0.029l0.615-0.426c0.074-0.053,0.094-0.156,0.043-0.232c-0.054-0.072-0.156-0.091-0.23-0.039
		l-0.617,0.425c-0.074,0.053-0.092,0.154-0.042,0.229C6.475,16.354,6.525,16.382,6.58,16.38"/>
	<path fill="#C4282F" d="M7.965,15.524c-0.768-0.074-1.618,0.502-1.385,1.013c0.234,0.51,2.416,0.626,2.639,0
		C9.441,15.912,8.428,15.569,7.965,15.524"/>
	<path fill="#331517" d="M8.49,10.394c0.133-0.042,0.275,0.031,0.318,0.164l0,0l0.365,1.157l4.266-1.798
		c0.127-0.056,0.277,0.001,0.333,0.129c0.056,0.128-0.001,0.277-0.129,0.333l0,0l-1.974,0.907c-0.006,0.64-0.146,1.811-0.711,1.811
		c-0.346,0-0.66-0.336-0.707-1.158l-1.149,0.529L9.09,12.472c-0.16,0.072-0.35,0-0.422-0.162c-0.009-0.02-0.016-0.041-0.021-0.063
		l-0.326-1.561c-0.024-0.127,0.049-0.252,0.173-0.292"/>
	<path fill="#7B1317" d="M9.853,7.095c0,0-0.007,0.025-0.011,0.095C9.84,7.27,9.836,7.36,9.857,7.47
		c0.034,0.215,0.141,0.503,0.359,0.734c0.216,0.237,0.551,0.35,0.781,0.346c0.231,0.002,0.365-0.062,0.366-0.052
		c0.091-0.011,0.156-0.093,0.146-0.184c-0.01-0.091-0.093-0.156-0.184-0.146c-0.004,0-0.008,0.001-0.012,0.001
		c0-0.006-0.122,0.007-0.277-0.032c-0.184-0.034-0.35-0.127-0.474-0.264c-0.144-0.145-0.24-0.354-0.302-0.51l-0.064-0.185
		c-0.006-0.027-0.01-0.055-0.013-0.083c-0.008-0.091-0.087-0.159-0.179-0.152c-0.07,0.005-0.129,0.054-0.147,0.122l-0.008,0.03
		L9.853,7.095z M8.432,7.172l0.109,0.31C8.602,7.659,8.664,7.88,8.602,8.054c-0.04,0.18-0.205,0.345-0.344,0.46
		C8.119,8.634,8.01,8.707,8.01,8.707L8.004,8.712C7.928,8.763,7.907,8.865,7.957,8.941c0.001,0,0.001,0,0.002,0.001
		C8.003,9.007,8.086,9.034,8.16,9.005l0.092-0.037c0.058-0.026,0.146-0.053,0.24-0.115c0.098-0.055,0.211-0.13,0.314-0.242
		c0.107-0.106,0.199-0.26,0.253-0.428c0.098-0.358-0.038-0.684-0.14-0.868c-0.11-0.19-0.19-0.294-0.19-0.294L8.723,7.013
		C8.666,6.94,8.561,6.927,8.487,6.983C8.43,7.028,8.408,7.104,8.432,7.172 M9.151,9.915c0,0,0.103-0.085,0.252-0.214
		c0.146-0.12,0.33-0.254,0.513-0.26c0.186-0.02,0.397,0.075,0.556,0.164c0.092,0.049,0.181,0.104,0.267,0.163l0.008,0.006
		c0.073,0.053,0.18,0.034,0.231-0.04c0.046-0.064,0.04-0.152-0.015-0.21l-0.066-0.072c-0.047-0.045-0.1-0.118-0.193-0.185
		c-0.102-0.086-0.216-0.156-0.339-0.208c-0.154-0.067-0.321-0.096-0.489-0.086C9.506,9.009,9.248,9.251,9.112,9.411
		c-0.14,0.17-0.207,0.28-0.207,0.28l-0.007,0.01C8.851,9.78,8.875,9.882,8.953,9.931c0.063,0.037,0.141,0.031,0.195-0.015"/>
</g>
</svg>
