<?xml version="1.0" encoding="utf-8"?>
<!-- Generator: Adobe Illustrator 16.0.0, SVG Export Plug-In . SVG Version: 6.00 Build 0)  -->
<!DOCTYPE svg PUBLIC "-//W3C//DTD SVG 1.1//EN" "http://www.w3.org/Graphics/SVG/1.1/DTD/svg11.dtd">
<svg version="1.1" id="Calque_1" xmlns="http://www.w3.org/2000/svg" xmlns:xlink="http://www.w3.org/1999/xlink" x="0px" y="0px"
	 width="14.851px" height="18.835px" viewBox="0 0 14.851 18.835" enable-background="new 0 0 14.851 18.835" xml:space="preserve">
<g>
	
		<linearGradient id="SVGID_1_" gradientUnits="userSpaceOnUse" x1="3.6089" y1="3.4707" x2="3.6089" y2="2.1606" gradientTransform="matrix(14.3446 0 0 -18.3244 -44.2424 62.2266)">
		<stop  offset="0" style="stop-color:#FBEA5F"/>
		<stop  offset="1" style="stop-color:#F16624"/>
	</linearGradient>
	<path fill="url(#SVGID_1_)" d="M6.063,3.28C6.177,4.495,6.136,5.453,5.29,5.425c-0.875-0.03-0.857-1.052-0.609-1.688
		c0,0-3.76,2.344-4.288,7.342c-0.41,3.869,2.587,7.039,6.12,7.408c4.015,0.42,7.666-1.455,8.138-5.918
		c0.511-4.82-3.069-7.63-5.842-10.056C7.454,1.33,8.444,0.221,8.444,0.221C6.919,0.331,5.925,1.807,6.063,3.28L6.063,3.28z"/>
	<path fill="#EF7125" d="M4.182,4.383c-1.034,0.85-3.25,3.076-3.64,6.758c-0.375,3.552,2.27,6.75,5.896,7.13
		c3.31,0.35,7.354-0.939,7.856-5.693c0.469-4.431-2.598-7.095-5.303-9.445L8.538,2.736C8.042,2.302,7.773,1.822,7.743,1.311
		c-0.016-0.242,0.022-0.484,0.109-0.71c-0.475,0.15-0.809,0.443-1.02,0.693C6.366,1.848,6.144,2.567,6.212,3.288
		c0.095,0.998,0.078,1.746-0.303,2.15c-0.181,0.19-0.416,0.274-0.73,0.272C4.735,5.693,4.497,5.472,4.376,5.29
		c-0.17-0.26-0.217-0.59-0.193-0.91 M7.551,18.833c-0.378,0-0.767-0.021-1.165-0.063c-3.904-0.41-6.752-3.856-6.348-7.685
		c0.535-5.064,4.25-7.434,4.406-7.532c0.094-0.057,0.212-0.049,0.297,0.02c0.084,0.069,0.114,0.185,0.074,0.286
		c-0.143,0.367-0.193,0.88-0.015,1.15c0.083,0.126,0.21,0.188,0.396,0.194c0.2,0,0.295-0.062,0.346-0.115
		C5.809,4.804,5.771,4,5.708,3.332c-0.08-0.856,0.186-1.709,0.738-2.368c0.471-0.561,1.148-0.907,1.879-0.961
		c0.111-0.016,0.199,0.047,0.244,0.14C8.615,0.234,8.601,0.344,8.532,0.42C8.45,0.515,7.753,1.378,8.872,2.357l0.453,0.394
		c2.66,2.31,5.971,5.186,5.476,9.876c-0.408,3.861-3.205,6.205-7.25,6.207"/>
	<path fill="#341315" d="M4.784,11.598c-0.352,0.003-0.639-0.279-0.643-0.631c0-0.001,0-0.001,0-0.002
		c0-0.351,0.288-0.633,0.643-0.633s0.643,0.283,0.643,0.632S5.139,11.597,4.784,11.598 M10.21,11.598
		c-0.352,0.003-0.641-0.279-0.644-0.631c0-0.001,0-0.001,0-0.002c0-0.351,0.288-0.633,0.644-0.633c0.354,0,0.642,0.283,0.642,0.632
		S10.563,11.597,10.21,11.598"/>
	<path fill="#341315" d="M1.771,9.513c-0.032,0.032-0.112,0.203-0.116,0.63c-0.008,0.931,0.34,2.103,0.619,2.373
		c0.088,0.085,0.65,0.243,1.83,0.194c0.98-0.041,1.715-0.2,1.87-0.301c0.063-0.09,0.2-0.522,0.25-1.365
		c0.043-0.75-0.015-1.25-0.06-1.387C5.984,9.542,5.2,9.367,3.977,9.316C2.687,9.267,1.911,9.4,1.771,9.513 M3.657,13.435
		c-0.75,0-1.551-0.085-1.883-0.406c-0.504-0.486-0.846-1.914-0.84-2.893C0.94,9.578,1.053,9.204,1.278,8.992
		c0.567-0.53,2.885-0.426,3.92-0.292c1.326,0.172,1.498,0.445,1.57,0.562c0.24,0.385,0.191,1.517,0.17,1.854
		c-0.061,1.004-0.23,1.625-0.504,1.844c-0.45,0.363-1.973,0.447-2.273,0.461c-0.16,0.007-0.33,0.012-0.504,0.012 M8.964,12.333
		c0.146,0.095,0.851,0.25,1.783,0.291c1.123,0.049,1.66-0.105,1.746-0.188c0.482-0.48,0.765-2.694,0.484-2.98
		c-0.137-0.11-0.88-0.24-2.107-0.19C9.7,9.313,8.95,9.489,8.78,9.6C8.633,9.99,8.723,11.997,8.964,12.333 M11.177,13.349
		c-0.166,0-0.33-0.004-0.485-0.01c-0.29-0.014-1.76-0.1-2.198-0.463c-0.263-0.221-0.427-0.834-0.485-1.83
		C7.987,10.712,7.94,9.593,8.171,9.211c0.072-0.12,0.24-0.4,1.57-0.57c0.784-0.1,3.153-0.263,3.735,0.3
		c0.218,0.21,0.326,0.58,0.33,1.13c0.008,0.97-0.322,2.386-0.806,2.87C12.678,13.262,11.902,13.348,11.177,13.349"/>
	<path fill="#FFFFFF" d="M6.835,10.083c-0.118,0.125-0.101,1.334-0.074,1.495c0.025,0.16,1.263,0.207,1.412,0.07
		c0.148-0.14,0.025-1.426-0.1-1.564C7.95,9.948,7.032,9.878,6.835,10.083"/>
	<path fill="none" stroke="#341315" stroke-width="0.7" d="M5.411,14.801c0.642,1.403,3.262,1.557,4.032,0.024"/>
</g>
</svg>
