<?xml version="1.0" encoding="utf-8"?>
<!-- Generator: Adobe Illustrator 16.0.0, SVG Export Plug-In . SVG Version: 6.00 Build 0)  -->
<!DOCTYPE svg PUBLIC "-//W3C//DTD SVG 1.1//EN" "http://www.w3.org/Graphics/SVG/1.1/DTD/svg11.dtd">
<svg version="1.1" id="Calque_1" xmlns="http://www.w3.org/2000/svg" xmlns:xlink="http://www.w3.org/1999/xlink" x="0px" y="0px"
	 width="14.787px" height="18.858px" viewBox="0 0 14.787 18.858" enable-background="new 0 0 14.787 18.858" xml:space="preserve">
<g>
	
		<linearGradient id="SVGID_1_" gradientUnits="userSpaceOnUse" x1="-2.0889" y1="6.2632" x2="-2.0889" y2="4.9524" gradientTransform="matrix(14.2876 0 0 -18.3583 37.2415 113.6245)">
		<stop  offset="0" style="stop-color:#FDEC5F"/>
		<stop  offset="0.6143" style="stop-color:#F89B2E"/>
		<stop  offset="1" style="stop-color:#F26422"/>
	</linearGradient>
	<path fill="url(#SVGID_1_)" stroke="#F07122" stroke-width="0.5" stroke-linecap="round" stroke-linejoin="round" d="M4.559,3.775
		c0,0-3.746,2.347-4.271,7.354c-0.408,3.875,2.576,7.053,6.096,7.422c3.998,0.42,7.635-1.457,8.104-5.93
		c0.511-4.828-3.056-7.644-5.817-10.074C7.32,1.361,8.307,0.25,8.307,0.25c-1.52,0.112-2.51,1.59-2.372,3.065
		c0.114,1.218,0.073,2.178-0.771,2.15C4.295,5.435,4.312,4.411,4.559,3.775L4.559,3.775z"/>
	<path fill="#341315" d="M3.944,14.711c-0.107-0.454,0.32-0.718,0.564-0.754c0.246-0.038,1.695,0.721,2.605,0.582
		c0.91-0.137,2.623-1.126,2.799-1.294c0.174-0.17,1.256-0.292,1.234,0.554c-0.023,0.848-1.665,2.141-2.202,2.342
		c-1.39,0.523-2.778,0.404-3.772-0.022c-0.996-0.429-1.229-1.409-1.229-1.409V14.711z"/>
	<path fill="#F26665" d="M9.637,14.879c0.039-0.18,0.058-0.345,0.056-0.49c-1.25-0.1-1.86,0.514-2.2,0.754
		c-0.227,0.162-0.25,0.479-0.203,0.734c0.09,0.051,0.189,0.082,0.293,0.092c0.217,0.021,1.795,0.049,2.053-1.09H9.637z"/>
	<path fill="#341315" d="M5.015,9.648c-0.398,0-0.722,0.495-0.722,1.105s0.322,1.104,0.722,1.104s0.722-0.494,0.722-1.104
		S5.415,9.648,5.015,9.648z"/>
	<path fill="#341315" d="M13.971,10.421c-0.8-0.528-1.644-0.986-2.522-1.368c-0.468-0.577-1.188-0.912-1.842-1.114
		c-0.63-0.194-1.229-0.29-1.67-0.127C5.865,7.234,4.004,6.94,2.995,6.782L2.524,6.705C2.329,6.681,2.151,6.821,2.126,7.017
		C2.104,7.199,2.225,7.368,2.404,7.408l0.479,0.076C3.817,7.63,5.497,7.897,7.381,8.398C7.312,8.584,7.264,8.8,7.264,9.083
		c0,1.548,0.869,3.613,2,3.613c1.127,0,2.686-0.647,2.686-2.194c0-0.163-0.021-0.311-0.048-0.452c0.58,0.288,1.144,0.604,1.672,0.96
		c0.163,0.109,0.384,0.067,0.493-0.096c0,0,0,0,0.001-0.001c0.11-0.161,0.069-0.382-0.093-0.492
		c-0.001-0.001-0.002-0.002-0.004-0.003V10.421z"/>
</g>
</svg>
