<?xml version="1.0" encoding="utf-8"?>
<!-- Generator: Adobe Illustrator 16.0.0, SVG Export Plug-In . SVG Version: 6.00 Build 0)  -->
<!DOCTYPE svg PUBLIC "-//W3C//DTD SVG 1.1//EN" "http://www.w3.org/Graphics/SVG/1.1/DTD/svg11.dtd">
<svg version="1.1" id="Calque_1" xmlns="http://www.w3.org/2000/svg" xmlns:xlink="http://www.w3.org/1999/xlink" x="0px" y="0px"
	 width="22.591px" height="14.54px" viewBox="0 0 22.591 14.54" enable-background="new 0 0 22.591 14.54" xml:space="preserve">
<g transform="translate(.5 3.6)">
	<path fill="#9F2C21" d="M14.18,1.745c-0.126-0.494,0.208-0.51-0.404-1.065c-0.612-0.555-3.597-2.275-1.303-3.347
		c-4.896-0.46-4.992,3.103-4.718,4.35c-0.916,0.182-2.859,1.018-2.01,3.153c-0.81,0.597-2.017,1.797-1.89,3.053
		c0.13,1.26,2.272,2.615,7.075,2.684c4.8,0.067,6.613-1.961,6.617-3.353c0.004-1.39-1.375-2.382-1.375-2.382
		c0.615-1.408-0.885-3.447-1.994-3.09L14.18,1.745z"/>
	<path fill="#341315" d="M12.669,5.24c1.271-0.336,1.908-1.444,2.3-1.72c0.392-0.28,1.44,0.007,1.144,0.977
		c-0.297,0.97-1.8,2.045-2.572,2.227c-0.772,0.183-5.416,1.144-6.955-0.72C5.06,4.158,6.74,4.701,7.605,5.211
		c0.816,0.48,2.846,0.615,5.064,0.027V5.24z"/>
	<path fill="#341315" d="M17.38,8.106c0.6-2.011-0.928-1.387-1.133-1.043c-0.203,0.344-1.959,2.021-5.082,2.313
		c-2.94,0.273-4.23-1.135-5.158-1.416C5.457,7.793,4.68,7.818,4.748,8.361c0.145,1.17,2.379,2.068,6.185,2.211
		C13.486,10.666,16.792,10.076,17.38,8.106L17.38,8.106z M12.565,0.44c-0.25,0.153-0.31,0.7-0.376,1.21
		c-0.066,0.507-1.43,0.69-2.173,0.582c-0.8-0.116-1.431,0.475-0.28,0.715c0.23,0.045,1.557,0.373,2.932-0.093
		c1.377-0.467,1.877-0.97,1.492-1.572S12.903,0.232,12.565,0.44L12.565,0.44z"/>
	<path fill="#341315" d="M14.046,2.756c-0.203,0.001-0.368-0.163-0.369-0.366c0-0.027,0.002-0.053,0.008-0.079l0.048-0.216
		c0.128-0.564,0.165-0.806-0.204-1.142c-0.09-0.08-0.234-0.19-0.404-0.317c-0.783-0.587-1.967-1.475-1.867-2.443
		c0.021-0.185,0.086-0.362,0.191-0.516c-1.324,0.074-2.307,0.6-2.871,1.545c-0.649,1.09-0.545,2.372-0.31,2.726
		c0.127,0.16,0.101,0.393-0.06,0.52s-0.393,0.101-0.52-0.059C7.676,2.393,7.666,2.376,7.655,2.358
		c-0.39-0.583-0.512-2.173,0.288-3.513c0.596-0.997,1.87-2.133,4.568-1.88c0.203,0.021,0.352,0.202,0.33,0.406
		c-0.013,0.128-0.092,0.241-0.209,0.296c-0.277,0.128-0.613,0.337-0.639,0.6c-0.059,0.553,1.043,1.38,1.572,1.777
		c0.195,0.146,0.357,0.27,0.46,0.362c0.703,0.637,0.556,1.28,0.427,1.85l-0.045,0.203c-0.034,0.172-0.186,0.296-0.361,0.295V2.756z"
		/>
	<path fill="#341315" d="M6.597,6.195c-0.081,0-0.16-0.027-0.225-0.076C5.707,5.608,4.99,4.58,4.99,3.532
		c0-1.083,1-1.965,2.608-2.303c0.198-0.044,0.395,0.082,0.438,0.28c0,0.002,0.001,0.004,0.002,0.006
		c0.041,0.2-0.088,0.396-0.287,0.437c-1.248,0.26-2.022,0.867-2.022,1.58c0,0.763,0.55,1.584,1.095,2.002
		c0.16,0.127,0.188,0.36,0.061,0.521C6.816,6.143,6.71,6.194,6.6,6.195H6.597z"/>
	<path fill="#590D18" d="M10.932,10.94c-6.888,0-7.422-2.547-7.422-3.328c0-1.236,1.178-2.776,2.106-3.123
		c0.191-0.071,0.404,0.027,0.475,0.218c0.072,0.191-0.025,0.404-0.217,0.475l0,0c-0.612,0.229-1.627,1.49-1.627,2.43
		c0,1.196,1.75,2.59,6.684,2.59c2.875,0,4.857-0.555,5.736-1.605c0.445-0.535,0.604-1.188,0.47-1.938
		c-0.07-0.383-0.664-1.213-1.155-1.506c-0.182-0.094-0.254-0.316-0.16-0.499c0.092-0.182,0.315-0.254,0.497-0.161
		c0.015,0.007,0.029,0.016,0.043,0.026c0.644,0.385,1.388,1.379,1.5,2.006c0.175,0.963-0.044,1.842-0.63,2.543
		C16.196,10.311,14.076,10.94,10.932,10.94z"/>
	<path fill="#590D18" d="M15.817,5.838c-0.203,0.001-0.368-0.163-0.37-0.367c0-0.069,0.02-0.138,0.057-0.197
		c0.19-0.302,0.453-1.129,0.354-2.06c-0.07-0.655-1.311-1.043-1.73-1.102c-0.199-0.045-0.323-0.244-0.277-0.443
		c0.04-0.176,0.202-0.297,0.383-0.287c0.573,0.08,2.236,0.578,2.359,1.755c0.111,1.05-0.161,2.051-0.463,2.53
		C16.061,5.774,15.943,5.838,15.817,5.838L15.817,5.838z"/>
	<path fill="#590D18" d="M9.955,7.418c-0.49,0-1.009-0.021-1.561-0.07C8.191,7.33,8.041,7.15,8.058,6.947c0-0.001,0-0.002,0-0.002
		C8.079,6.742,8.257,6.594,8.46,6.611c4.205,0.375,6.393-0.881,7.137-1.437c0.174-0.108,0.401-0.056,0.51,0.118
		c0.096,0.153,0.066,0.354-0.07,0.475C15.328,6.297,13.417,7.417,9.955,7.418L9.955,7.418z"/>
	<path fill="#341315" d="M19.977,0.046c0.521-0.332,0.553-1.22,0.067-1.98c-0.483-0.763-1.299-1.11-1.822-0.778
		c-0.523,0.332-0.555,1.22-0.07,1.98C18.636,0.031,19.453,0.378,19.977,0.046L19.977,0.046z"/>
	<path fill="#341315" d="M18.796-1.807c0.524-0.332,0.75-0.91,0.511-1.29c-0.243-0.382-0.863-0.42-1.386-0.09
		c-0.523,0.333-0.75,0.91-0.508,1.292c0.241,0.38,0.861,0.42,1.385,0.088H18.796z"/>
	<path fill="#53C6F3" d="M18.759-1.586c0.302,0.475,0.189,1.39-0.578,1.876c-0.768,0.488-1.633,0.497-1.936,0.022
		s0.073-1.256,0.84-1.744c0.766-0.487,1.371-0.63,1.672-0.154H18.759z M19.064-1.78c0.303,0.475,1.178,0.76,1.943,0.273
		c0.768-0.487,1.145-1.27,0.843-1.744c-0.302-0.473-1.168-0.465-1.935,0.023c-0.768,0.488-1.152,0.974-0.851,1.45L19.064-1.78z"/>
	<path fill="#341315" d="M0.828,0.114c0.375,0.25,0.976,0.008,1.342-0.54c0.365-0.55,0.355-1.197-0.021-1.447
		c-0.377-0.25-0.978-0.008-1.343,0.54c-0.366,0.55-0.357,1.197,0.02,1.448L0.828,0.114z"/>
	<path fill="#590D18" d="M1.712-0.632c0.377,0.333,0.83,0.307,1.014-0.06c0.18-0.365,0.025-0.933-0.352-1.267
		s-0.83-0.308-1.013,0.06C1.179-1.534,1.335-0.966,1.712-0.632L1.712-0.632z"/>
	<path fill="#54C5F1" d="M1.578-0.621C1.362-0.195,0.737,0.027,0.185-0.463c-0.553-0.491-0.826-1.233-0.613-1.661
		c0.215-0.43,0.836-0.378,1.385,0.112C1.51-1.522,1.789-1.05,1.578-0.621L1.578-0.621z M1.796-0.426
		C1.582,0,1.669,0.854,2.222,1.344c0.552,0.49,1.174,0.543,1.387,0.115c0.215-0.428-0.061-1.17-0.613-1.66
		C2.443-0.691,2.007-0.853,1.796-0.426L1.796-0.426z"/>
	<path fill="#C0C4C9" d="M0.546,1.037C0.507,1.037,0.468,1.024,0.437,1C0.355,0.936,0.337,0.818,0.4,0.734
		c0.041-0.056,0.084-0.11,0.13-0.162c0.065-0.075,0.18-0.082,0.255-0.016C0.787,0.558,0.79,0.561,0.792,0.563
		C0.867,0.633,0.871,0.753,0.8,0.83C0.763,0.871,0.728,0.914,0.697,0.96C0.662,1.008,0.607,1.037,0.546,1.037z M0.876,3.767
		L0.847,3.763C0.799,3.754,0.753,3.742,0.707,3.726C0.621,3.694,0.539,3.654,0.46,3.606C0.373,3.549,0.347,3.435,0.4,3.346
		c0.049-0.086,0.158-0.117,0.246-0.068C0.648,3.279,0.65,3.28,0.652,3.282c0.055,0.032,0.115,0.06,0.18,0.087
		c0.027,0.01,0.057,0.017,0.084,0.022c0.101,0.018,0.166,0.116,0.148,0.22C1.048,3.7,0.971,3.764,0.88,3.765L0.876,3.767z
		 M1.569,3.661c-0.081,0-0.151-0.053-0.176-0.13c-0.033-0.099,0.021-0.207,0.12-0.24c0.109-0.037,0.219-0.075,0.326-0.116
		C1.937,3.141,2.041,3.192,2.076,3.29c0.036,0.098-0.014,0.206-0.111,0.243c-0.12,0.043-0.23,0.084-0.34,0.12
		C1.606,3.658,1.587,3.661,1.569,3.661L1.569,3.661z M2.569,3.305c-0.081,0-0.153-0.054-0.177-0.132
		c-0.031-0.099,0.021-0.205,0.12-0.238c0.112-0.037,0.229-0.072,0.35-0.102c0.101-0.03,0.198,0.037,0.224,0.14
		c0.023,0.1-0.036,0.201-0.135,0.228C2.837,3.231,2.73,3.263,2.623,3.297C2.605,3.302,2.586,3.305,2.569,3.305L2.569,3.305z
		 M3.953,3.093H3.94C3.878,3.09,3.818,3.089,3.757,3.088c-0.051,0-0.098,0.003-0.146,0.005c-0.127,0-0.19-0.074-0.196-0.178
		c-0.006-0.102,0.07-0.19,0.172-0.2c0.125-0.009,0.251-0.009,0.375,0C4.067,2.729,4.14,2.824,4.126,2.928
		c-0.012,0.09-0.085,0.159-0.176,0.165H3.953z M0.117,3.085C0.039,3.084-0.03,3.034-0.055,2.961c-0.044-0.129-0.072-0.264-0.083-0.4
		c-0.01-0.104,0.065-0.196,0.168-0.207c0.114-0.012,0.192,0.07,0.2,0.174C0.24,2.64,0.26,2.741,0.292,2.833
		c0.033,0.096-0.016,0.203-0.11,0.24C0.162,3.081,0.14,3.085,0.119,3.085H0.117z M0.11,2.015c-0.014,0-0.03,0-0.044-0.004
		c-0.102-0.026-0.162-0.128-0.137-0.23C-0.042,1.656,0,1.533,0.042,1.414c0.033-0.094,0.137-0.144,0.23-0.11
		c0.002,0.001,0.006,0.002,0.008,0.003c0.097,0.039,0.145,0.148,0.106,0.245c-0.038,0.104-0.07,0.212-0.097,0.322
		C0.27,1.957,0.196,2.016,0.11,2.017V2.015z M4.824,3.296c-0.023,0-0.047-0.005-0.068-0.014C4.703,3.26,4.648,3.24,4.591,3.222
		c-0.099-0.033-0.152-0.141-0.119-0.24c0.029-0.1,0.136-0.152,0.232-0.122C4.768,2.88,4.83,2.903,4.891,2.93
		c0.095,0.04,0.142,0.148,0.104,0.244C4.968,3.247,4.9,3.295,4.822,3.294L4.824,3.296z M18.55,7.191
		c-0.09-0.002-0.166-0.068-0.18-0.156c-0.02-0.102,0.046-0.199,0.146-0.221c0.12-0.022,0.236-0.05,0.35-0.076
		c0.103-0.025,0.2,0.037,0.225,0.14c0.025,0.101-0.035,0.202-0.135,0.229c-0.124,0.031-0.248,0.058-0.373,0.08
		c-0.012,0.002-0.023,0.003-0.035,0.004H18.55z M19.613,6.881c-0.104-0.004-0.188-0.091-0.184-0.195
		c0.002-0.074,0.047-0.141,0.115-0.17c0.113-0.045,0.221-0.093,0.326-0.146c0.092-0.043,0.201-0.004,0.244,0.088
		c0.001,0,0.002,0.002,0.002,0.003c0.044,0.094,0.006,0.205-0.087,0.252c-0.115,0.057-0.232,0.108-0.352,0.155
		C19.658,6.877,19.636,6.881,19.613,6.881L19.613,6.881z M20.589,6.354c-0.061-0.001-0.119-0.031-0.152-0.084
		c-0.057-0.086-0.035-0.203,0.05-0.263c0.099-0.069,0.193-0.142,0.28-0.217c0.076-0.065,0.191-0.056,0.256,0.021
		c0.002,0.001,0.003,0.003,0.004,0.005c0.066,0.08,0.055,0.199-0.025,0.266c-0.097,0.082-0.199,0.16-0.31,0.236
		c-0.03,0.021-0.065,0.033-0.103,0.033V6.354z M21.408,5.591c-0.041,0-0.082-0.015-0.115-0.04c-0.079-0.066-0.092-0.185-0.029-0.268
		c0.071-0.093,0.137-0.189,0.195-0.291c0.047-0.086,0.154-0.119,0.241-0.072c0.005,0.002,0.009,0.004,0.013,0.007
		c0.088,0.054,0.117,0.169,0.065,0.259c-0.065,0.111-0.14,0.223-0.225,0.334c-0.034,0.044-0.088,0.07-0.144,0.069L21.408,5.591z
		 M21.873,4.574c-0.01,0-0.021,0-0.031-0.003c-0.102-0.019-0.169-0.116-0.15-0.218l0,0c0.02-0.113,0.028-0.23,0.03-0.348
		c0.001-0.102,0.083-0.185,0.185-0.186h0.004c0.104,0.003,0.185,0.09,0.182,0.194l0,0c-0.002,0.136-0.014,0.272-0.036,0.406
		c-0.015,0.088-0.091,0.154-0.181,0.156L21.873,4.574z M21.835,3.444c-0.09-0.002-0.164-0.066-0.181-0.153
		c-0.022-0.12-0.051-0.238-0.084-0.355c-0.028-0.1,0.028-0.204,0.128-0.234c0.1-0.024,0.2,0.032,0.23,0.132
		c0.033,0.127,0.063,0.255,0.087,0.384c0.021,0.103-0.048,0.203-0.15,0.223C21.856,3.442,21.845,3.443,21.835,3.444L21.835,3.444z
		 M21.505,2.359c-0.074,0-0.142-0.045-0.17-0.114c-0.047-0.113-0.097-0.224-0.148-0.335c-0.045-0.093-0.008-0.206,0.085-0.253
		c0.091-0.044,0.199-0.007,0.243,0.083c0.002,0.002,0.002,0.003,0.003,0.005c0.056,0.114,0.108,0.233,0.16,0.353
		c0.04,0.097-0.005,0.208-0.101,0.25c-0.022,0.009-0.047,0.014-0.072,0.013V2.359z M20.987,1.359c-0.062,0-0.12-0.032-0.153-0.084
		C20.769,1.176,20.7,1.08,20.625,0.989c-0.066-0.08-0.057-0.198,0.021-0.267c0.073-0.066,0.188-0.061,0.255,0.014
		c0.002,0.002,0.004,0.004,0.005,0.006c0.075,0.09,0.155,0.197,0.236,0.322c0.056,0.087,0.034,0.203-0.05,0.263
		c-0.031,0.021-0.068,0.031-0.105,0.03L20.987,1.359z"/>
	<ellipse fill="#EF9924" cx="6.973" cy="3.333" rx="0.261" ry="0.289"/>
	<ellipse fill="#EF9924" cx="6.305" cy="3.771" rx="0.211" ry="0.149"/>
	<path fill="#EF9924" d="M8.51-0.046C8.113-0.028,9.199-1.51,10.078-1.749c0.879-0.24,0.223,0.558,0,0.67
		C9.854-0.967,9.123-0.073,8.51-0.046z"/>
</g>
</svg>
