<?xml version="1.0" encoding="utf-8"?>
<!-- Generator: Adobe Illustrator 16.0.0, SVG Export Plug-In . SVG Version: 6.00 Build 0)  -->
<!DOCTYPE svg PUBLIC "-//W3C//DTD SVG 1.1//EN" "http://www.w3.org/Graphics/SVG/1.1/DTD/svg11.dtd">
<svg version="1.1" id="Calque_1" xmlns="http://www.w3.org/2000/svg" xmlns:xlink="http://www.w3.org/1999/xlink" x="0px" y="0px"
	 width="16.174px" height="18.644px" viewBox="0 0 16.174 18.644" enable-background="new 0 0 16.174 18.644" xml:space="preserve">
<g>
	
		<linearGradient id="SVGID_1_" gradientUnits="userSpaceOnUse" x1="0.4727" y1="10.4053" x2="0.4727" y2="9.0946" gradientTransform="matrix(14.12 0 0 -18.1457 0.6328 187.4619)">
		<stop  offset="0" style="stop-color:#FBEA5F"/>
		<stop  offset="1" style="stop-color:#F16624"/>
	</linearGradient>
	<path fill="url(#SVGID_1_)" d="M5.868,3.28C5.98,4.483,5.94,5.432,5.108,5.404c-0.86-0.028-0.845-1.04-0.601-1.67
		c0,0-3.699,2.32-4.219,7.27c-0.404,3.83,2.545,6.968,6.024,7.334c3.952,0.415,7.545-1.44,8.01-5.86
		c0.5-4.77-3.022-7.554-5.75-9.955c-1.334-1.176-0.36-2.274-0.36-2.274C6.713,0.359,5.732,1.819,5.868,3.28L5.868,3.28z"/>
	<path fill="none" stroke="#EF7125" stroke-width="0.5" stroke-linecap="round" stroke-linejoin="round" d="M4.51,3.733
		c0,0-3.702,2.32-4.223,7.27c-0.402,3.83,2.547,6.968,6.026,7.334c3.952,0.415,7.545-1.439,8.01-5.859
		c0.5-4.771-3.022-7.555-5.75-9.956C7.238,1.348,8.213,0.25,8.213,0.25C6.711,0.36,5.73,1.82,5.866,3.28
		c0.112,1.202,0.072,2.15-0.76,2.123c-0.86-0.028-0.845-1.04-0.601-1.67H4.51z"/>
	<path fill="#331517" d="M8.893,16.401c0.037-0.011,0.07-0.023,0.105-0.035c1.15-1.033,1.58-3.155,1.5-3.33
		c-0.088-0.188-1.59-1.059-3.707-0.913c-0.354,0.022-0.66,0.05-0.923,0.077c-1.313,0.138-1.571,0.32-1.536,0.517
		c0.422,2.376,1.449,3.354,1.995,3.935c0.402,0.029,0.816,0.027,1.235-0.011C8.032,16.586,8.475,16.504,8.893,16.401"/>
	<path fill="#F1F2F3" d="M4.832,12.948c0.03,0.173,0.065,0.336,0.103,0.492c1.788-0.187,2.7-0.4,4.53-0.006
		c0.125-0.043,0.27-0.24,0.394-0.447c-0.521-0.282-1.563-0.653-2.88-0.565c-1.85,0.124-2.182,0.313-2.145,0.526"/>
	<path fill="#F06666" d="M8.659,15.901c0.638-0.564,1.013-1.525,1.175-2.162c-2.178,0.25-3.141,1.257-3.595,2.164
		c0.095,0.103,0.177,0.188,0.25,0.269c0.29,0.005,0.583-0.007,0.87-0.037c0.438-0.046,0.873-0.124,1.3-0.231"/>
	<path fill="#321517" d="M3.582,10.973c-0.109-0.836,0-2.366,1.153-2.335c0.497,0.013,0.877,0.334,1.056,0.784
		c0.127,0.32,0.377,1.44,0.055,1.489c-0.277,0.041-0.344-0.197-0.401-0.452c-0.083-0.362-0.183-1.105-0.668-1.145
		c-0.515-0.04-0.597,0.693-0.666,1.067c-0.03,0.164-0.006,0.453-0.087,0.595c-0.109,0.193-0.367,0.29-0.439-0.005 M8.525,10.971
		c-0.061-1.03,0.197-2.54,1.54-2.475c0.571,0.03,0.983,0.444,1.12,0.973c0.095,0.366,0.29,1.612-0.074,1.612
		c-0.342,0-0.406-0.742-0.457-1.11C10.6,9.574,10.461,9.185,10.01,9.185c-0.551-0.002-0.82,0.575-0.926,1.05
		c-0.043,0.195-0.054,0.556-0.07,0.747C9,11.166,8.545,11.388,8.525,10.971"/>
	<path fill="#99DAF0" d="M13.643,9.188c-0.908,0-1.7-0.498-2.117-1.332c-0.836-1.668,0.577-3.53,1.902-4.966
		c0.047-0.05,0.111-0.079,0.18-0.08h0.004c0.066,0,0.132,0.027,0.178,0.076c1.286,1.332,2.666,3.094,1.937,4.906
		c-0.347,0.86-1.146,1.395-2.085,1.395"/>
	<path fill="#4582C4" d="M13.612,2.559h-0.006c-0.138,0.001-0.269,0.059-0.362,0.16c-1.38,1.496-2.848,3.443-1.943,5.25
		c0.455,0.905,1.351,1.468,2.341,1.468c1.042,0,1.93-0.595,2.315-1.553c0.793-1.966-0.754-3.893-1.986-5.17
		c-0.094-0.098-0.225-0.154-0.36-0.154 M13.61,3.06c1.414,1.468,2.513,3.072,1.882,4.64c-0.33,0.815-1.084,1.238-1.854,1.238
		c-0.739,0-1.489-0.39-1.893-1.193c-0.768-1.53,0.604-3.32,1.862-4.684"/>
</g>
</svg>
