<?xml version="1.0" encoding="utf-8"?>
<!-- Generator: Adobe Illustrator 16.0.0, SVG Export Plug-In . SVG Version: 6.00 Build 0)  -->
<!DOCTYPE svg PUBLIC "-//W3C//DTD SVG 1.1//EN" "http://www.w3.org/Graphics/SVG/1.1/DTD/svg11.dtd">
<svg version="1.1" id="Calque_1" xmlns="http://www.w3.org/2000/svg" xmlns:xlink="http://www.w3.org/1999/xlink" x="0px" y="0px"
	 width="14.62px" height="18.641px" viewBox="0 0 14.62 18.641" enable-background="new 0 0 14.62 18.641" xml:space="preserve">
<g>
	
		<linearGradient id="SVGID_1_" gradientUnits="userSpaceOnUse" x1="1.3882" y1="15.1519" x2="1.3882" y2="13.8398" gradientTransform="matrix(14.1198 0 0 -18.1417 -12.2937 273.5171)">
		<stop  offset="0" style="stop-color:#FDEC5F"/>
		<stop  offset="0.6143" style="stop-color:#F89B2E"/>
		<stop  offset="1" style="stop-color:#F26422"/>
	</linearGradient>
	<path fill="url(#SVGID_1_)" stroke="#F07122" stroke-width="0.5" stroke-linecap="round" stroke-linejoin="round" d="M4.51,3.731
		c0,0-3.703,2.32-4.223,7.27c-0.403,3.83,2.546,6.969,6.025,7.334c3.949,0.416,7.545-1.439,8.01-5.859
		c0.5-4.77-3.022-7.554-5.75-9.955c-1.334-1.173-0.36-2.27-0.36-2.27c-1.5,0.11-2.479,1.57-2.345,3.028
		C5.98,4.482,5.939,5.43,5.107,5.403c-0.859-0.03-0.844-1.042-0.6-1.672H4.51z"/>
	<path fill="#341315" d="M8.199,8.053c0,0,0.024,0.06,0.051,0.162c0.031,0.126,0.069,0.25,0.113,0.372
		c0.061,0.134,0.123,0.274,0.234,0.39c0.114,0.11,0.26,0.217,0.443,0.297c0.203,0.034,0.402,0.088,0.596,0.16
		c0.202,0.046,0.4,0.06,0.57,0.077c0.17,0.023,0.318,0.023,0.42,0.032l0.16,0.016l0.033,0.373c0,0-0.24,0.055-0.61,0.1
		c-0.216-0.011-0.433-0.008-0.647,0.01C9.316,9.951,9.059,9.899,8.798,9.888c-0.133-0.048-0.261-0.111-0.38-0.187
		c-0.092-0.113-0.203-0.21-0.327-0.287c-0.164-0.197-0.269-0.438-0.3-0.692c-0.057-0.427,0.05-0.643,0.035-0.648l0.375-0.02
		L8.199,8.053z M3.063,8.14c0,0,0.018-0.062,0.065-0.165c0.062-0.114,0.147-0.274,0.285-0.426c0.081-0.078,0.158-0.16,0.229-0.246
		c0.084-0.088,0.192-0.155,0.297-0.234c0.114-0.07,0.23-0.146,0.36-0.203c0.124-0.07,0.272-0.102,0.414-0.14
		c0.151,0.003,0.302-0.01,0.45-0.04c0.148-0.01,0.295,0.032,0.435,0.055c0.196,0.161,0.42,0.286,0.66,0.367
		C6.587,7.392,6.689,7.65,6.703,7.64l-0.29,0.238l-0.13-0.1C6.179,7.688,6.065,7.61,5.945,7.544
		C5.621,7.348,5.233,7.289,4.867,7.381c-0.196,0.064-0.4,0.136-0.58,0.243C4.115,7.737,3.943,7.839,3.811,7.95
		C3.678,8.06,3.57,8.152,3.5,8.215C3.424,8.297,3.38,8.342,3.38,8.342l-0.317-0.2V8.14z M7.561,16.566
		c-0.301-0.69-0.625-1.078-0.912-1.09H6.633c-0.311,0-0.616,0.413-0.75,0.659l-0.494-0.267c0.124-0.229,0.594-1.002,1.28-0.954
		c0.54,0.023,1,0.489,1.405,1.43l-0.516,0.223L7.561,16.566z M12.189,10.797H8.057v0.752H8.21c0.003,0.998,0.468,1.807,1.04,1.807
		c0.574,0,1.04-0.811,1.04-1.807h1.899V10.797z M6.537,9.659c-0.151-0.07-0.309-0.127-0.471-0.17
		c-0.109-0.018-0.22-0.054-0.354-0.057c-0.144-0.013-0.289-0.005-0.43,0.024C4.973,9.516,4.66,9.729,4.473,9.988
		c-0.374,0.524-0.453,1.08-0.514,1.474c-0.021,0.159-0.037,0.318-0.047,0.479l-0.01,0.17h0.01c0.007,0.941,0.5,1.704,1.109,1.704
		c0.613,0,1.11-0.772,1.11-1.724c0-0.881-0.424-1.597-0.974-1.701c0.123-0.046,0.229-0.13,0.301-0.239
		c0.078,0,0.157-0.012,0.232-0.037c0.078-0.01,0.164,0.013,0.239,0.015c0.124,0.043,0.251,0.077,0.38,0.1
		c0.096,0.03,0.15,0.05,0.15,0.05l0.242-0.544L6.535,9.66L6.537,9.659z"/>
</g>
</svg>
