<?xml version="1.0" encoding="utf-8"?>
<!-- Generator: Adobe Illustrator 16.0.0, SVG Export Plug-In . SVG Version: 6.00 Build 0)  -->
<!DOCTYPE svg PUBLIC "-//W3C//DTD SVG 1.1//EN" "http://www.w3.org/Graphics/SVG/1.1/DTD/svg11.dtd">
<svg version="1.1" id="Calque_1" xmlns="http://www.w3.org/2000/svg" xmlns:xlink="http://www.w3.org/1999/xlink" x="0px" y="0px"
	 width="14.622px" height="18.643px" viewBox="0 0 14.622 18.643" enable-background="new 0 0 14.622 18.643" xml:space="preserve">
<g>
	
		<linearGradient id="SVGID_1_" gradientUnits="userSpaceOnUse" x1="2.5527" y1="16.229" x2="2.5527" y2="14.9182" gradientTransform="matrix(14.1216 0 0 -18.1431 -28.7517 293.1025)">
		<stop  offset="0" style="stop-color:#FDEC5F"/>
		<stop  offset="0.6143" style="stop-color:#F89B2E"/>
		<stop  offset="1" style="stop-color:#F26422"/>
	</linearGradient>
	<path fill="url(#SVGID_1_)" stroke="#F07122" stroke-width="0.5" stroke-linecap="round" stroke-linejoin="round" d="M4.509,3.733
		c0,0-3.702,2.32-4.223,7.27c-0.402,3.83,2.549,6.969,6.027,7.334c3.95,0.416,7.544-1.44,8.01-5.858
		c0.5-4.77-3.023-7.554-5.752-9.955C7.24,1.349,8.214,0.25,8.214,0.25C6.712,0.36,5.733,1.82,5.869,3.28
		c0.112,1.203,0.072,2.15-0.76,2.124C4.25,5.374,4.265,4.361,4.509,3.733L4.509,3.733z"/>
	<path fill="#341315" d="M7.427,15.87c-2.574,0-3.139-1.924-3.139-2.666c0-0.211,0.172-0.382,0.383-0.382
		c0.211,0.001,0.381,0.171,0.381,0.382c0,0.018,0.027,1.9,2.373,1.9c2,0,2.494-1.664,2.494-1.9c0-0.211,0.172-0.382,0.383-0.382
		c0.211,0.001,0.382,0.171,0.382,0.382C10.688,13.792,9.909,15.869,7.427,15.87L7.427,15.87z"/>
	<path fill="#331214" d="M3.632,11.273C3.52,10.437,3.63,8.907,4.784,8.938c0.498,0.013,0.878,0.334,1.056,0.784
		c0.127,0.32,0.377,1.44,0.056,1.49c-0.278,0.043-0.345-0.197-0.401-0.451C5.41,10.398,5.311,9.655,4.825,9.615
		c-0.514-0.04-0.597,0.693-0.665,1.067c-0.029,0.164-0.007,0.453-0.088,0.596C3.962,11.471,3.705,11.568,3.632,11.273z
		 M8.574,11.272c-0.06-1.03,0.197-2.54,1.542-2.475c0.57,0.028,0.979,0.444,1.118,0.973c0.096,0.366,0.29,1.611-0.075,1.611
		c-0.34,0-0.405-0.742-0.456-1.111c-0.055-0.395-0.193-0.785-0.644-0.785c-0.55,0-0.82,0.575-0.927,1.05
		C9.089,10.73,9.08,11.09,9.063,11.282C9.048,11.467,8.593,11.688,8.574,11.272L8.574,11.272z"/>
</g>
</svg>
