<?xml version="1.0" encoding="utf-8"?>
<!-- Generator: Adobe Illustrator 16.0.0, SVG Export Plug-In . SVG Version: 6.00 Build 0)  -->
<!DOCTYPE svg PUBLIC "-//W3C//DTD SVG 1.1//EN" "http://www.w3.org/Graphics/SVG/1.1/DTD/svg11.dtd">
<svg version="1.1" id="Calque_1" xmlns="http://www.w3.org/2000/svg" xmlns:xlink="http://www.w3.org/1999/xlink" x="0px" y="0px"
	 width="14.622px" height="18.643px" viewBox="0 0 14.622 18.643" enable-background="new 0 0 14.622 18.643" xml:space="preserve">
<g>
	
		<linearGradient id="SVGID_1_" gradientUnits="userSpaceOnUse" x1="1.9189" y1="21.2173" x2="1.9189" y2="19.9065" gradientTransform="matrix(14.1216 0 0 -18.1431 -19.7988 383.6084)">
		<stop  offset="0" style="stop-color:#FDEC5F"/>
		<stop  offset="0.6143" style="stop-color:#F89B2E"/>
		<stop  offset="1" style="stop-color:#F26422"/>
	</linearGradient>
	<path fill="url(#SVGID_1_)" stroke="#F07122" stroke-width="0.5" stroke-linecap="round" stroke-linejoin="round" d="M4.51,3.733
		c0,0-3.703,2.32-4.223,7.27c-0.402,3.83,2.547,6.969,6.026,7.333c3.95,0.417,7.544-1.439,8.011-5.857
		c0.5-4.77-3.023-7.554-5.752-9.955C7.24,1.349,8.215,0.25,8.215,0.25C6.713,0.36,5.732,1.82,5.869,3.28
		C5.98,4.483,5.94,5.43,5.108,5.404C4.248,5.374,4.265,4.361,4.51,3.733L4.51,3.733z"/>
	<path fill="#341315" d="M4.144,14.18c-0.106-0.448,0.315-0.71,0.558-0.745c0.244-0.037,1.674,0.71,2.574,0.576
		c0.9-0.136,2.594-1.113,2.766-1.28c0.172-0.166,1.242-0.287,1.22,0.55c-0.022,0.835-1.646,2.113-2.177,2.313
		c-1.373,0.517-2.746,0.399-3.729-0.022C4.377,15.148,4.145,14.181,4.144,14.18L4.144,14.18z"/>
	<path fill="#F26665" d="M9.769,14.346c0.04-0.179,0.058-0.341,0.056-0.485c-1.233-0.096-1.838,0.508-2.174,0.745
		c-0.225,0.16-0.246,0.475-0.199,0.727c0.088,0.049,0.187,0.08,0.287,0.09C7.953,15.443,9.514,15.471,9.769,14.346z"/>
	<path fill="#341315" d="M11.113,10.989c-0.496-0.184-0.998-0.188-1.471-0.16c-0.296,0.019-0.584,0.061-0.865,0.101
		c0.147-0.414,0.381-0.792,0.686-1.108c0.07-0.07,0.143-0.14,0.217-0.196c0.037-0.027,0.078-0.06,0.104-0.073
		c0.018-0.019,0.074-0.044,0.125-0.066l0.006-0.003c0.138-0.076,0.188-0.249,0.112-0.387c-0.065-0.121-0.21-0.178-0.341-0.134
		c-0.053,0.021-0.1,0.036-0.176,0.08C9.436,9.08,9.388,9.115,9.332,9.152c-0.106,0.075-0.2,0.154-0.291,0.238
		c-0.182,0.167-0.34,0.35-0.483,0.547c-0.28,0.395-0.521,0.842-0.587,1.383v0.01c-0.02,0.19,0.12,0.359,0.311,0.379
		c0.029,0.003,0.058,0.002,0.086-0.003c0.485-0.08,0.9-0.188,1.334-0.235c0.424-0.051,0.854-0.058,1.219,0.058l0.009,0.003
		c0.151,0.043,0.31-0.045,0.353-0.197c0.041-0.14-0.031-0.288-0.166-0.343L11.113,10.989z M5.201,9.417
		c-0.395,0-0.715,0.49-0.715,1.092c0,0.604,0.32,1.093,0.715,1.093c0.394,0,0.713-0.49,0.713-1.093
		C5.914,9.907,5.595,9.417,5.201,9.417z"/>
</g>
</svg>
