<?xml version="1.0" encoding="utf-8"?>
<!-- Generator: Adobe Illustrator 16.0.0, SVG Export Plug-In . SVG Version: 6.00 Build 0)  -->
<!DOCTYPE svg PUBLIC "-//W3C//DTD SVG 1.1//EN" "http://www.w3.org/Graphics/SVG/1.1/DTD/svg11.dtd">
<svg version="1.1" id="Calque_1" xmlns="http://www.w3.org/2000/svg" xmlns:xlink="http://www.w3.org/1999/xlink" x="0px" y="0px"
	 width="15.871px" height="18.642px" viewBox="0 0 15.871 18.642" enable-background="new 0 0 15.871 18.642" xml:space="preserve">
<g>
	
		<linearGradient id="SVGID_1_" gradientUnits="userSpaceOnUse" x1="4.2568" y1="23.667" x2="4.2568" y2="22.3562" gradientTransform="matrix(14.119 0 0 -18.1427 -52.7903 428.0376)">
		<stop  offset="0" style="stop-color:#FBEA5F"/>
		<stop  offset="1" style="stop-color:#F16624"/>
	</linearGradient>
	<path fill="url(#SVGID_1_)" d="M5.868,3.277c0.111,1.204,0.072,2.151-0.76,2.125c-0.86-0.03-0.844-1.042-0.6-1.67
		c0,0-3.701,2.319-4.221,7.268c-0.404,3.83,2.546,6.97,6.023,7.334c3.953,0.415,7.545-1.44,8.011-5.86
		c0.5-4.77-3.022-7.553-5.75-9.953c-1.335-1.175-0.36-2.272-0.36-2.272c-1.502,0.11-2.482,1.57-2.346,3.03L5.868,3.277z"/>
	<path fill="none" stroke="#EF7125" stroke-width="0.5" stroke-linecap="round" stroke-linejoin="round" d="M4.508,3.731
		c0,0-3.701,2.319-4.222,7.27c-0.401,3.83,2.547,6.968,6.026,7.334c3.951,0.416,7.545-1.439,8.01-5.858
		c0.5-4.771-3.021-7.555-5.75-9.955C7.238,1.347,8.211,0.25,8.211,0.25c-1.5,0.109-2.48,1.569-2.344,3.027
		C5.979,4.48,5.94,5.429,5.108,5.401C4.248,5.371,4.264,4.359,4.508,3.731L4.508,3.731z"/>
	<path fill="#331517" d="M9.174,8.744c0,0,0.021,0.057,0.045,0.155c0.03,0.1,0.061,0.226,0.11,0.356
		c0.06,0.128,0.118,0.26,0.226,0.37c0.106,0.106,0.25,0.21,0.422,0.285c0.178,0.074,0.375,0.116,0.57,0.155
		c0.192,0.043,0.383,0.055,0.545,0.071c0.166,0.022,0.305,0.022,0.402,0.03c0.098,0.012,0.154,0.017,0.154,0.017l0.031,0.36
		c0,0-0.228,0.055-0.584,0.098c-0.18,0.013-0.388,0.023-0.619,0.009c-0.25-0.012-0.496-0.062-0.73-0.147
		c-0.127-0.048-0.25-0.108-0.365-0.182c-0.332-0.205-0.553-0.55-0.602-0.937c-0.055-0.41,0.048-0.614,0.033-0.62l0.361-0.02V8.744z
		 M5.658,8.796c0,0,0,0.217-0.12,0.546C5.475,9.533,5.383,9.713,5.264,9.875c-0.131,0.18-0.287,0.367-0.483,0.5
		c-0.375,0.29-0.813,0.443-1.138,0.517c-0.179,0.043-0.361,0.068-0.545,0.075l-0.08-0.35c0,0,0.045-0.023,0.127-0.061
		c0.084-0.032,0.199-0.087,0.334-0.151C3.75,10.278,4.098,10.1,4.383,9.868c0.141-0.12,0.273-0.242,0.383-0.373
		C4.873,9.361,4.973,9.233,5.051,9.11L5.318,8.68L5.658,8.796L5.658,8.796z"/>
	<path fill="#F16261" d="M9.412,15.067c-0.067,0-0.13-0.038-0.16-0.099c-0.045-0.089-0.011-0.197,0.078-0.244l1.79-0.922
		c0.09-0.044,0.198-0.009,0.244,0.08c0.045,0.089,0.01,0.197-0.08,0.242l0,0l-1.79,0.923C9.468,15.062,9.44,15.068,9.412,15.067
		 M10.402,15.214c-0.073,0-0.14-0.045-0.167-0.114c-0.037-0.092,0.008-0.196,0.1-0.233l2.77-1.126
		c0.093-0.037,0.197,0.008,0.234,0.1c0.038,0.091-0.006,0.195-0.096,0.232c-0.002,0.001-0.003,0.001-0.004,0.002l-2.77,1.126
		C10.448,15.208,10.425,15.213,10.402,15.214 M11.609,15.404c-0.1,0.002-0.183-0.077-0.185-0.176
		c-0.002-0.085,0.056-0.16,0.139-0.18l1.51-0.394c0.096-0.025,0.194,0.032,0.22,0.128c0,0.001,0,0.001,0,0.002
		c0.025,0.096-0.032,0.194-0.128,0.22l-1.51,0.394C11.64,15.402,11.625,15.404,11.609,15.404 M1.319,15.034
		c-0.078-0.001-0.146-0.051-0.17-0.125c-0.032-0.093,0.018-0.194,0.111-0.227c0,0,0.002,0,0.002-0.001l1.521-0.496
		c0.093-0.036,0.196,0.01,0.233,0.102c0.037,0.093-0.009,0.197-0.102,0.233c-0.007,0.003-0.014,0.006-0.021,0.008l-1.519,0.496
		C1.357,15.03,1.338,15.033,1.319,15.034 M1.971,15.449c-0.074,0.001-0.142-0.044-0.17-0.113c-0.037-0.092,0.008-0.197,0.101-0.234
		l2.771-1.126c0.092-0.037,0.196,0.007,0.234,0.1c0,0,0,0,0,0.001c0.037,0.091-0.006,0.194-0.097,0.232
		c-0.001,0-0.002,0.001-0.003,0.001l-2.771,1.126C2.016,15.444,1.993,15.449,1.971,15.449 M3.83,15.359
		c-0.099,0-0.181-0.08-0.181-0.18c0-0.073,0.045-0.14,0.113-0.168l1.439-0.597c0.093-0.036,0.197,0.008,0.236,0.1
		c0.037,0.093-0.008,0.197-0.1,0.235l0,0l-1.441,0.597C3.875,15.355,3.853,15.36,3.83,15.359"/>
	<path fill="#331517" d="M10.152,16.448c0.077,0.324-0.228,0.512-0.402,0.538c-0.176,0.026-1.21-0.514-1.86-0.416
		c-0.647,0.098-1.027,0.413-1.443,0.604c-0.157,0.072-1.01,0.24-0.995-0.364c0.015-0.604,0.75-1.237,1.132-1.382
		c0.992-0.374,1.982-0.29,2.692,0.017C9.985,15.749,10.152,16.448,10.152,16.448 M5.815,11.901c0,0.516-0.329,0.935-0.739,0.935
		c-0.407,0-0.737-0.42-0.737-0.935c0-0.517,0.329-0.936,0.739-0.936C5.485,10.966,5.815,11.386,5.815,11.901 M10.165,11.901
		c0,0.516-0.33,0.935-0.74,0.935c-0.406,0-0.738-0.42-0.738-0.935c0-0.517,0.33-0.936,0.74-0.936
		C9.833,10.966,10.165,11.386,10.165,11.901"/>
	<path fill="#99DAF0" d="M13.336,8.994c-0.906,0-1.697-0.497-2.115-1.33c-0.838-1.67,0.576-3.53,1.899-4.966
		c0.047-0.051,0.112-0.08,0.183-0.08h0.002c0.067,0,0.133,0.025,0.181,0.076c1.284,1.332,2.665,3.094,1.934,4.904
		c-0.336,0.854-1.167,1.411-2.085,1.396"/>
	<path fill="#4582C4" d="M13.307,2.367h-0.006c-0.137,0.001-0.268,0.06-0.361,0.16c-1.381,1.496-2.848,3.442-1.943,5.25
		c0.455,0.904,1.35,1.468,2.34,1.468c1.043,0,1.93-0.594,2.317-1.552c0.793-1.968-0.754-3.895-1.987-5.172
		C13.573,2.423,13.442,2.368,13.307,2.367 M13.307,2.868c1.414,1.468,2.514,3.072,1.883,4.64c-0.33,0.815-1.084,1.238-1.854,1.238
		c-0.808,0-1.543-0.464-1.893-1.192C10.676,6.024,12.049,4.232,13.307,2.868"/>
</g>
</svg>
